G04*
G04 #@! TF.GenerationSoftware,Altium Limited,Altium Designer,18.0.12 (696)*
G04*
G04 Layer_Color=16711935*
%FSLAX25Y25*%
%MOIN*%
G70*
G01*
G75*
%ADD37R,0.06800X0.06800*%
%ADD38C,0.06800*%
%ADD39R,0.12611X0.12611*%
%ADD40O,0.12611X0.16548*%
%ADD41C,0.10642*%
%ADD42C,0.08800*%
%ADD43C,0.06706*%
%ADD44R,0.06706X0.06706*%
%ADD45C,0.16548*%
D37*
X181000Y223300D02*
D03*
X191000D02*
D03*
X301000Y183300D02*
D03*
X291000D02*
D03*
X281000D02*
D03*
X191000Y123300D02*
D03*
X181000D02*
D03*
X281000Y173300D02*
D03*
X291000D02*
D03*
X301000D02*
D03*
D38*
Y223300D02*
D03*
X291000D02*
D03*
X281000D02*
D03*
X271000D02*
D03*
X261000D02*
D03*
X251000D02*
D03*
X241000D02*
D03*
X231000D02*
D03*
X221000D02*
D03*
X211000D02*
D03*
X201000D02*
D03*
X171000D02*
D03*
X161000D02*
D03*
X151000D02*
D03*
X141000D02*
D03*
X131000D02*
D03*
X121000D02*
D03*
X111000D02*
D03*
X101000D02*
D03*
X301000Y123300D02*
D03*
X291000D02*
D03*
X281000D02*
D03*
X261000D02*
D03*
X251000D02*
D03*
X241000D02*
D03*
X231000D02*
D03*
X221000D02*
D03*
X211000D02*
D03*
X201000D02*
D03*
X171000D02*
D03*
X161000D02*
D03*
X151000D02*
D03*
X141000D02*
D03*
X131000D02*
D03*
X121000D02*
D03*
X111000D02*
D03*
X101000D02*
D03*
X271000D02*
D03*
X81000Y223300D02*
D03*
X91000D02*
D03*
D39*
X99100Y-47794D02*
D03*
X68100Y-47700D02*
D03*
X66500Y-10905D02*
D03*
X97500Y-11000D02*
D03*
D40*
X56130Y-86500D02*
D03*
X75815Y-86500D02*
D03*
X95500D02*
D03*
D41*
X127626Y-85969D02*
D03*
X147311D02*
D03*
D42*
X37500Y4000D02*
D03*
Y-36500D02*
D03*
D43*
X314600Y-75000D02*
D03*
Y-65000D02*
D03*
Y-55000D02*
D03*
D44*
Y-45000D02*
D03*
D45*
X11300Y233500D02*
D03*
X348100Y230000D02*
D03*
X3900Y-95100D02*
D03*
X352000D02*
D03*
M02*
