G04*
G04 #@! TF.GenerationSoftware,Altium Limited,Altium Designer,18.0.12 (696)*
G04*
G04 Layer_Color=32896*
%FSLAX25Y25*%
%MOIN*%
G70*
G01*
G75*
%ADD11C,0.01000*%
%ADD12C,0.00787*%
D11*
X100500Y214000D02*
Y224000D01*
X306000Y218200D02*
Y228300D01*
X96000D02*
X306000D01*
X305000Y179300D02*
Y187300D01*
X277000D02*
X305000D01*
X277000Y179300D02*
Y187300D01*
Y179300D02*
X305000D01*
X96000Y118300D02*
Y128300D01*
Y118300D02*
X306000D01*
Y128300D01*
X277000Y159300D02*
Y167300D01*
Y159300D02*
X305000D01*
Y167300D01*
X277000D02*
X305000D01*
X277000Y169300D02*
Y177300D01*
Y169300D02*
X305000D01*
Y177300D01*
X277000D02*
X305000D01*
X277000Y179300D02*
Y187300D01*
Y179300D02*
X305000D01*
Y187300D01*
X277000D02*
X305000D01*
X277000Y159300D02*
Y167300D01*
Y159300D02*
X305000D01*
Y167300D01*
X277000D02*
X305000D01*
X277000Y169300D02*
Y177300D01*
Y169300D02*
X305000D01*
Y177300D01*
X277000D02*
X305000D01*
X277000Y179300D02*
Y187300D01*
Y179300D02*
X305000D01*
Y187300D01*
X277000D02*
X305000D01*
X277000Y159300D02*
Y167300D01*
Y159300D02*
X305000D01*
Y167300D01*
X277000D02*
X305000D01*
X277000Y169300D02*
Y177300D01*
Y169300D02*
X305000D01*
Y177300D01*
X277000D02*
X305000D01*
X277000Y179300D02*
Y187300D01*
Y179300D02*
X305000D01*
Y187300D01*
X277000D02*
X305000D01*
X277000Y169300D02*
X305000D01*
X277000D02*
Y177300D01*
X305000D01*
Y169300D02*
Y177300D01*
D12*
X257500Y225400D02*
X254745D01*
Y224023D01*
X255204Y223563D01*
X256122D01*
X256582Y224023D01*
Y225400D01*
X257500Y221268D02*
X254745D01*
X256122Y222645D01*
Y220808D01*
X177400Y225400D02*
X174645D01*
Y224023D01*
X175104Y223563D01*
X176023D01*
X176482Y224023D01*
Y225400D01*
X175104Y222645D02*
X174645Y222186D01*
Y221268D01*
X175104Y220808D01*
X175563D01*
X176023Y221268D01*
Y221727D01*
Y221268D01*
X176482Y220808D01*
X176941D01*
X177400Y221268D01*
Y222186D01*
X176941Y222645D01*
X97000Y218200D02*
Y215839D01*
X98181D01*
X98574Y216232D01*
Y217019D01*
X98181Y217413D01*
X97000D01*
X100936Y218200D02*
X99361D01*
X100936Y216626D01*
Y216232D01*
X100542Y215839D01*
X99755D01*
X99361Y216232D01*
X101723Y218200D02*
Y217806D01*
X102116D01*
Y218200D01*
X101723D01*
X103691Y215839D02*
X105265D01*
Y216232D01*
X103691Y217806D01*
Y218200D01*
X177400D02*
Y215839D01*
X178581D01*
X178974Y216232D01*
Y217019D01*
X178581Y217413D01*
X177400D01*
X179761Y216232D02*
X180155Y215839D01*
X180942D01*
X181336Y216232D01*
Y216626D01*
X180942Y217019D01*
X180549D01*
X180942D01*
X181336Y217413D01*
Y217806D01*
X180942Y218200D01*
X180155D01*
X179761Y217806D01*
X182123Y218200D02*
Y217806D01*
X182517D01*
Y218200D01*
X182123D01*
X184091Y216232D02*
X184484Y215839D01*
X185272D01*
X185665Y216232D01*
Y217806D01*
X185272Y218200D01*
X184484D01*
X184091Y217806D01*
Y216232D01*
X267300Y218200D02*
Y215839D01*
X268481D01*
X268874Y216232D01*
Y217019D01*
X268481Y217413D01*
X267300D01*
X270842Y218200D02*
Y215839D01*
X269661Y217019D01*
X271236D01*
X272023Y218200D02*
Y217806D01*
X272416D01*
Y218200D01*
X272023D01*
X273991D02*
X274778D01*
X274384D01*
Y215839D01*
X273991Y216232D01*
X107500Y218200D02*
Y215839D01*
X108681D01*
X109074Y216232D01*
Y217019D01*
X108681Y217413D01*
X107500D01*
X111436Y218200D02*
X109861D01*
X111436Y216626D01*
Y216232D01*
X111042Y215839D01*
X110255D01*
X109861Y216232D01*
X112223Y218200D02*
Y217806D01*
X112617D01*
Y218200D01*
X112223D01*
X115765Y215839D02*
X114978Y216232D01*
X114191Y217019D01*
Y217806D01*
X114584Y218200D01*
X115372D01*
X115765Y217806D01*
Y217413D01*
X115372Y217019D01*
X114191D01*
X247800Y218200D02*
Y215839D01*
X248981D01*
X249374Y216232D01*
Y217019D01*
X248981Y217413D01*
X247800D01*
X250161Y216232D02*
X250555Y215839D01*
X251342D01*
X251736Y216232D01*
Y216626D01*
X251342Y217019D01*
X250949D01*
X251342D01*
X251736Y217413D01*
Y217806D01*
X251342Y218200D01*
X250555D01*
X250161Y217806D01*
X252523Y218200D02*
Y217806D01*
X252916D01*
Y218200D01*
X252523D01*
X254491Y215839D02*
X256065D01*
Y216232D01*
X254491Y217806D01*
Y218200D01*
X127200D02*
Y215839D01*
X128381D01*
X128774Y216232D01*
Y217019D01*
X128381Y217413D01*
X127200D01*
X131136Y218200D02*
X129561D01*
X131136Y216626D01*
Y216232D01*
X130742Y215839D01*
X129955D01*
X129561Y216232D01*
X131923Y218200D02*
Y217806D01*
X132317D01*
Y218200D01*
X131923D01*
X135072D02*
Y215839D01*
X133891Y217019D01*
X135465D01*
X137500Y218200D02*
Y215839D01*
X138681D01*
X139074Y216232D01*
Y217019D01*
X138681Y217413D01*
X137500D01*
X141436Y218200D02*
X139861D01*
X141436Y216626D01*
Y216232D01*
X141042Y215839D01*
X140255D01*
X139861Y216232D01*
X142223Y218200D02*
Y217806D01*
X142616D01*
Y218200D01*
X142223D01*
X144191Y216232D02*
X144584Y215839D01*
X145371D01*
X145765Y216232D01*
Y216626D01*
X145371Y217019D01*
X144978D01*
X145371D01*
X145765Y217413D01*
Y217806D01*
X145371Y218200D01*
X144584D01*
X144191Y217806D01*
X147400Y218200D02*
Y215839D01*
X148581D01*
X148974Y216232D01*
Y217019D01*
X148581Y217413D01*
X147400D01*
X151336Y218200D02*
X149761D01*
X151336Y216626D01*
Y216232D01*
X150942Y215839D01*
X150155D01*
X149761Y216232D01*
X152123Y218200D02*
Y217806D01*
X152516D01*
Y218200D01*
X152123D01*
X155665D02*
X154091D01*
X155665Y216626D01*
Y216232D01*
X155271Y215839D01*
X154484D01*
X154091Y216232D01*
X157700Y218200D02*
Y215839D01*
X158881D01*
X159274Y216232D01*
Y217019D01*
X158881Y217413D01*
X157700D01*
X161636Y218200D02*
X160061D01*
X161636Y216626D01*
Y216232D01*
X161242Y215839D01*
X160455D01*
X160061Y216232D01*
X162423Y218200D02*
Y217806D01*
X162817D01*
Y218200D01*
X162423D01*
X164391D02*
X165178D01*
X164784D01*
Y215839D01*
X164391Y216232D01*
X167300Y218200D02*
Y215839D01*
X168481D01*
X168874Y216232D01*
Y217019D01*
X168481Y217413D01*
X167300D01*
X171236Y218200D02*
X169661D01*
X171236Y216626D01*
Y216232D01*
X170842Y215839D01*
X170055D01*
X169661Y216232D01*
X172023Y218200D02*
Y217806D01*
X172416D01*
Y218200D01*
X172023D01*
X173991Y216232D02*
X174384Y215839D01*
X175171D01*
X175565Y216232D01*
Y217806D01*
X175171Y218200D01*
X174384D01*
X173991Y217806D01*
Y216232D01*
X257300Y218200D02*
Y215839D01*
X258481D01*
X258874Y216232D01*
Y217019D01*
X258481Y217413D01*
X257300D01*
X260842Y218200D02*
Y215839D01*
X259661Y217019D01*
X261236D01*
X262023Y218200D02*
Y217806D01*
X262416D01*
Y218200D01*
X262023D01*
X263991Y216232D02*
X264384Y215839D01*
X265172D01*
X265565Y216232D01*
Y217806D01*
X265172Y218200D01*
X264384D01*
X263991Y217806D01*
Y216232D01*
X237400Y218200D02*
Y215839D01*
X238581D01*
X238974Y216232D01*
Y217019D01*
X238581Y217413D01*
X237400D01*
X239761Y216232D02*
X240155Y215839D01*
X240942D01*
X241336Y216232D01*
Y216626D01*
X240942Y217019D01*
X240549D01*
X240942D01*
X241336Y217413D01*
Y217806D01*
X240942Y218200D01*
X240155D01*
X239761Y217806D01*
X242123Y218200D02*
Y217806D01*
X242516D01*
Y218200D01*
X242123D01*
X245665Y215839D02*
X244878Y216232D01*
X244091Y217019D01*
Y217806D01*
X244484Y218200D01*
X245271D01*
X245665Y217806D01*
Y217413D01*
X245271Y217019D01*
X244091D01*
X227400Y218200D02*
Y215839D01*
X228581D01*
X228974Y216232D01*
Y217019D01*
X228581Y217413D01*
X227400D01*
X229761Y216232D02*
X230155Y215839D01*
X230942D01*
X231336Y216232D01*
Y216626D01*
X230942Y217019D01*
X230549D01*
X230942D01*
X231336Y217413D01*
Y217806D01*
X230942Y218200D01*
X230155D01*
X229761Y217806D01*
X232123Y218200D02*
Y217806D01*
X232516D01*
Y218200D01*
X232123D01*
X235665Y215839D02*
X234091D01*
Y217019D01*
X234878Y216626D01*
X235272D01*
X235665Y217019D01*
Y217806D01*
X235272Y218200D01*
X234484D01*
X234091Y217806D01*
X217300Y218200D02*
Y215839D01*
X218481D01*
X218874Y216232D01*
Y217019D01*
X218481Y217413D01*
X217300D01*
X219661Y216232D02*
X220055Y215839D01*
X220842D01*
X221236Y216232D01*
Y216626D01*
X220842Y217019D01*
X220449D01*
X220842D01*
X221236Y217413D01*
Y217806D01*
X220842Y218200D01*
X220055D01*
X219661Y217806D01*
X222023Y218200D02*
Y217806D01*
X222416D01*
Y218200D01*
X222023D01*
X225171D02*
Y215839D01*
X223991Y217019D01*
X225565D01*
X207300Y218200D02*
Y215839D01*
X208481D01*
X208874Y216232D01*
Y217019D01*
X208481Y217413D01*
X207300D01*
X209661Y216232D02*
X210055Y215839D01*
X210842D01*
X211236Y216232D01*
Y216626D01*
X210842Y217019D01*
X210449D01*
X210842D01*
X211236Y217413D01*
Y217806D01*
X210842Y218200D01*
X210055D01*
X209661Y217806D01*
X212023Y218200D02*
Y217806D01*
X212416D01*
Y218200D01*
X212023D01*
X213991Y216232D02*
X214384Y215839D01*
X215172D01*
X215565Y216232D01*
Y216626D01*
X215172Y217019D01*
X214778D01*
X215172D01*
X215565Y217413D01*
Y217806D01*
X215172Y218200D01*
X214384D01*
X213991Y217806D01*
X197300Y218200D02*
Y215839D01*
X198481D01*
X198874Y216232D01*
Y217019D01*
X198481Y217413D01*
X197300D01*
X199661Y216232D02*
X200055Y215839D01*
X200842D01*
X201236Y216232D01*
Y216626D01*
X200842Y217019D01*
X200449D01*
X200842D01*
X201236Y217413D01*
Y217806D01*
X200842Y218200D01*
X200055D01*
X199661Y217806D01*
X202023Y218200D02*
Y217806D01*
X202416D01*
Y218200D01*
X202023D01*
X205565D02*
X203991D01*
X205565Y216626D01*
Y216232D01*
X205171Y215839D01*
X204384D01*
X203991Y216232D01*
X276900Y218100D02*
Y215739D01*
X278081D01*
X278474Y216132D01*
Y216919D01*
X278081Y217313D01*
X276900D01*
X280442Y218100D02*
Y215739D01*
X279261Y216919D01*
X280836D01*
X281623Y218100D02*
Y217706D01*
X282016D01*
Y218100D01*
X281623D01*
X285165D02*
X283591D01*
X285165Y216526D01*
Y216132D01*
X284771Y215739D01*
X283984D01*
X283591Y216132D01*
X287000Y218200D02*
Y215839D01*
X288181D01*
X288574Y216232D01*
Y217019D01*
X288181Y217413D01*
X287000D01*
X290542Y218200D02*
Y215839D01*
X289361Y217019D01*
X290936D01*
X291723Y218200D02*
Y217806D01*
X292116D01*
Y218200D01*
X291723D01*
X293691Y216232D02*
X294084Y215839D01*
X294871D01*
X295265Y216232D01*
Y216626D01*
X294871Y217019D01*
X294478D01*
X294871D01*
X295265Y217413D01*
Y217806D01*
X294871Y218200D01*
X294084D01*
X293691Y217806D01*
X297100Y218200D02*
Y215839D01*
X298281D01*
X298674Y216232D01*
Y217019D01*
X298281Y217413D01*
X297100D01*
X301036Y215839D02*
X299461D01*
Y217019D01*
X300249Y216626D01*
X300642D01*
X301036Y217019D01*
Y217806D01*
X300642Y218200D01*
X299855D01*
X299461Y217806D01*
X301823Y218200D02*
Y217806D01*
X302216D01*
Y218200D01*
X301823D01*
X304972D02*
Y215839D01*
X303791Y217019D01*
X305365D01*
X187400Y218200D02*
Y215839D01*
X188581D01*
X188974Y216232D01*
Y217019D01*
X188581Y217413D01*
X187400D01*
X189761Y216232D02*
X190155Y215839D01*
X190942D01*
X191336Y216232D01*
Y216626D01*
X190942Y217019D01*
X190549D01*
X190942D01*
X191336Y217413D01*
Y217806D01*
X190942Y218200D01*
X190155D01*
X189761Y217806D01*
X192123Y218200D02*
Y217806D01*
X192517D01*
Y218200D01*
X192123D01*
X194091D02*
X194878D01*
X194484D01*
Y215839D01*
X194091Y216232D01*
X116900Y218200D02*
Y215839D01*
X118081D01*
X118474Y216232D01*
Y217019D01*
X118081Y217413D01*
X116900D01*
X120836Y218200D02*
X119261D01*
X120836Y216626D01*
Y216232D01*
X120442Y215839D01*
X119655D01*
X119261Y216232D01*
X121623Y218200D02*
Y217806D01*
X122017D01*
Y218200D01*
X121623D01*
X125165Y215839D02*
X123591D01*
Y217019D01*
X124378Y216626D01*
X124771D01*
X125165Y217019D01*
Y217806D01*
X124771Y218200D01*
X123984D01*
X123591Y217806D01*
X303400Y137900D02*
X300645D01*
Y136522D01*
X301104Y136063D01*
X302023D01*
X302482Y136522D01*
Y137900D01*
X300645Y133308D02*
Y135145D01*
X302023D01*
X301563Y134227D01*
Y133767D01*
X302023Y133308D01*
X302941D01*
X303400Y133767D01*
Y134686D01*
X302941Y135145D01*
X185000Y127100D02*
Y129461D01*
X183819D01*
X183426Y129068D01*
Y128281D01*
X183819Y127887D01*
X185000D01*
X182639Y127100D02*
X181851D01*
X182245D01*
Y129461D01*
X182639Y129068D01*
X180671Y127100D02*
Y127494D01*
X180277D01*
Y127100D01*
X180671D01*
X178703Y129068D02*
X178309Y129461D01*
X177522D01*
X177129Y129068D01*
Y127494D01*
X177522Y127100D01*
X178309D01*
X178703Y127494D01*
Y129068D01*
X275100Y127000D02*
Y129361D01*
X273919D01*
X273526Y128968D01*
Y128181D01*
X273919Y127787D01*
X275100D01*
X271558Y127000D02*
Y129361D01*
X272739Y128181D01*
X271164D01*
X270377Y127000D02*
Y127394D01*
X269984D01*
Y127000D01*
X270377D01*
X266835Y129361D02*
X268409D01*
Y128181D01*
X267622Y128574D01*
X267229D01*
X266835Y128181D01*
Y127394D01*
X267229Y127000D01*
X268016D01*
X268409Y127394D01*
X94400Y125600D02*
X91645D01*
Y124223D01*
X92104Y123763D01*
X93023D01*
X93482Y124223D01*
Y125600D01*
X92104Y122845D02*
X91645Y122386D01*
Y121467D01*
X92104Y121008D01*
X93941D01*
X94400Y121467D01*
Y122386D01*
X93941Y122845D01*
X92104D01*
X245200Y127200D02*
Y129561D01*
X244019D01*
X243626Y129168D01*
Y128381D01*
X244019Y127987D01*
X245200D01*
X242839Y127200D02*
X242051D01*
X242445D01*
Y129561D01*
X242839Y129168D01*
X240871Y127200D02*
Y127594D01*
X240477D01*
Y127200D01*
X240871D01*
X237329Y129561D02*
X238116Y129168D01*
X238903Y128381D01*
Y127594D01*
X238509Y127200D01*
X237722D01*
X237329Y127594D01*
Y127987D01*
X237722Y128381D01*
X238903D01*
X105700Y127300D02*
Y129661D01*
X104519D01*
X104126Y129268D01*
Y128481D01*
X104519Y128087D01*
X105700D01*
X103339Y129268D02*
X102945Y129661D01*
X102158D01*
X101764Y129268D01*
Y127694D01*
X102158Y127300D01*
X102945D01*
X103339Y127694D01*
Y129268D01*
X100977Y127300D02*
Y127694D01*
X100584D01*
Y127300D01*
X100977D01*
X99009Y129268D02*
X98616Y129661D01*
X97829D01*
X97435Y129268D01*
Y127694D01*
X97829Y127300D01*
X98616D01*
X99009Y127694D01*
Y129268D01*
X257500Y125300D02*
X254745D01*
Y123923D01*
X255204Y123463D01*
X256122D01*
X256582Y123923D01*
Y125300D01*
X257500Y121168D02*
X254745D01*
X256122Y122545D01*
Y120708D01*
X177400Y124800D02*
X174645D01*
Y123423D01*
X175104Y122963D01*
X176023D01*
X176482Y123423D01*
Y124800D01*
X177400Y122045D02*
Y121127D01*
Y121586D01*
X174645D01*
X175104Y122045D01*
X305000Y127300D02*
Y129661D01*
X303819D01*
X303426Y129268D01*
Y128481D01*
X303819Y128087D01*
X305000D01*
X301064Y129661D02*
X302639D01*
Y128481D01*
X301851Y128874D01*
X301458D01*
X301064Y128481D01*
Y127694D01*
X301458Y127300D01*
X302245D01*
X302639Y127694D01*
X300277Y127300D02*
Y127694D01*
X299884D01*
Y127300D01*
X300277D01*
X296735Y129661D02*
X298309D01*
Y128481D01*
X297522Y128874D01*
X297129D01*
X296735Y128481D01*
Y127694D01*
X297129Y127300D01*
X297916D01*
X298309Y127694D01*
X294800Y127400D02*
Y129761D01*
X293619D01*
X293226Y129368D01*
Y128581D01*
X293619Y128187D01*
X294800D01*
X291258Y127400D02*
Y129761D01*
X292439Y128581D01*
X290864D01*
X290077Y127400D02*
Y127794D01*
X289684D01*
Y127400D01*
X290077D01*
X288109Y129761D02*
X286535D01*
Y129368D01*
X288109Y127794D01*
Y127400D01*
X284500Y127200D02*
Y129561D01*
X283319D01*
X282926Y129168D01*
Y128381D01*
X283319Y127987D01*
X284500D01*
X280958Y127200D02*
Y129561D01*
X282139Y128381D01*
X280564D01*
X279777Y127200D02*
Y127594D01*
X279384D01*
Y127200D01*
X279777D01*
X276235Y129561D02*
X277022Y129168D01*
X277809Y128381D01*
Y127594D01*
X277416Y127200D01*
X276628D01*
X276235Y127594D01*
Y127987D01*
X276628Y128381D01*
X277809D01*
X265500Y127200D02*
Y129561D01*
X264319D01*
X263926Y129168D01*
Y128381D01*
X264319Y127987D01*
X265500D01*
X261958Y127200D02*
Y129561D01*
X263139Y128381D01*
X261564D01*
X260777Y127200D02*
Y127594D01*
X260384D01*
Y127200D01*
X260777D01*
X257628D02*
Y129561D01*
X258809Y128381D01*
X257235D01*
X255400Y127200D02*
Y129561D01*
X254219D01*
X253826Y129168D01*
Y128381D01*
X254219Y127987D01*
X255400D01*
X253039Y127200D02*
X252251D01*
X252645D01*
Y129561D01*
X253039Y129168D01*
X251071Y127200D02*
Y127594D01*
X250677D01*
Y127200D01*
X251071D01*
X249103Y129561D02*
X247529D01*
Y129168D01*
X249103Y127594D01*
Y127200D01*
X234900D02*
Y129561D01*
X233719D01*
X233326Y129168D01*
Y128381D01*
X233719Y127987D01*
X234900D01*
X232539Y127200D02*
X231751D01*
X232145D01*
Y129561D01*
X232539Y129168D01*
X230571Y127200D02*
Y127594D01*
X230177D01*
Y127200D01*
X230571D01*
X227028Y129561D02*
X228603D01*
Y128381D01*
X227816Y128774D01*
X227422D01*
X227028Y128381D01*
Y127594D01*
X227422Y127200D01*
X228209D01*
X228603Y127594D01*
X225000Y127100D02*
Y129461D01*
X223819D01*
X223426Y129068D01*
Y128281D01*
X223819Y127887D01*
X225000D01*
X222639Y127100D02*
X221851D01*
X222245D01*
Y129461D01*
X222639Y129068D01*
X220671Y127100D02*
Y127494D01*
X220277D01*
Y127100D01*
X220671D01*
X217522D02*
Y129461D01*
X218703Y128281D01*
X217128D01*
X214800Y127200D02*
Y129561D01*
X213619D01*
X213226Y129168D01*
Y128381D01*
X213619Y127987D01*
X214800D01*
X212439Y127200D02*
X211651D01*
X212045D01*
Y129561D01*
X212439Y129168D01*
X210471Y127200D02*
Y127594D01*
X210077D01*
Y127200D01*
X210471D01*
X208503Y129168D02*
X208109Y129561D01*
X207322D01*
X206928Y129168D01*
Y128774D01*
X207322Y128381D01*
X207716D01*
X207322D01*
X206928Y127987D01*
Y127594D01*
X207322Y127200D01*
X208109D01*
X208503Y127594D01*
X204800Y127200D02*
Y129561D01*
X203619D01*
X203226Y129168D01*
Y128381D01*
X203619Y127987D01*
X204800D01*
X202439Y127200D02*
X201651D01*
X202045D01*
Y129561D01*
X202439Y129168D01*
X200471Y127200D02*
Y127594D01*
X200077D01*
Y127200D01*
X200471D01*
X196929D02*
X198503D01*
X196929Y128774D01*
Y129168D01*
X197322Y129561D01*
X198109D01*
X198503Y129168D01*
X195000Y127300D02*
Y129661D01*
X193819D01*
X193426Y129268D01*
Y128481D01*
X193819Y128087D01*
X195000D01*
X192639Y127300D02*
X191851D01*
X192245D01*
Y129661D01*
X192639Y129268D01*
X190671Y127300D02*
Y127694D01*
X190277D01*
Y127300D01*
X190671D01*
X188703D02*
X187916D01*
X188309D01*
Y129661D01*
X188703Y129268D01*
X175100Y127100D02*
Y129461D01*
X173919D01*
X173526Y129068D01*
Y128281D01*
X173919Y127887D01*
X175100D01*
X172739Y129068D02*
X172345Y129461D01*
X171558D01*
X171164Y129068D01*
Y127494D01*
X171558Y127100D01*
X172345D01*
X172739Y127494D01*
Y129068D01*
X170377Y127100D02*
Y127494D01*
X169983D01*
Y127100D01*
X170377D01*
X168409Y129461D02*
X166835D01*
Y129068D01*
X168409Y127494D01*
Y127100D01*
X165000Y127200D02*
Y129561D01*
X163819D01*
X163426Y129168D01*
Y128381D01*
X163819Y127987D01*
X165000D01*
X162639Y129168D02*
X162245Y129561D01*
X161458D01*
X161064Y129168D01*
Y127594D01*
X161458Y127200D01*
X162245D01*
X162639Y127594D01*
Y129168D01*
X160277Y127200D02*
Y127594D01*
X159883D01*
Y127200D01*
X160277D01*
X156735Y129561D02*
X157522Y129168D01*
X158309Y128381D01*
Y127594D01*
X157916Y127200D01*
X157129D01*
X156735Y127594D01*
Y127987D01*
X157129Y128381D01*
X158309D01*
X155000Y127100D02*
Y129461D01*
X153819D01*
X153426Y129068D01*
Y128281D01*
X153819Y127887D01*
X155000D01*
X152639Y129068D02*
X152245Y129461D01*
X151458D01*
X151064Y129068D01*
Y127494D01*
X151458Y127100D01*
X152245D01*
X152639Y127494D01*
Y129068D01*
X150277Y127100D02*
Y127494D01*
X149883D01*
Y127100D01*
X150277D01*
X146735Y129461D02*
X148309D01*
Y128281D01*
X147522Y128674D01*
X147128D01*
X146735Y128281D01*
Y127494D01*
X147128Y127100D01*
X147916D01*
X148309Y127494D01*
X144900Y127300D02*
Y129661D01*
X143719D01*
X143326Y129268D01*
Y128481D01*
X143719Y128087D01*
X144900D01*
X142539Y129268D02*
X142145Y129661D01*
X141358D01*
X140964Y129268D01*
Y127694D01*
X141358Y127300D01*
X142145D01*
X142539Y127694D01*
Y129268D01*
X140177Y127300D02*
Y127694D01*
X139784D01*
Y127300D01*
X140177D01*
X137029D02*
Y129661D01*
X138209Y128481D01*
X136635D01*
X135000Y127300D02*
Y129661D01*
X133819D01*
X133426Y129268D01*
Y128481D01*
X133819Y128087D01*
X135000D01*
X132639Y129268D02*
X132245Y129661D01*
X131458D01*
X131064Y129268D01*
Y127694D01*
X131458Y127300D01*
X132245D01*
X132639Y127694D01*
Y129268D01*
X130277Y127300D02*
Y127694D01*
X129884D01*
Y127300D01*
X130277D01*
X128309Y129268D02*
X127916Y129661D01*
X127129D01*
X126735Y129268D01*
Y128874D01*
X127129Y128481D01*
X127522D01*
X127129D01*
X126735Y128087D01*
Y127694D01*
X127129Y127300D01*
X127916D01*
X128309Y127694D01*
X114800Y127300D02*
Y129661D01*
X113619D01*
X113226Y129268D01*
Y128481D01*
X113619Y128087D01*
X114800D01*
X112439Y129268D02*
X112045Y129661D01*
X111258D01*
X110864Y129268D01*
Y127694D01*
X111258Y127300D01*
X112045D01*
X112439Y127694D01*
Y129268D01*
X110077Y127300D02*
Y127694D01*
X109684D01*
Y127300D01*
X110077D01*
X108109D02*
X107322D01*
X107716D01*
Y129661D01*
X108109Y129268D01*
X125100Y127200D02*
Y129561D01*
X123919D01*
X123526Y129168D01*
Y128381D01*
X123919Y127987D01*
X125100D01*
X122739Y129168D02*
X122345Y129561D01*
X121558D01*
X121164Y129168D01*
Y127594D01*
X121558Y127200D01*
X122345D01*
X122739Y127594D01*
Y129168D01*
X120377Y127200D02*
Y127594D01*
X119983D01*
Y127200D01*
X120377D01*
X116835D02*
X118409D01*
X116835Y128774D01*
Y129168D01*
X117228Y129561D01*
X118016D01*
X118409Y129168D01*
X271376Y187401D02*
X270851Y187926D01*
Y188975D01*
X271376Y189500D01*
X273475D01*
X274000Y188975D01*
Y187926D01*
X273475Y187401D01*
X272426D01*
Y188451D01*
X274000Y186351D02*
X270851D01*
X274000Y184252D01*
X270851D01*
Y183203D02*
X274000D01*
Y181629D01*
X273475Y181104D01*
X271376D01*
X270851Y181629D01*
Y183203D01*
X271051Y162901D02*
Y165000D01*
X272626D01*
X272101Y163951D01*
Y163426D01*
X272626Y162901D01*
X273675D01*
X274200Y163426D01*
Y164475D01*
X273675Y165000D01*
X271051Y161851D02*
X273150D01*
X274200Y160802D01*
X273150Y159752D01*
X271051D01*
X271376Y178600D02*
X270851Y178075D01*
Y177026D01*
X271376Y176501D01*
X271901D01*
X272426Y177026D01*
Y177550D01*
Y177026D01*
X272951Y176501D01*
X273475D01*
X274000Y177026D01*
Y178075D01*
X273475Y178600D01*
X274000Y175451D02*
X273475D01*
Y174927D01*
X274000D01*
Y175451D01*
X271376Y172828D02*
X270851Y172303D01*
Y171253D01*
X271376Y170729D01*
X271901D01*
X272426Y171253D01*
Y171778D01*
Y171253D01*
X272951Y170729D01*
X273475D01*
X274000Y171253D01*
Y172303D01*
X273475Y172828D01*
X270851Y169679D02*
X272951D01*
X274000Y168630D01*
X272951Y167580D01*
X270851D01*
X271376Y187401D02*
X270851Y187926D01*
Y188975D01*
X271376Y189500D01*
X273475D01*
X274000Y188975D01*
Y187926D01*
X273475Y187401D01*
X272426D01*
Y188451D01*
X274000Y186351D02*
X270851D01*
X274000Y184252D01*
X270851D01*
Y183203D02*
X274000D01*
Y181629D01*
X273475Y181104D01*
X271376D01*
X270851Y181629D01*
Y183203D01*
X271051Y162901D02*
Y165000D01*
X272626D01*
X272101Y163951D01*
Y163426D01*
X272626Y162901D01*
X273675D01*
X274200Y163426D01*
Y164475D01*
X273675Y165000D01*
X271051Y161851D02*
X273150D01*
X274200Y160802D01*
X273150Y159752D01*
X271051D01*
X271376Y178600D02*
X270851Y178075D01*
Y177026D01*
X271376Y176501D01*
X271901D01*
X272426Y177026D01*
Y177550D01*
Y177026D01*
X272951Y176501D01*
X273475D01*
X274000Y177026D01*
Y178075D01*
X273475Y178600D01*
X274000Y175451D02*
X273475D01*
Y174927D01*
X274000D01*
Y175451D01*
X271376Y172828D02*
X270851Y172303D01*
Y171253D01*
X271376Y170729D01*
X271901D01*
X272426Y171253D01*
Y171778D01*
Y171253D01*
X272951Y170729D01*
X273475D01*
X274000Y171253D01*
Y172303D01*
X273475Y172828D01*
X270851Y169679D02*
X272951D01*
X274000Y168630D01*
X272951Y167580D01*
X270851D01*
X271376Y187401D02*
X270851Y187926D01*
Y188975D01*
X271376Y189500D01*
X273475D01*
X274000Y188975D01*
Y187926D01*
X273475Y187401D01*
X272426D01*
Y188451D01*
X274000Y186351D02*
X270851D01*
X274000Y184252D01*
X270851D01*
Y183203D02*
X274000D01*
Y181629D01*
X273475Y181104D01*
X271376D01*
X270851Y181629D01*
Y183203D01*
X271051Y162901D02*
Y165000D01*
X272626D01*
X272101Y163951D01*
Y163426D01*
X272626Y162901D01*
X273675D01*
X274200Y163426D01*
Y164475D01*
X273675Y165000D01*
X271051Y161851D02*
X273150D01*
X274200Y160802D01*
X273150Y159752D01*
X271051D01*
X271376Y178600D02*
X270851Y178075D01*
Y177026D01*
X271376Y176501D01*
X271901D01*
X272426Y177026D01*
Y177550D01*
Y177026D01*
X272951Y176501D01*
X273475D01*
X274000Y177026D01*
Y178075D01*
X273475Y178600D01*
X274000Y175451D02*
X273475D01*
Y174927D01*
X274000D01*
Y175451D01*
X271376Y172828D02*
X270851Y172303D01*
Y171253D01*
X271376Y170729D01*
X271901D01*
X272426Y171253D01*
Y171778D01*
Y171253D01*
X272951Y170729D01*
X273475D01*
X274000Y171253D01*
Y172303D01*
X273475Y172828D01*
X270851Y169679D02*
X272951D01*
X274000Y168630D01*
X272951Y167580D01*
X270851D01*
M02*
