G04*
G04 #@! TF.GenerationSoftware,Altium Limited,Altium Designer,18.0.12 (696)*
G04*
G04 Layer_Color=255*
%FSLAX25Y25*%
%MOIN*%
G70*
G01*
G75*
%ADD50R,0.06000X0.06000*%
%ADD51C,0.06000*%
%ADD52R,0.11811X0.11811*%
%ADD53O,0.11811X0.15748*%
%ADD54C,0.09843*%
%ADD55C,0.08000*%
%ADD56C,0.05906*%
%ADD57R,0.05906X0.05906*%
%ADD58C,0.15748*%
D50*
X181000Y223300D02*
D03*
X191000D02*
D03*
X301000Y183300D02*
D03*
X291000D02*
D03*
X281000D02*
D03*
X191000Y123300D02*
D03*
X181000D02*
D03*
X281000Y173300D02*
D03*
X291000D02*
D03*
X301000D02*
D03*
D51*
Y223300D02*
D03*
X291000D02*
D03*
X281000D02*
D03*
X271000D02*
D03*
X261000D02*
D03*
X251000D02*
D03*
X241000D02*
D03*
X231000D02*
D03*
X221000D02*
D03*
X211000D02*
D03*
X201000D02*
D03*
X171000D02*
D03*
X161000D02*
D03*
X151000D02*
D03*
X141000D02*
D03*
X131000D02*
D03*
X121000D02*
D03*
X111000D02*
D03*
X101000D02*
D03*
X301000Y123300D02*
D03*
X291000D02*
D03*
X281000D02*
D03*
X261000D02*
D03*
X251000D02*
D03*
X241000D02*
D03*
X231000D02*
D03*
X221000D02*
D03*
X211000D02*
D03*
X201000D02*
D03*
X171000D02*
D03*
X161000D02*
D03*
X151000D02*
D03*
X141000D02*
D03*
X131000D02*
D03*
X121000D02*
D03*
X111000D02*
D03*
X101000D02*
D03*
X271000D02*
D03*
X81000Y223300D02*
D03*
X91000D02*
D03*
D52*
X99100Y-47794D02*
D03*
X68100Y-47700D02*
D03*
X66500Y-10905D02*
D03*
X97500Y-11000D02*
D03*
D53*
X56130Y-86500D02*
D03*
X75815Y-86500D02*
D03*
X95500D02*
D03*
D54*
X127626Y-85969D02*
D03*
X147311D02*
D03*
D55*
X37500Y4000D02*
D03*
Y-36500D02*
D03*
D56*
X314600Y-75000D02*
D03*
Y-65000D02*
D03*
Y-55000D02*
D03*
D57*
Y-45000D02*
D03*
D58*
X11300Y233500D02*
D03*
X348100Y230000D02*
D03*
X3900Y-95100D02*
D03*
X352000D02*
D03*
M02*
