M48
;Layer_Color=9474304
;FILE_FORMAT=2:5
INCH,LZ
;TYPE=PLATED
T1F00S00C0.01575
T2F00S00C0.02800
T3F00S00C0.03000
T4F00S00C0.03200
T5F00S00C0.03543
T6F00S00C0.04200
T7F00S00C0.04724
T8F00S00C0.06496
T9F00S00C0.07874
T10F00S00C0.12008
%
T01
X02234Y-00705
X01862Y-0021
X02595Y-00217
X0274Y-00341
X02875Y-00089
X02939Y-00692
X02748Y-00796
X0279Y0006
X02798Y00256
X02837Y00348
X02924Y00314
X02938Y00231
X03031Y00321
X03116Y0049
X0334Y00472
X03353Y0061
X03459Y00689
X03233Y00685
X03105Y00741
X03145Y00797
X03077Y00844
X02841Y00772
X02787Y00717
X02919Y00668
X02924Y00608
X0268006Y0054648
X02572Y00425
X02666Y00196
X03488Y0042
X0251629Y0047929
X02303Y00514
X024Y00748
X0200964Y0101236
X01885Y01103
X01704Y01014
X01443Y01106
X01382Y00538
X01266Y00467
X01167Y0021
X01756Y00236
X01965Y00031
X0195Y00526
X01623Y00539
X00471Y00432
X00357Y00464
X00204Y00439
X00087Y00456
X00344Y00251
X00362Y00979
X00103Y00975
X00612Y01165
X01703Y02041
T02
X0201978Y-0070022
X0223878Y-00708
T03
X0281Y01233
X0291
X0301
X0091Y02233
X0081
X0271
X0281
X0291
X0301
T04
X0261Y01233
X0271
X0251
X0241
X0231
X0221
X0211
X0201
X0191
X0181
X0171
X0161
X0151
X0141
X0131
X0121
X0111
X0101
Y02233
X0111
X0121
X0131
X0141
X0151
X0161
X0171
X0181
X0191
X0201
X0211
X0221
X0231
X0241
X0251
X0261
X0281Y01833
X0291
X0301
Y01733
X0291
X0281
T05
X03146Y-0075
Y-0065
Y-0055
Y-0045
T06
X00375Y-00365
Y0004
T07
X0127626Y-0085969
X0147311
T08
X005613Y-00865
X0075815Y-00865
X00955
T09
X00681Y-00477
X00665Y-0010905
X00975Y-0011
X00991Y-0047794
T10
X00039Y-00951
X0352
X00113Y02335
X03481Y023
M30
