G04*
G04 #@! TF.GenerationSoftware,Altium Limited,Altium Designer,18.0.12 (696)*
G04*
G04 Layer_Color=255*
%FSLAX25Y25*%
%MOIN*%
G70*
G01*
G75*
%ADD15R,0.03740X0.03150*%
%ADD16O,0.02756X0.09843*%
%ADD17R,0.09449X0.12992*%
%ADD18R,0.06102X0.02165*%
%ADD19R,0.07087X0.06299*%
%ADD20R,0.03937X0.04331*%
%ADD21R,0.04331X0.03937*%
%ADD22R,0.03150X0.03740*%
%ADD23R,0.11811X0.05512*%
%ADD24R,0.25591X0.23622*%
%ADD25R,0.05906X0.08000*%
%ADD50R,0.06000X0.06000*%
%ADD51C,0.06000*%
%ADD52R,0.11811X0.11811*%
%ADD53O,0.11811X0.15748*%
%ADD54C,0.09843*%
%ADD55C,0.08000*%
%ADD56C,0.05906*%
%ADD57R,0.05906X0.05906*%
%ADD58C,0.15748*%
D15*
X334364Y33657D02*
D03*
Y40743D02*
D03*
X282883Y-74743D02*
D03*
Y-67657D02*
D03*
X284136Y-47043D02*
D03*
Y-39957D02*
D03*
X328736Y61257D02*
D03*
Y68343D02*
D03*
X237264Y58543D02*
D03*
Y51457D02*
D03*
X223736Y-18543D02*
D03*
Y-11457D02*
D03*
Y-2543D02*
D03*
Y4543D02*
D03*
X328736Y47257D02*
D03*
Y54343D02*
D03*
X245736Y51457D02*
D03*
Y58543D02*
D03*
X186236Y-34543D02*
D03*
Y-27457D02*
D03*
Y-13043D02*
D03*
Y-5957D02*
D03*
X6736Y-6543D02*
D03*
Y543D02*
D03*
X6236Y10957D02*
D03*
Y18043D02*
D03*
X261736Y-34543D02*
D03*
Y-27457D02*
D03*
X260736Y-12043D02*
D03*
Y-4957D02*
D03*
X237236Y35457D02*
D03*
Y42543D02*
D03*
X147736Y-15043D02*
D03*
Y-7957D02*
D03*
Y457D02*
D03*
Y7543D02*
D03*
X245764Y42543D02*
D03*
Y35457D02*
D03*
X18028Y47D02*
D03*
Y-7040D02*
D03*
X18264Y18043D02*
D03*
Y10957D02*
D03*
D16*
X309300Y12754D02*
D03*
X314300D02*
D03*
X319300D02*
D03*
X324300D02*
D03*
X309300Y32046D02*
D03*
X314300D02*
D03*
X319300D02*
D03*
X324300D02*
D03*
D17*
X80919Y20700D02*
D03*
X108281D02*
D03*
D18*
X292900Y83900D02*
D03*
Y75900D02*
D03*
X301900D02*
D03*
Y79900D02*
D03*
Y83900D02*
D03*
X34358Y21740D02*
D03*
Y14260D02*
D03*
X41642Y18000D02*
D03*
X61642D02*
D03*
X54358Y14260D02*
D03*
Y21740D02*
D03*
D19*
X9700Y-65212D02*
D03*
Y-54188D02*
D03*
X22500Y-65012D02*
D03*
Y-53988D02*
D03*
D20*
X340800Y61507D02*
D03*
Y68200D02*
D03*
X341900Y33754D02*
D03*
Y40446D02*
D03*
X274100Y-40154D02*
D03*
Y-46846D02*
D03*
X274600Y-67953D02*
D03*
Y-74647D02*
D03*
X257500Y52653D02*
D03*
Y59346D02*
D03*
X229000Y35654D02*
D03*
Y42347D02*
D03*
D21*
X305153Y44000D02*
D03*
X311846D02*
D03*
X269153Y15500D02*
D03*
X275847D02*
D03*
D22*
X267900Y-87000D02*
D03*
X274987D02*
D03*
X154887Y44700D02*
D03*
X147800D02*
D03*
X62043Y110236D02*
D03*
X54957D02*
D03*
X195543Y101236D02*
D03*
X188457D02*
D03*
X81143Y165636D02*
D03*
X74057D02*
D03*
X164043Y111236D02*
D03*
X156957D02*
D03*
X290900Y43600D02*
D03*
X297987D02*
D03*
X179700Y44700D02*
D03*
X186787D02*
D03*
X271043Y82536D02*
D03*
X263957D02*
D03*
X164043Y101736D02*
D03*
X156957D02*
D03*
X268957Y25264D02*
D03*
X276043D02*
D03*
X276043Y33736D02*
D03*
X268957D02*
D03*
X82043Y178236D02*
D03*
X74957D02*
D03*
X82043Y188236D02*
D03*
X74957D02*
D03*
X82543Y151736D02*
D03*
X75457D02*
D03*
D23*
X172114Y-52055D02*
D03*
Y-33945D02*
D03*
X249114D02*
D03*
Y-52055D02*
D03*
D24*
X146878Y-43000D02*
D03*
X223878D02*
D03*
D25*
X126347Y90495D02*
D03*
X116308D02*
D03*
X126387Y54393D02*
D03*
X116387D02*
D03*
X187847Y88995D02*
D03*
X177808D02*
D03*
X187887Y52893D02*
D03*
X177887D02*
D03*
X9653Y53505D02*
D03*
X19692D02*
D03*
X9613Y89607D02*
D03*
X19613D02*
D03*
X36153Y54005D02*
D03*
X46192D02*
D03*
X36113Y90107D02*
D03*
X46113D02*
D03*
X155847Y89995D02*
D03*
X145808D02*
D03*
X155887Y53893D02*
D03*
X145887D02*
D03*
D50*
X181000Y223300D02*
D03*
X191000D02*
D03*
X301000Y183300D02*
D03*
X291000D02*
D03*
X281000D02*
D03*
X191000Y123300D02*
D03*
X181000D02*
D03*
X281000Y173300D02*
D03*
X291000D02*
D03*
X301000D02*
D03*
D51*
Y223300D02*
D03*
X291000D02*
D03*
X281000D02*
D03*
X271000D02*
D03*
X261000D02*
D03*
X251000D02*
D03*
X241000D02*
D03*
X231000D02*
D03*
X221000D02*
D03*
X211000D02*
D03*
X201000D02*
D03*
X171000D02*
D03*
X161000D02*
D03*
X151000D02*
D03*
X141000D02*
D03*
X131000D02*
D03*
X121000D02*
D03*
X111000D02*
D03*
X101000D02*
D03*
X301000Y123300D02*
D03*
X291000D02*
D03*
X281000D02*
D03*
X261000D02*
D03*
X251000D02*
D03*
X241000D02*
D03*
X231000D02*
D03*
X221000D02*
D03*
X211000D02*
D03*
X201000D02*
D03*
X171000D02*
D03*
X161000D02*
D03*
X151000D02*
D03*
X141000D02*
D03*
X131000D02*
D03*
X121000D02*
D03*
X111000D02*
D03*
X101000D02*
D03*
X271000D02*
D03*
X81000Y223300D02*
D03*
X91000D02*
D03*
D52*
X99100Y-47794D02*
D03*
X68100Y-47700D02*
D03*
X66500Y-10905D02*
D03*
X97500Y-11000D02*
D03*
D53*
X56130Y-86500D02*
D03*
X75815Y-86500D02*
D03*
X95500D02*
D03*
D54*
X127626Y-85969D02*
D03*
X147311D02*
D03*
D55*
X37500Y4000D02*
D03*
Y-36500D02*
D03*
D56*
X314600Y-75000D02*
D03*
Y-65000D02*
D03*
Y-55000D02*
D03*
D57*
Y-45000D02*
D03*
D58*
X11300Y233500D02*
D03*
X348100Y230000D02*
D03*
X3900Y-95100D02*
D03*
X352000D02*
D03*
M02*
