G04*
G04 #@! TF.GenerationSoftware,Altium Limited,Altium Designer,18.0.12 (696)*
G04*
G04 Layer_Physical_Order=2*
G04 Layer_Color=16711680*
%FSLAX25Y25*%
%MOIN*%
G70*
G01*
G75*
%ADD10C,0.01000*%
%ADD47C,0.03937*%
%ADD48C,0.01181*%
%ADD49C,0.01968*%
%ADD50C,0.00600*%
%ADD51C,0.09843*%
%ADD52O,0.11811X0.15748*%
%ADD53R,0.11811X0.11811*%
%ADD54C,0.06000*%
%ADD55C,0.08000*%
%ADD56O,0.06000X0.05000*%
%ADD57R,0.06000X0.06000*%
%ADD58C,0.15748*%
%ADD59C,0.03150*%
%ADD60C,0.05000*%
G36*
X365200Y177400D02*
X365286Y156767D01*
Y105186D01*
X360900Y100800D01*
X237800D01*
X216400Y79400D01*
X-1700D01*
X-6100Y82400D01*
Y182800D01*
X60500Y249300D01*
X292800D01*
X365200Y177400D01*
D02*
G37*
G36*
X355400Y90700D02*
X363700Y82400D01*
Y-69500D01*
X350700D01*
X331900Y-99400D01*
X256400D01*
X228500Y-58500D01*
X203500D01*
X135000Y9200D01*
X99700Y8900D01*
X42900D01*
X42895Y5795D01*
X42405Y5698D01*
X42026Y6613D01*
X41195Y7695D01*
X40113Y8526D01*
X38853Y9048D01*
X37500Y9226D01*
X36147Y9048D01*
X34887Y8526D01*
X33805Y7695D01*
X32974Y6613D01*
X32452Y5353D01*
X32274Y4000D01*
X32452Y2647D01*
X32974Y1387D01*
X33805Y305D01*
X34887Y-526D01*
X36147Y-1048D01*
X37500Y-1226D01*
X38853Y-1048D01*
X40113Y-526D01*
X41195Y305D01*
X42026Y1387D01*
X42399Y2289D01*
X42889Y2191D01*
X42831Y-34551D01*
X42341Y-34648D01*
X42026Y-33887D01*
X41195Y-32805D01*
X40113Y-31974D01*
X38853Y-31452D01*
X37500Y-31274D01*
X36147Y-31452D01*
X34887Y-31974D01*
X33805Y-32805D01*
X32974Y-33887D01*
X32452Y-35148D01*
X32274Y-36500D01*
X32452Y-37853D01*
X32974Y-39113D01*
X33805Y-40195D01*
X34887Y-41026D01*
X36147Y-41548D01*
X37500Y-41726D01*
X38853Y-41548D01*
X40113Y-41026D01*
X41195Y-40195D01*
X42026Y-39113D01*
X42335Y-38366D01*
X42825Y-38464D01*
X42800Y-54400D01*
X36500D01*
X-3497Y-54287D01*
X-3999Y62846D01*
X-3646Y63200D01*
X91011D01*
X91202Y62738D01*
X88732Y60268D01*
X88405Y59778D01*
X88290Y59200D01*
X88290Y59200D01*
Y49215D01*
X87835Y48866D01*
X87393Y48290D01*
X87115Y47619D01*
X87020Y46900D01*
X87115Y46181D01*
X87393Y45510D01*
X87835Y44934D01*
X88410Y44493D01*
X89081Y44215D01*
X89800Y44120D01*
X90519Y44215D01*
X91190Y44493D01*
X91765Y44934D01*
X92207Y45510D01*
X92485Y46181D01*
X92580Y46900D01*
X92485Y47619D01*
X92207Y48290D01*
X91765Y48866D01*
X91310Y49215D01*
Y58574D01*
X95936Y63200D01*
X217400D01*
X244700Y90800D01*
X355400Y90700D01*
D02*
G37*
%LPC*%
G36*
X195081Y227481D02*
X186719D01*
Y219119D01*
X195081D01*
Y227481D01*
D02*
G37*
G36*
X185081D02*
X176719D01*
Y219119D01*
X185081D01*
Y227481D01*
D02*
G37*
G36*
X300900Y227517D02*
X299809Y227374D01*
X298791Y226952D01*
X297918Y226282D01*
X297248Y225409D01*
X296827Y224392D01*
X296683Y223300D01*
X296827Y222208D01*
X297248Y221191D01*
X297918Y220318D01*
X298791Y219648D01*
X299809Y219227D01*
X300900Y219083D01*
X301992Y219227D01*
X303009Y219648D01*
X303882Y220318D01*
X304552Y221191D01*
X304974Y222208D01*
X305117Y223300D01*
X304974Y224392D01*
X304552Y225409D01*
X303882Y226282D01*
X303009Y226952D01*
X301992Y227374D01*
X300900Y227517D01*
D02*
G37*
G36*
X290900D02*
X289809Y227374D01*
X288791Y226952D01*
X287918Y226282D01*
X287248Y225409D01*
X286826Y224392D01*
X286683Y223300D01*
X286826Y222208D01*
X287248Y221191D01*
X287918Y220318D01*
X288791Y219648D01*
X289809Y219227D01*
X290900Y219083D01*
X291991Y219227D01*
X293009Y219648D01*
X293882Y220318D01*
X294552Y221191D01*
X294973Y222208D01*
X295117Y223300D01*
X294973Y224392D01*
X294552Y225409D01*
X293882Y226282D01*
X293009Y226952D01*
X291991Y227374D01*
X290900Y227517D01*
D02*
G37*
G36*
X280900D02*
X279808Y227374D01*
X278791Y226952D01*
X277918Y226282D01*
X277248Y225409D01*
X276827Y224392D01*
X276683Y223300D01*
X276827Y222208D01*
X277248Y221191D01*
X277918Y220318D01*
X278791Y219648D01*
X279808Y219227D01*
X280900Y219083D01*
X281992Y219227D01*
X283009Y219648D01*
X283882Y220318D01*
X284552Y221191D01*
X284974Y222208D01*
X285117Y223300D01*
X284974Y224392D01*
X284552Y225409D01*
X283882Y226282D01*
X283009Y226952D01*
X281992Y227374D01*
X280900Y227517D01*
D02*
G37*
G36*
X270900D02*
X269809Y227374D01*
X268791Y226952D01*
X267918Y226282D01*
X267248Y225409D01*
X266827Y224392D01*
X266683Y223300D01*
X266827Y222208D01*
X267248Y221191D01*
X267918Y220318D01*
X268791Y219648D01*
X269809Y219227D01*
X270900Y219083D01*
X271991Y219227D01*
X273009Y219648D01*
X273882Y220318D01*
X274552Y221191D01*
X274974Y222208D01*
X275117Y223300D01*
X274974Y224392D01*
X274552Y225409D01*
X273882Y226282D01*
X273009Y226952D01*
X271991Y227374D01*
X270900Y227517D01*
D02*
G37*
G36*
X260900D02*
X259808Y227374D01*
X258791Y226952D01*
X257918Y226282D01*
X257248Y225409D01*
X256826Y224392D01*
X256683Y223300D01*
X256826Y222208D01*
X257248Y221191D01*
X257918Y220318D01*
X258791Y219648D01*
X259808Y219227D01*
X260900Y219083D01*
X261992Y219227D01*
X263009Y219648D01*
X263882Y220318D01*
X264552Y221191D01*
X264973Y222208D01*
X265117Y223300D01*
X264973Y224392D01*
X264552Y225409D01*
X263882Y226282D01*
X263009Y226952D01*
X261992Y227374D01*
X260900Y227517D01*
D02*
G37*
G36*
X250900D02*
X249809Y227374D01*
X248791Y226952D01*
X247918Y226282D01*
X247248Y225409D01*
X246827Y224392D01*
X246683Y223300D01*
X246827Y222208D01*
X246990Y221814D01*
X228790Y203614D01*
X180559D01*
X180366Y203866D01*
X179790Y204307D01*
X179119Y204585D01*
X178400Y204680D01*
X177681Y204585D01*
X177010Y204307D01*
X176435Y203866D01*
X175993Y203290D01*
X175715Y202619D01*
X175620Y201900D01*
X175715Y201181D01*
X175993Y200510D01*
X176435Y199934D01*
X177010Y199493D01*
X177681Y199215D01*
X178400Y199120D01*
X179119Y199215D01*
X179790Y199493D01*
X180366Y199934D01*
X180559Y200186D01*
X229500D01*
X230156Y200316D01*
X230712Y200688D01*
X249414Y219390D01*
X249809Y219227D01*
X250900Y219083D01*
X251992Y219227D01*
X253009Y219648D01*
X253882Y220318D01*
X254552Y221191D01*
X254974Y222208D01*
X255117Y223300D01*
X254974Y224392D01*
X254552Y225409D01*
X253882Y226282D01*
X253009Y226952D01*
X251992Y227374D01*
X250900Y227517D01*
D02*
G37*
G36*
X240900D02*
X239809Y227374D01*
X238791Y226952D01*
X237918Y226282D01*
X237248Y225409D01*
X236826Y224392D01*
X236683Y223300D01*
X236826Y222208D01*
X237248Y221191D01*
X237918Y220318D01*
X238791Y219648D01*
X239809Y219227D01*
X240900Y219083D01*
X241991Y219227D01*
X243009Y219648D01*
X243882Y220318D01*
X244552Y221191D01*
X244973Y222208D01*
X245117Y223300D01*
X244973Y224392D01*
X244552Y225409D01*
X243882Y226282D01*
X243009Y226952D01*
X241991Y227374D01*
X240900Y227517D01*
D02*
G37*
G36*
X230900D02*
X229808Y227374D01*
X228791Y226952D01*
X227918Y226282D01*
X227248Y225409D01*
X226827Y224392D01*
X226683Y223300D01*
X226827Y222208D01*
X227248Y221191D01*
X227918Y220318D01*
X228791Y219648D01*
X229808Y219227D01*
X230900Y219083D01*
X231992Y219227D01*
X233009Y219648D01*
X233882Y220318D01*
X234552Y221191D01*
X234974Y222208D01*
X235117Y223300D01*
X234974Y224392D01*
X234552Y225409D01*
X233882Y226282D01*
X233009Y226952D01*
X231992Y227374D01*
X230900Y227517D01*
D02*
G37*
G36*
X220900D02*
X219809Y227374D01*
X218791Y226952D01*
X217918Y226282D01*
X217248Y225409D01*
X216827Y224392D01*
X216683Y223300D01*
X216827Y222208D01*
X217248Y221191D01*
X217918Y220318D01*
X218791Y219648D01*
X219809Y219227D01*
X220900Y219083D01*
X221991Y219227D01*
X223009Y219648D01*
X223882Y220318D01*
X224552Y221191D01*
X224974Y222208D01*
X225117Y223300D01*
X224974Y224392D01*
X224552Y225409D01*
X223882Y226282D01*
X223009Y226952D01*
X221991Y227374D01*
X220900Y227517D01*
D02*
G37*
G36*
X210900D02*
X209808Y227374D01*
X208791Y226952D01*
X207918Y226282D01*
X207248Y225409D01*
X206826Y224392D01*
X206683Y223300D01*
X206826Y222208D01*
X207248Y221191D01*
X207918Y220318D01*
X208791Y219648D01*
X209808Y219227D01*
X210900Y219083D01*
X211992Y219227D01*
X213009Y219648D01*
X213882Y220318D01*
X214552Y221191D01*
X214973Y222208D01*
X215117Y223300D01*
X214973Y224392D01*
X214552Y225409D01*
X213882Y226282D01*
X213009Y226952D01*
X211992Y227374D01*
X210900Y227517D01*
D02*
G37*
G36*
X200900D02*
X199809Y227374D01*
X198791Y226952D01*
X197918Y226282D01*
X197248Y225409D01*
X196827Y224392D01*
X196683Y223300D01*
X196827Y222208D01*
X197248Y221191D01*
X197918Y220318D01*
X198791Y219648D01*
X199809Y219227D01*
X200900Y219083D01*
X201992Y219227D01*
X203009Y219648D01*
X203882Y220318D01*
X204552Y221191D01*
X204974Y222208D01*
X205117Y223300D01*
X204974Y224392D01*
X204552Y225409D01*
X203882Y226282D01*
X203009Y226952D01*
X201992Y227374D01*
X200900Y227517D01*
D02*
G37*
G36*
X170900D02*
X169808Y227374D01*
X168791Y226952D01*
X167918Y226282D01*
X167248Y225409D01*
X166826Y224392D01*
X166683Y223300D01*
X166826Y222208D01*
X167248Y221191D01*
X167918Y220318D01*
X168791Y219648D01*
X169808Y219227D01*
X170900Y219083D01*
X171992Y219227D01*
X173009Y219648D01*
X173882Y220318D01*
X174552Y221191D01*
X174973Y222208D01*
X175117Y223300D01*
X174973Y224392D01*
X174552Y225409D01*
X173882Y226282D01*
X173009Y226952D01*
X171992Y227374D01*
X170900Y227517D01*
D02*
G37*
G36*
X160900D02*
X159809Y227374D01*
X158791Y226952D01*
X157918Y226282D01*
X157248Y225409D01*
X156826Y224392D01*
X156683Y223300D01*
X156826Y222208D01*
X157248Y221191D01*
X157918Y220318D01*
X158791Y219648D01*
X159809Y219227D01*
X160900Y219083D01*
X161992Y219227D01*
X163009Y219648D01*
X163882Y220318D01*
X164552Y221191D01*
X164973Y222208D01*
X165117Y223300D01*
X164973Y224392D01*
X164552Y225409D01*
X163882Y226282D01*
X163009Y226952D01*
X161992Y227374D01*
X160900Y227517D01*
D02*
G37*
G36*
X150900D02*
X149809Y227374D01*
X148791Y226952D01*
X147918Y226282D01*
X147248Y225409D01*
X146827Y224392D01*
X146683Y223300D01*
X146827Y222208D01*
X147248Y221191D01*
X147918Y220318D01*
X148791Y219648D01*
X149809Y219227D01*
X150900Y219083D01*
X151991Y219227D01*
X153009Y219648D01*
X153882Y220318D01*
X154552Y221191D01*
X154973Y222208D01*
X155117Y223300D01*
X154973Y224392D01*
X154552Y225409D01*
X153882Y226282D01*
X153009Y226952D01*
X151991Y227374D01*
X150900Y227517D01*
D02*
G37*
G36*
X140900D02*
X139808Y227374D01*
X138791Y226952D01*
X137918Y226282D01*
X137248Y225409D01*
X136827Y224392D01*
X136683Y223300D01*
X136827Y222208D01*
X137248Y221191D01*
X137918Y220318D01*
X138791Y219648D01*
X139808Y219227D01*
X140900Y219083D01*
X141991Y219227D01*
X143009Y219648D01*
X143882Y220318D01*
X144552Y221191D01*
X144974Y222208D01*
X145117Y223300D01*
X144974Y224392D01*
X144552Y225409D01*
X143882Y226282D01*
X143009Y226952D01*
X141991Y227374D01*
X140900Y227517D01*
D02*
G37*
G36*
X130900D02*
X129808Y227374D01*
X128791Y226952D01*
X127918Y226282D01*
X127248Y225409D01*
X126827Y224392D01*
X126683Y223300D01*
X126827Y222208D01*
X127248Y221191D01*
X127918Y220318D01*
X128791Y219648D01*
X129808Y219227D01*
X130900Y219083D01*
X131992Y219227D01*
X133009Y219648D01*
X133882Y220318D01*
X134552Y221191D01*
X134974Y222208D01*
X135117Y223300D01*
X134974Y224392D01*
X134552Y225409D01*
X133882Y226282D01*
X133009Y226952D01*
X131992Y227374D01*
X130900Y227517D01*
D02*
G37*
G36*
X120900D02*
X119808Y227374D01*
X118791Y226952D01*
X117918Y226282D01*
X117248Y225409D01*
X116826Y224392D01*
X116683Y223300D01*
X116826Y222208D01*
X117248Y221191D01*
X117918Y220318D01*
X118791Y219648D01*
X119808Y219227D01*
X120900Y219083D01*
X121992Y219227D01*
X123009Y219648D01*
X123882Y220318D01*
X124552Y221191D01*
X124973Y222208D01*
X125117Y223300D01*
X124973Y224392D01*
X124552Y225409D01*
X123882Y226282D01*
X123009Y226952D01*
X121992Y227374D01*
X120900Y227517D01*
D02*
G37*
G36*
X110900D02*
X109809Y227374D01*
X108791Y226952D01*
X107918Y226282D01*
X107248Y225409D01*
X106826Y224392D01*
X106683Y223300D01*
X106826Y222208D01*
X107248Y221191D01*
X107918Y220318D01*
X108791Y219648D01*
X109809Y219227D01*
X110900Y219083D01*
X111992Y219227D01*
X113009Y219648D01*
X113882Y220318D01*
X114552Y221191D01*
X114973Y222208D01*
X115117Y223300D01*
X114973Y224392D01*
X114552Y225409D01*
X113882Y226282D01*
X113009Y226952D01*
X111992Y227374D01*
X110900Y227517D01*
D02*
G37*
G36*
X100900D02*
X99809Y227374D01*
X98791Y226952D01*
X97918Y226282D01*
X97248Y225409D01*
X96826Y224392D01*
X96683Y223300D01*
X96826Y222208D01*
X97248Y221191D01*
X97918Y220318D01*
X98791Y219648D01*
X99809Y219227D01*
X100900Y219083D01*
X101991Y219227D01*
X103009Y219648D01*
X103882Y220318D01*
X104552Y221191D01*
X104973Y222208D01*
X105117Y223300D01*
X104973Y224392D01*
X104552Y225409D01*
X103882Y226282D01*
X103009Y226952D01*
X101991Y227374D01*
X100900Y227517D01*
D02*
G37*
G36*
X91000D02*
X89908Y227374D01*
X88891Y226952D01*
X88018Y226282D01*
X87348Y225409D01*
X86927Y224392D01*
X86783Y223300D01*
X86927Y222208D01*
X87348Y221191D01*
X88018Y220318D01*
X88891Y219648D01*
X89908Y219227D01*
X91000Y219083D01*
X92092Y219227D01*
X93109Y219648D01*
X93982Y220318D01*
X94652Y221191D01*
X95073Y222208D01*
X95217Y223300D01*
X95073Y224392D01*
X94652Y225409D01*
X93982Y226282D01*
X93109Y226952D01*
X92092Y227374D01*
X91000Y227517D01*
D02*
G37*
G36*
X81000D02*
X79909Y227374D01*
X78891Y226952D01*
X78018Y226282D01*
X77348Y225409D01*
X76926Y224392D01*
X76783Y223300D01*
X76926Y222208D01*
X77348Y221191D01*
X78018Y220318D01*
X78891Y219648D01*
X79909Y219227D01*
X81000Y219083D01*
X82091Y219227D01*
X83109Y219648D01*
X83982Y220318D01*
X84652Y221191D01*
X85074Y222208D01*
X85217Y223300D01*
X85074Y224392D01*
X84652Y225409D01*
X83982Y226282D01*
X83109Y226952D01*
X82091Y227374D01*
X81000Y227517D01*
D02*
G37*
G36*
X56400Y225299D02*
X54625Y225124D01*
X52918Y224606D01*
X51345Y223765D01*
X49966Y222634D01*
X48834Y221255D01*
X47994Y219682D01*
X47476Y217975D01*
X47301Y216200D01*
X47476Y214425D01*
X47994Y212718D01*
X48834Y211145D01*
X49966Y209766D01*
X51345Y208634D01*
X52918Y207794D01*
X54625Y207276D01*
X56400Y207101D01*
X58175Y207276D01*
X59882Y207794D01*
X61455Y208634D01*
X62834Y209766D01*
X63965Y211145D01*
X64806Y212718D01*
X65324Y214425D01*
X65499Y216200D01*
X65324Y217975D01*
X64806Y219682D01*
X63965Y221255D01*
X62834Y222634D01*
X61455Y223765D01*
X59882Y224606D01*
X58175Y225124D01*
X56400Y225299D01*
D02*
G37*
G36*
X305181Y177481D02*
X296819D01*
Y169119D01*
X305181D01*
Y177481D01*
D02*
G37*
G36*
X295181D02*
X286819D01*
Y169119D01*
X295181D01*
Y177481D01*
D02*
G37*
G36*
X285181D02*
X276819D01*
Y169119D01*
X285181D01*
Y177481D01*
D02*
G37*
G36*
X281000Y137517D02*
X279908Y137373D01*
X278891Y136952D01*
X278018Y136282D01*
X277348Y135409D01*
X276926Y134391D01*
X276783Y133300D01*
X276926Y132209D01*
X277348Y131191D01*
X278018Y130318D01*
X278891Y129648D01*
X279908Y129227D01*
X281000Y129083D01*
X282091Y129227D01*
X283109Y129648D01*
X283982Y130318D01*
X284652Y131191D01*
X285073Y132209D01*
X285217Y133300D01*
X285073Y134391D01*
X284652Y135409D01*
X283982Y136282D01*
X283109Y136952D01*
X282091Y137373D01*
X281000Y137517D01*
D02*
G37*
G36*
X271000D02*
X269908Y137373D01*
X268891Y136952D01*
X268018Y136282D01*
X267348Y135409D01*
X266927Y134391D01*
X266783Y133300D01*
X266927Y132209D01*
X267348Y131191D01*
X268018Y130318D01*
X268891Y129648D01*
X269908Y129227D01*
X271000Y129083D01*
X272092Y129227D01*
X273109Y129648D01*
X273982Y130318D01*
X274652Y131191D01*
X275074Y132209D01*
X275217Y133300D01*
X275074Y134391D01*
X274652Y135409D01*
X273982Y136282D01*
X273109Y136952D01*
X272092Y137373D01*
X271000Y137517D01*
D02*
G37*
G36*
X261000D02*
X259909Y137373D01*
X258891Y136952D01*
X258018Y136282D01*
X257348Y135409D01*
X256926Y134391D01*
X256783Y133300D01*
X256926Y132209D01*
X257348Y131191D01*
X258018Y130318D01*
X258891Y129648D01*
X259909Y129227D01*
X261000Y129083D01*
X262091Y129227D01*
X263109Y129648D01*
X263982Y130318D01*
X264652Y131191D01*
X265073Y132209D01*
X265217Y133300D01*
X265073Y134391D01*
X264652Y135409D01*
X263982Y136282D01*
X263109Y136952D01*
X262091Y137373D01*
X261000Y137517D01*
D02*
G37*
G36*
X241000D02*
X239909Y137373D01*
X238891Y136952D01*
X238018Y136282D01*
X237348Y135409D01*
X236927Y134391D01*
X236783Y133300D01*
X236927Y132209D01*
X237348Y131191D01*
X238018Y130318D01*
X238891Y129648D01*
X239909Y129227D01*
X241000Y129083D01*
X242091Y129227D01*
X243109Y129648D01*
X243982Y130318D01*
X244652Y131191D01*
X245074Y132209D01*
X245217Y133300D01*
X245074Y134391D01*
X244652Y135409D01*
X243982Y136282D01*
X243109Y136952D01*
X242091Y137373D01*
X241000Y137517D01*
D02*
G37*
G36*
X231000D02*
X229908Y137373D01*
X228891Y136952D01*
X228018Y136282D01*
X227348Y135409D01*
X226926Y134391D01*
X226783Y133300D01*
X226926Y132209D01*
X227348Y131191D01*
X228018Y130318D01*
X228891Y129648D01*
X229908Y129227D01*
X231000Y129083D01*
X232091Y129227D01*
X233109Y129648D01*
X233982Y130318D01*
X234652Y131191D01*
X235073Y132209D01*
X235217Y133300D01*
X235073Y134391D01*
X234652Y135409D01*
X233982Y136282D01*
X233109Y136952D01*
X232091Y137373D01*
X231000Y137517D01*
D02*
G37*
G36*
X221000D02*
X219908Y137373D01*
X218891Y136952D01*
X218018Y136282D01*
X217348Y135409D01*
X216927Y134391D01*
X216783Y133300D01*
X216927Y132209D01*
X217348Y131191D01*
X218018Y130318D01*
X218891Y129648D01*
X219908Y129227D01*
X221000Y129083D01*
X222092Y129227D01*
X223109Y129648D01*
X223982Y130318D01*
X224652Y131191D01*
X225074Y132209D01*
X225217Y133300D01*
X225074Y134391D01*
X224652Y135409D01*
X223982Y136282D01*
X223109Y136952D01*
X222092Y137373D01*
X221000Y137517D01*
D02*
G37*
G36*
X211000D02*
X209909Y137373D01*
X208891Y136952D01*
X208018Y136282D01*
X207348Y135409D01*
X206926Y134391D01*
X206783Y133300D01*
X206926Y132209D01*
X207348Y131191D01*
X208018Y130318D01*
X208891Y129648D01*
X209909Y129227D01*
X211000Y129083D01*
X212091Y129227D01*
X213109Y129648D01*
X213982Y130318D01*
X214652Y131191D01*
X215073Y132209D01*
X215217Y133300D01*
X215073Y134391D01*
X214652Y135409D01*
X213982Y136282D01*
X213109Y136952D01*
X212091Y137373D01*
X211000Y137517D01*
D02*
G37*
G36*
X201000D02*
X199908Y137373D01*
X198891Y136952D01*
X198018Y136282D01*
X197348Y135409D01*
X196926Y134391D01*
X196783Y133300D01*
X196926Y132209D01*
X197348Y131191D01*
X198018Y130318D01*
X198891Y129648D01*
X199908Y129227D01*
X201000Y129083D01*
X202092Y129227D01*
X203109Y129648D01*
X203982Y130318D01*
X204652Y131191D01*
X205073Y132209D01*
X205217Y133300D01*
X205073Y134391D01*
X204652Y135409D01*
X203982Y136282D01*
X203109Y136952D01*
X202092Y137373D01*
X201000Y137517D01*
D02*
G37*
G36*
X191000D02*
X189909Y137373D01*
X188891Y136952D01*
X188018Y136282D01*
X187348Y135409D01*
X186926Y134391D01*
X186783Y133300D01*
X186926Y132209D01*
X187348Y131191D01*
X188018Y130318D01*
X188891Y129648D01*
X189909Y129227D01*
X191000Y129083D01*
X192092Y129227D01*
X193109Y129648D01*
X193982Y130318D01*
X194652Y131191D01*
X195073Y132209D01*
X195217Y133300D01*
X195073Y134391D01*
X194652Y135409D01*
X193982Y136282D01*
X193109Y136952D01*
X192092Y137373D01*
X191000Y137517D01*
D02*
G37*
G36*
X181000D02*
X179909Y137373D01*
X178891Y136952D01*
X178018Y136282D01*
X177348Y135409D01*
X176927Y134391D01*
X176783Y133300D01*
X176927Y132209D01*
X177348Y131191D01*
X178018Y130318D01*
X178891Y129648D01*
X179909Y129227D01*
X181000Y129083D01*
X182091Y129227D01*
X183109Y129648D01*
X183982Y130318D01*
X184652Y131191D01*
X185073Y132209D01*
X185217Y133300D01*
X185073Y134391D01*
X184652Y135409D01*
X183982Y136282D01*
X183109Y136952D01*
X182091Y137373D01*
X181000Y137517D01*
D02*
G37*
G36*
X171000D02*
X169908Y137373D01*
X168891Y136952D01*
X168018Y136282D01*
X167348Y135409D01*
X166927Y134391D01*
X166783Y133300D01*
X166927Y132209D01*
X167348Y131191D01*
X168018Y130318D01*
X168891Y129648D01*
X169908Y129227D01*
X171000Y129083D01*
X172091Y129227D01*
X173109Y129648D01*
X173982Y130318D01*
X174652Y131191D01*
X175074Y132209D01*
X175217Y133300D01*
X175074Y134391D01*
X174652Y135409D01*
X173982Y136282D01*
X173109Y136952D01*
X172091Y137373D01*
X171000Y137517D01*
D02*
G37*
G36*
X161000D02*
X159908Y137373D01*
X158891Y136952D01*
X158018Y136282D01*
X157348Y135409D01*
X156927Y134391D01*
X156783Y133300D01*
X156927Y132209D01*
X157348Y131191D01*
X158018Y130318D01*
X158891Y129648D01*
X159908Y129227D01*
X161000Y129083D01*
X162092Y129227D01*
X163109Y129648D01*
X163982Y130318D01*
X164652Y131191D01*
X165074Y132209D01*
X165217Y133300D01*
X165074Y134391D01*
X164652Y135409D01*
X163982Y136282D01*
X163109Y136952D01*
X162092Y137373D01*
X161000Y137517D01*
D02*
G37*
G36*
X151000D02*
X149908Y137373D01*
X148891Y136952D01*
X148018Y136282D01*
X147348Y135409D01*
X146926Y134391D01*
X146783Y133300D01*
X146926Y132209D01*
X147348Y131191D01*
X148018Y130318D01*
X148891Y129648D01*
X149908Y129227D01*
X151000Y129083D01*
X152092Y129227D01*
X153109Y129648D01*
X153982Y130318D01*
X154652Y131191D01*
X155073Y132209D01*
X155217Y133300D01*
X155073Y134391D01*
X154652Y135409D01*
X153982Y136282D01*
X153109Y136952D01*
X152092Y137373D01*
X151000Y137517D01*
D02*
G37*
G36*
X141000D02*
X139909Y137373D01*
X138891Y136952D01*
X138018Y136282D01*
X137348Y135409D01*
X136926Y134391D01*
X136783Y133300D01*
X136926Y132209D01*
X137348Y131191D01*
X138018Y130318D01*
X138891Y129648D01*
X139909Y129227D01*
X141000Y129083D01*
X142092Y129227D01*
X143109Y129648D01*
X143982Y130318D01*
X144652Y131191D01*
X145073Y132209D01*
X145217Y133300D01*
X145073Y134391D01*
X144652Y135409D01*
X143982Y136282D01*
X143109Y136952D01*
X142092Y137373D01*
X141000Y137517D01*
D02*
G37*
G36*
X131000D02*
X129909Y137373D01*
X128891Y136952D01*
X128018Y136282D01*
X127348Y135409D01*
X126927Y134391D01*
X126783Y133300D01*
X126927Y132209D01*
X127348Y131191D01*
X128018Y130318D01*
X128891Y129648D01*
X129909Y129227D01*
X131000Y129083D01*
X132091Y129227D01*
X133109Y129648D01*
X133982Y130318D01*
X134652Y131191D01*
X135073Y132209D01*
X135217Y133300D01*
X135073Y134391D01*
X134652Y135409D01*
X133982Y136282D01*
X133109Y136952D01*
X132091Y137373D01*
X131000Y137517D01*
D02*
G37*
G36*
X121000D02*
X119908Y137373D01*
X118891Y136952D01*
X118018Y136282D01*
X117348Y135409D01*
X116927Y134391D01*
X116783Y133300D01*
X116927Y132209D01*
X117348Y131191D01*
X118018Y130318D01*
X118891Y129648D01*
X119908Y129227D01*
X121000Y129083D01*
X122091Y129227D01*
X123109Y129648D01*
X123982Y130318D01*
X124652Y131191D01*
X125074Y132209D01*
X125217Y133300D01*
X125074Y134391D01*
X124652Y135409D01*
X123982Y136282D01*
X123109Y136952D01*
X122091Y137373D01*
X121000Y137517D01*
D02*
G37*
G36*
X111000D02*
X109908Y137373D01*
X108891Y136952D01*
X108018Y136282D01*
X107348Y135409D01*
X106927Y134391D01*
X106783Y133300D01*
X106927Y132209D01*
X107348Y131191D01*
X108018Y130318D01*
X108891Y129648D01*
X109908Y129227D01*
X111000Y129083D01*
X112092Y129227D01*
X113109Y129648D01*
X113982Y130318D01*
X114652Y131191D01*
X115074Y132209D01*
X115217Y133300D01*
X115074Y134391D01*
X114652Y135409D01*
X113982Y136282D01*
X113109Y136952D01*
X112092Y137373D01*
X111000Y137517D01*
D02*
G37*
G36*
X195181Y127481D02*
X186819D01*
Y119119D01*
X195181D01*
Y127481D01*
D02*
G37*
G36*
X185181D02*
X176819D01*
Y119119D01*
X185181D01*
Y127481D01*
D02*
G37*
G36*
X301000Y127517D02*
X299908Y127374D01*
X298891Y126952D01*
X298018Y126282D01*
X297348Y125409D01*
X296926Y124391D01*
X296783Y123300D01*
X296926Y122208D01*
X297348Y121191D01*
X298018Y120318D01*
X298891Y119648D01*
X299908Y119227D01*
X301000Y119083D01*
X302092Y119227D01*
X303109Y119648D01*
X303982Y120318D01*
X304652Y121191D01*
X305073Y122208D01*
X305217Y123300D01*
X305073Y124391D01*
X304652Y125409D01*
X303982Y126282D01*
X303109Y126952D01*
X302092Y127374D01*
X301000Y127517D01*
D02*
G37*
G36*
X291000D02*
X289909Y127374D01*
X288891Y126952D01*
X288018Y126282D01*
X287348Y125409D01*
X286927Y124391D01*
X286783Y123300D01*
X286927Y122208D01*
X287348Y121191D01*
X288018Y120318D01*
X288891Y119648D01*
X289909Y119227D01*
X291000Y119083D01*
X292091Y119227D01*
X293109Y119648D01*
X293982Y120318D01*
X294652Y121191D01*
X295074Y122208D01*
X295217Y123300D01*
X295074Y124391D01*
X294652Y125409D01*
X293982Y126282D01*
X293109Y126952D01*
X292091Y127374D01*
X291000Y127517D01*
D02*
G37*
G36*
X281000D02*
X279908Y127374D01*
X278891Y126952D01*
X278018Y126282D01*
X277348Y125409D01*
X276926Y124391D01*
X276783Y123300D01*
X276926Y122208D01*
X277348Y121191D01*
X278018Y120318D01*
X278891Y119648D01*
X279908Y119227D01*
X281000Y119083D01*
X282091Y119227D01*
X283109Y119648D01*
X283982Y120318D01*
X284652Y121191D01*
X285073Y122208D01*
X285217Y123300D01*
X285073Y124391D01*
X284652Y125409D01*
X283982Y126282D01*
X283109Y126952D01*
X282091Y127374D01*
X281000Y127517D01*
D02*
G37*
G36*
X271000D02*
X269908Y127374D01*
X268891Y126952D01*
X268018Y126282D01*
X267348Y125409D01*
X266927Y124391D01*
X266783Y123300D01*
X266927Y122208D01*
X267348Y121191D01*
X268018Y120318D01*
X268891Y119648D01*
X269908Y119227D01*
X271000Y119083D01*
X272092Y119227D01*
X273109Y119648D01*
X273982Y120318D01*
X274652Y121191D01*
X275074Y122208D01*
X275217Y123300D01*
X275074Y124391D01*
X274652Y125409D01*
X273982Y126282D01*
X273109Y126952D01*
X272092Y127374D01*
X271000Y127517D01*
D02*
G37*
G36*
X261000D02*
X259909Y127374D01*
X258891Y126952D01*
X258018Y126282D01*
X257348Y125409D01*
X256926Y124391D01*
X256783Y123300D01*
X256926Y122208D01*
X257348Y121191D01*
X258018Y120318D01*
X258891Y119648D01*
X259909Y119227D01*
X261000Y119083D01*
X262091Y119227D01*
X263109Y119648D01*
X263982Y120318D01*
X264652Y121191D01*
X265073Y122208D01*
X265217Y123300D01*
X265073Y124391D01*
X264652Y125409D01*
X263982Y126282D01*
X263109Y126952D01*
X262091Y127374D01*
X261000Y127517D01*
D02*
G37*
G36*
X251000D02*
X249908Y127374D01*
X248891Y126952D01*
X248018Y126282D01*
X247348Y125409D01*
X246926Y124391D01*
X246783Y123300D01*
X246926Y122208D01*
X247348Y121191D01*
X248018Y120318D01*
X248891Y119648D01*
X249908Y119227D01*
X251000Y119083D01*
X252092Y119227D01*
X253109Y119648D01*
X253982Y120318D01*
X254652Y121191D01*
X255073Y122208D01*
X255217Y123300D01*
X255073Y124391D01*
X254652Y125409D01*
X253982Y126282D01*
X253109Y126952D01*
X252092Y127374D01*
X251000Y127517D01*
D02*
G37*
G36*
X241000D02*
X239909Y127374D01*
X238891Y126952D01*
X238018Y126282D01*
X237348Y125409D01*
X236927Y124391D01*
X236783Y123300D01*
X236927Y122208D01*
X237348Y121191D01*
X238018Y120318D01*
X238891Y119648D01*
X239909Y119227D01*
X241000Y119083D01*
X242091Y119227D01*
X243109Y119648D01*
X243982Y120318D01*
X244652Y121191D01*
X245074Y122208D01*
X245217Y123300D01*
X245074Y124391D01*
X244652Y125409D01*
X243982Y126282D01*
X243109Y126952D01*
X242091Y127374D01*
X241000Y127517D01*
D02*
G37*
G36*
X231000D02*
X229908Y127374D01*
X228891Y126952D01*
X228018Y126282D01*
X227348Y125409D01*
X226926Y124391D01*
X226783Y123300D01*
X226926Y122208D01*
X227348Y121191D01*
X228018Y120318D01*
X228891Y119648D01*
X229908Y119227D01*
X231000Y119083D01*
X232091Y119227D01*
X233109Y119648D01*
X233982Y120318D01*
X234652Y121191D01*
X235073Y122208D01*
X235217Y123300D01*
X235073Y124391D01*
X234652Y125409D01*
X233982Y126282D01*
X233109Y126952D01*
X232091Y127374D01*
X231000Y127517D01*
D02*
G37*
G36*
X221000D02*
X219908Y127374D01*
X218891Y126952D01*
X218018Y126282D01*
X217348Y125409D01*
X216927Y124391D01*
X216783Y123300D01*
X216927Y122208D01*
X217348Y121191D01*
X218018Y120318D01*
X218891Y119648D01*
X219908Y119227D01*
X221000Y119083D01*
X222092Y119227D01*
X223109Y119648D01*
X223982Y120318D01*
X224652Y121191D01*
X225074Y122208D01*
X225217Y123300D01*
X225074Y124391D01*
X224652Y125409D01*
X223982Y126282D01*
X223109Y126952D01*
X222092Y127374D01*
X221000Y127517D01*
D02*
G37*
G36*
X211000D02*
X209909Y127374D01*
X208891Y126952D01*
X208018Y126282D01*
X207348Y125409D01*
X206926Y124391D01*
X206783Y123300D01*
X206926Y122208D01*
X207348Y121191D01*
X208018Y120318D01*
X208891Y119648D01*
X209909Y119227D01*
X211000Y119083D01*
X212091Y119227D01*
X213109Y119648D01*
X213982Y120318D01*
X214652Y121191D01*
X215073Y122208D01*
X215217Y123300D01*
X215073Y124391D01*
X214652Y125409D01*
X213982Y126282D01*
X213109Y126952D01*
X212091Y127374D01*
X211000Y127517D01*
D02*
G37*
G36*
X201000D02*
X199908Y127374D01*
X198891Y126952D01*
X198018Y126282D01*
X197348Y125409D01*
X196926Y124391D01*
X196783Y123300D01*
X196926Y122208D01*
X197348Y121191D01*
X198018Y120318D01*
X198891Y119648D01*
X199908Y119227D01*
X201000Y119083D01*
X202092Y119227D01*
X203109Y119648D01*
X203982Y120318D01*
X204652Y121191D01*
X205073Y122208D01*
X205217Y123300D01*
X205073Y124391D01*
X204652Y125409D01*
X203982Y126282D01*
X203109Y126952D01*
X202092Y127374D01*
X201000Y127517D01*
D02*
G37*
G36*
X171000D02*
X169908Y127374D01*
X168891Y126952D01*
X168018Y126282D01*
X167348Y125409D01*
X166927Y124391D01*
X166783Y123300D01*
X166927Y122208D01*
X167348Y121191D01*
X168018Y120318D01*
X168891Y119648D01*
X169908Y119227D01*
X171000Y119083D01*
X172091Y119227D01*
X173109Y119648D01*
X173982Y120318D01*
X174652Y121191D01*
X175074Y122208D01*
X175217Y123300D01*
X175074Y124391D01*
X174652Y125409D01*
X173982Y126282D01*
X173109Y126952D01*
X172091Y127374D01*
X171000Y127517D01*
D02*
G37*
G36*
X161000D02*
X159908Y127374D01*
X158891Y126952D01*
X158018Y126282D01*
X157348Y125409D01*
X156927Y124391D01*
X156783Y123300D01*
X156927Y122208D01*
X157348Y121191D01*
X158018Y120318D01*
X158891Y119648D01*
X159908Y119227D01*
X161000Y119083D01*
X162092Y119227D01*
X163109Y119648D01*
X163982Y120318D01*
X164652Y121191D01*
X165074Y122208D01*
X165217Y123300D01*
X165074Y124391D01*
X164652Y125409D01*
X163982Y126282D01*
X163109Y126952D01*
X162092Y127374D01*
X161000Y127517D01*
D02*
G37*
G36*
X151000D02*
X149908Y127374D01*
X148891Y126952D01*
X148018Y126282D01*
X147348Y125409D01*
X146926Y124391D01*
X146783Y123300D01*
X146926Y122208D01*
X147348Y121191D01*
X148018Y120318D01*
X148891Y119648D01*
X149908Y119227D01*
X151000Y119083D01*
X152092Y119227D01*
X153109Y119648D01*
X153982Y120318D01*
X154652Y121191D01*
X155073Y122208D01*
X155217Y123300D01*
X155073Y124391D01*
X154652Y125409D01*
X153982Y126282D01*
X153109Y126952D01*
X152092Y127374D01*
X151000Y127517D01*
D02*
G37*
G36*
X141000D02*
X139909Y127374D01*
X138891Y126952D01*
X138018Y126282D01*
X137348Y125409D01*
X136926Y124391D01*
X136783Y123300D01*
X136926Y122208D01*
X137348Y121191D01*
X138018Y120318D01*
X138891Y119648D01*
X139909Y119227D01*
X141000Y119083D01*
X142092Y119227D01*
X143109Y119648D01*
X143982Y120318D01*
X144652Y121191D01*
X145073Y122208D01*
X145217Y123300D01*
X145073Y124391D01*
X144652Y125409D01*
X143982Y126282D01*
X143109Y126952D01*
X142092Y127374D01*
X141000Y127517D01*
D02*
G37*
G36*
X131000D02*
X129909Y127374D01*
X128891Y126952D01*
X128018Y126282D01*
X127348Y125409D01*
X126927Y124391D01*
X126783Y123300D01*
X126927Y122208D01*
X127348Y121191D01*
X128018Y120318D01*
X128891Y119648D01*
X129909Y119227D01*
X131000Y119083D01*
X132091Y119227D01*
X133109Y119648D01*
X133982Y120318D01*
X134652Y121191D01*
X135073Y122208D01*
X135217Y123300D01*
X135073Y124391D01*
X134652Y125409D01*
X133982Y126282D01*
X133109Y126952D01*
X132091Y127374D01*
X131000Y127517D01*
D02*
G37*
G36*
X121000D02*
X119908Y127374D01*
X118891Y126952D01*
X118018Y126282D01*
X117348Y125409D01*
X116927Y124391D01*
X116783Y123300D01*
X116927Y122208D01*
X117348Y121191D01*
X118018Y120318D01*
X118891Y119648D01*
X119908Y119227D01*
X121000Y119083D01*
X122091Y119227D01*
X123109Y119648D01*
X123982Y120318D01*
X124652Y121191D01*
X125074Y122208D01*
X125217Y123300D01*
X125074Y124391D01*
X124652Y125409D01*
X123982Y126282D01*
X123109Y126952D01*
X122091Y127374D01*
X121000Y127517D01*
D02*
G37*
G36*
X111000D02*
X109908Y127374D01*
X108891Y126952D01*
X108018Y126282D01*
X107348Y125409D01*
X106927Y124391D01*
X106783Y123300D01*
X106927Y122208D01*
X107348Y121191D01*
X108018Y120318D01*
X108891Y119648D01*
X109908Y119227D01*
X111000Y119083D01*
X112092Y119227D01*
X113109Y119648D01*
X113982Y120318D01*
X114652Y121191D01*
X115074Y122208D01*
X115217Y123300D01*
X115074Y124391D01*
X114652Y125409D01*
X113982Y126282D01*
X113109Y126952D01*
X112092Y127374D01*
X111000Y127517D01*
D02*
G37*
G36*
X101000D02*
X99909Y127374D01*
X98891Y126952D01*
X98018Y126282D01*
X97348Y125409D01*
X96926Y124391D01*
X96783Y123300D01*
X96926Y122208D01*
X97348Y121191D01*
X98018Y120318D01*
X98891Y119648D01*
X99909Y119227D01*
X101000Y119083D01*
X102092Y119227D01*
X103109Y119648D01*
X103982Y120318D01*
X104652Y121191D01*
X105073Y122208D01*
X105217Y123300D01*
X105073Y124391D01*
X104652Y125409D01*
X103982Y126282D01*
X103109Y126952D01*
X102092Y127374D01*
X101000Y127517D01*
D02*
G37*
G36*
X75400Y160980D02*
X74681Y160885D01*
X74010Y160607D01*
X73435Y160166D01*
X72993Y159590D01*
X72715Y158919D01*
X72620Y158200D01*
X72715Y157481D01*
X72993Y156810D01*
X73435Y156235D01*
X73686Y156042D01*
Y105300D01*
X73816Y104644D01*
X74188Y104088D01*
X75862Y102414D01*
X75820Y102100D01*
X75915Y101381D01*
X76193Y100710D01*
X76635Y100135D01*
X77210Y99693D01*
X77881Y99415D01*
X78600Y99320D01*
X79319Y99415D01*
X79990Y99693D01*
X80566Y100135D01*
X81007Y100710D01*
X81285Y101381D01*
X81380Y102100D01*
X81285Y102819D01*
X81007Y103490D01*
X80566Y104066D01*
X79990Y104507D01*
X79319Y104785D01*
X78600Y104880D01*
X78286Y104838D01*
X77114Y106010D01*
Y156042D01*
X77365Y156235D01*
X77807Y156810D01*
X78085Y157481D01*
X78180Y158200D01*
X78085Y158919D01*
X77807Y159590D01*
X77365Y160166D01*
X76790Y160607D01*
X76119Y160885D01*
X75400Y160980D01*
D02*
G37*
G36*
X108100Y104080D02*
X107381Y103985D01*
X106710Y103707D01*
X106134Y103266D01*
X105693Y102690D01*
X105415Y102019D01*
X105320Y101300D01*
X105347Y101101D01*
X102552Y98306D01*
X60948D01*
X59453Y99801D01*
X59480Y100000D01*
X59385Y100719D01*
X59107Y101390D01*
X58666Y101965D01*
X58090Y102407D01*
X57419Y102685D01*
X56700Y102780D01*
X55981Y102685D01*
X55310Y102407D01*
X54734Y101965D01*
X54293Y101390D01*
X54015Y100719D01*
X53920Y100000D01*
X54015Y99281D01*
X54293Y98610D01*
X54734Y98035D01*
X55310Y97593D01*
X55981Y97315D01*
X56700Y97220D01*
X56899Y97246D01*
X58923Y95223D01*
X59509Y94831D01*
X60200Y94694D01*
X103300D01*
X103991Y94831D01*
X104577Y95223D01*
X107901Y98546D01*
X108100Y98520D01*
X108819Y98615D01*
X109490Y98893D01*
X110065Y99335D01*
X110507Y99910D01*
X110785Y100581D01*
X110880Y101300D01*
X110785Y102019D01*
X110507Y102690D01*
X110065Y103266D01*
X109490Y103707D01*
X108819Y103985D01*
X108100Y104080D01*
D02*
G37*
G36*
X240000Y77580D02*
X239281Y77485D01*
X238610Y77207D01*
X238035Y76766D01*
X237593Y76190D01*
X237315Y75519D01*
X237220Y74800D01*
X237315Y74081D01*
X237593Y73410D01*
X238035Y72834D01*
X238610Y72393D01*
X239281Y72115D01*
X240000Y72020D01*
X240719Y72115D01*
X241390Y72393D01*
X241966Y72834D01*
X242307Y72857D01*
X261584Y53580D01*
X261584Y53580D01*
X262074Y53253D01*
X262170Y53233D01*
X262652Y53137D01*
X262652Y53138D01*
X265691D01*
X266040Y52682D01*
X266616Y52240D01*
X267286Y51963D01*
X268006Y51868D01*
X268725Y51963D01*
X269396Y52240D01*
X269971Y52682D01*
X270413Y53258D01*
X270691Y53928D01*
X270786Y54648D01*
X270691Y55367D01*
X270413Y56037D01*
X269971Y56613D01*
X269396Y57055D01*
X268725Y57333D01*
X268006Y57427D01*
X267286Y57333D01*
X266616Y57055D01*
X266040Y56613D01*
X265691Y56158D01*
X263278D01*
X243468Y75968D01*
X242978Y76295D01*
X242400Y76410D01*
X242400Y76410D01*
X242238D01*
X241966Y76766D01*
X241390Y77207D01*
X240719Y77485D01*
X240000Y77580D01*
D02*
G37*
G36*
X291900Y69580D02*
X291181Y69485D01*
X290510Y69207D01*
X289934Y68765D01*
X289493Y68190D01*
X289215Y67519D01*
X289120Y66800D01*
X289215Y66081D01*
X289493Y65410D01*
X289934Y64834D01*
X290510Y64393D01*
X291181Y64115D01*
X291273Y64103D01*
X291288Y64088D01*
X291554Y63910D01*
X291505Y63412D01*
X291010Y63207D01*
X290435Y62766D01*
X289993Y62190D01*
X289715Y61519D01*
X289620Y60800D01*
X289715Y60081D01*
X289993Y59410D01*
X290435Y58834D01*
X290594Y58712D01*
Y53741D01*
X290234Y53465D01*
X289793Y52890D01*
X289515Y52219D01*
X289420Y51500D01*
X289515Y50781D01*
X289793Y50110D01*
X290234Y49534D01*
X290810Y49093D01*
X291481Y48815D01*
X292200Y48720D01*
X292919Y48815D01*
X293590Y49093D01*
X294165Y49534D01*
X294607Y50110D01*
X294885Y50781D01*
X294980Y51500D01*
X294885Y52219D01*
X294607Y52890D01*
X294206Y53412D01*
Y58712D01*
X294366Y58834D01*
X294807Y59410D01*
X295085Y60081D01*
X295180Y60800D01*
X295085Y61519D01*
X294807Y62190D01*
X294366Y62766D01*
X293790Y63207D01*
X293119Y63485D01*
X292517Y63564D01*
X292500Y63586D01*
Y63586D01*
X298690D01*
X309444Y52832D01*
X309444Y52832D01*
X309444D01*
X309444Y52832D01*
X309444D01*
X309444Y52832D01*
Y52832D01*
Y52832D01*
D01*
D01*
X309444D01*
Y52832D01*
X310000Y52460D01*
X310656Y52330D01*
X326446D01*
X331262Y47514D01*
X331220Y47200D01*
X331315Y46481D01*
X331593Y45810D01*
X332034Y45235D01*
X332610Y44793D01*
X333281Y44515D01*
X334000Y44420D01*
X334719Y44515D01*
X335390Y44793D01*
X335965Y45235D01*
X336407Y45810D01*
X336685Y46481D01*
X336780Y47200D01*
X336685Y47919D01*
X336407Y48590D01*
X335965Y49165D01*
X335390Y49607D01*
X334719Y49885D01*
X334000Y49980D01*
X333686Y49938D01*
X328368Y55256D01*
X327812Y55628D01*
X327156Y55758D01*
X311366D01*
X300612Y66512D01*
X300056Y66884D01*
X299400Y67014D01*
X294652D01*
X294585Y67519D01*
X294307Y68190D01*
X293865Y68765D01*
X293290Y69207D01*
X292619Y69485D01*
X291900Y69580D01*
D02*
G37*
G36*
X251629Y50709D02*
X250910Y50614D01*
X250240Y50337D01*
X249664Y49895D01*
X249222Y49319D01*
X248944Y48649D01*
X248850Y47929D01*
X248944Y47210D01*
X249222Y46540D01*
X249664Y45964D01*
X250240Y45522D01*
X250910Y45245D01*
X251629Y45150D01*
X252349Y45245D01*
X253019Y45522D01*
X253595Y45964D01*
X253996Y46486D01*
X269590D01*
X280962Y35114D01*
X280920Y34800D01*
X281015Y34081D01*
X281293Y33410D01*
X281734Y32835D01*
X282310Y32393D01*
X282981Y32115D01*
X283700Y32020D01*
X284419Y32115D01*
X285090Y32393D01*
X285665Y32835D01*
X286107Y33410D01*
X286385Y34081D01*
X286480Y34800D01*
X286385Y35519D01*
X286107Y36190D01*
X285665Y36766D01*
X285090Y37207D01*
X284419Y37485D01*
X283700Y37580D01*
X283386Y37538D01*
X271512Y49412D01*
X270956Y49784D01*
X270300Y49914D01*
X253570D01*
X253019Y50337D01*
X252349Y50614D01*
X251629Y50709D01*
D02*
G37*
G36*
X335300Y63780D02*
X334581Y63685D01*
X333910Y63407D01*
X333334Y62966D01*
X332893Y62390D01*
X332615Y61719D01*
X332520Y61000D01*
X332615Y60281D01*
X332893Y59610D01*
X333334Y59035D01*
X333910Y58593D01*
X334581Y58315D01*
X335300Y58220D01*
X335692Y58272D01*
X338290Y55674D01*
Y39926D01*
X329874Y31510D01*
X320000D01*
X320000Y31510D01*
X319518Y31414D01*
X319422Y31395D01*
X318932Y31068D01*
X318932Y31068D01*
X295374Y7510D01*
X281315D01*
X280965Y7965D01*
X280390Y8407D01*
X279719Y8685D01*
X279000Y8780D01*
X278281Y8685D01*
X277610Y8407D01*
X277034Y7965D01*
X276593Y7390D01*
X276315Y6719D01*
X276220Y6000D01*
X276255Y5739D01*
X275806Y5518D01*
X272512Y8812D01*
X271956Y9184D01*
X271300Y9314D01*
X250910D01*
X206312Y53912D01*
X205756Y54284D01*
X205100Y54414D01*
X197558D01*
X197365Y54665D01*
X196790Y55107D01*
X196119Y55385D01*
X195400Y55480D01*
X194681Y55385D01*
X194010Y55107D01*
X193435Y54665D01*
X192993Y54090D01*
X192715Y53419D01*
X192620Y52700D01*
X192715Y51981D01*
X192993Y51310D01*
X193435Y50735D01*
X194010Y50293D01*
X194681Y50015D01*
X195400Y49920D01*
X196119Y50015D01*
X196790Y50293D01*
X197365Y50735D01*
X197558Y50986D01*
X204390D01*
X248988Y6388D01*
X248988D01*
X248988Y6388D01*
X248988Y6388D01*
Y6388D01*
X249544Y6016D01*
X250200Y5886D01*
X270590D01*
X331786Y-55310D01*
Y-65518D01*
X331144Y-65785D01*
X330375Y-66375D01*
X329785Y-67144D01*
X329414Y-68039D01*
X329287Y-69000D01*
X329414Y-69961D01*
X329785Y-70856D01*
X330375Y-71625D01*
X331144Y-72215D01*
X332039Y-72586D01*
X333000Y-72713D01*
X334000D01*
X334961Y-72586D01*
X335856Y-72215D01*
X336625Y-71625D01*
X337215Y-70856D01*
X337586Y-69961D01*
X337713Y-69000D01*
X337586Y-68039D01*
X337215Y-67144D01*
X336625Y-66375D01*
X335856Y-65785D01*
X335214Y-65518D01*
Y-54600D01*
X335105Y-54053D01*
X335084Y-53944D01*
X334712Y-53388D01*
X278518Y2806D01*
X278739Y3255D01*
X279000Y3220D01*
X279719Y3315D01*
X280390Y3593D01*
X280965Y4034D01*
X281315Y4490D01*
X296000D01*
X296000Y4490D01*
X296578Y4605D01*
X297068Y4932D01*
X320625Y28490D01*
X330500D01*
X330500Y28490D01*
X331078Y28605D01*
X331568Y28932D01*
X340868Y38232D01*
X340868Y38232D01*
X341195Y38722D01*
X341214Y38818D01*
X341310Y39300D01*
X341310Y39300D01*
Y56300D01*
X341195Y56878D01*
X340868Y57368D01*
X340868Y57368D01*
X337976Y60259D01*
X337985Y60281D01*
X338080Y61000D01*
X337985Y61719D01*
X337707Y62390D01*
X337265Y62966D01*
X336690Y63407D01*
X336019Y63685D01*
X335300Y63780D01*
D02*
G37*
G36*
X77504Y28591D02*
X76412Y28447D01*
X75395Y28026D01*
X74522Y27356D01*
X73852Y26483D01*
X73431Y25466D01*
X73287Y24374D01*
X73431Y23282D01*
X73852Y22265D01*
X74522Y21392D01*
X75395Y20722D01*
X76412Y20301D01*
X77504Y20157D01*
X78595Y20301D01*
X79612Y20722D01*
X80486Y21392D01*
X81156Y22265D01*
X81577Y23282D01*
X81721Y24374D01*
X81577Y25466D01*
X81156Y26483D01*
X80486Y27356D01*
X79612Y28026D01*
X78595Y28447D01*
X77504Y28591D01*
D02*
G37*
G36*
X245000Y82480D02*
X244281Y82385D01*
X243610Y82107D01*
X243035Y81665D01*
X242593Y81090D01*
X242315Y80419D01*
X242220Y79700D01*
X242315Y78981D01*
X242593Y78310D01*
X243035Y77735D01*
X243610Y77293D01*
X244281Y77015D01*
X245000Y76920D01*
X245199Y76947D01*
X261823Y60323D01*
X261823Y60323D01*
X261823D01*
X261823Y60323D01*
X261823D01*
X261823Y60323D01*
Y60323D01*
Y60323D01*
D01*
D01*
X261823D01*
Y60323D01*
X262409Y59931D01*
X263100Y59794D01*
X270552D01*
X272094Y58252D01*
Y53300D01*
X272094Y53300D01*
X272094D01*
X272231Y52609D01*
X272623Y52023D01*
X289094Y35552D01*
Y19288D01*
X288934Y19165D01*
X288493Y18590D01*
X288215Y17919D01*
X288120Y17200D01*
X288215Y16481D01*
X288493Y15810D01*
X288934Y15235D01*
X289510Y14793D01*
X290181Y14515D01*
X290900Y14420D01*
X291619Y14515D01*
X292290Y14793D01*
X292865Y15235D01*
X293307Y15810D01*
X293585Y16481D01*
X293680Y17200D01*
X293585Y17919D01*
X293307Y18590D01*
X292865Y19165D01*
X292706Y19288D01*
Y36300D01*
X292569Y36991D01*
X292177Y37577D01*
X275706Y54048D01*
Y59000D01*
X275569Y59691D01*
X275177Y60277D01*
X272577Y62877D01*
X271991Y63269D01*
X271300Y63406D01*
X263848D01*
X247754Y79501D01*
X247780Y79700D01*
X247685Y80419D01*
X247407Y81090D01*
X246966Y81665D01*
X246390Y82107D01*
X245719Y82385D01*
X245000Y82480D01*
D02*
G37*
G36*
X138200Y56580D02*
X137481Y56485D01*
X136810Y56207D01*
X136234Y55765D01*
X135793Y55190D01*
X135515Y54519D01*
X135420Y53800D01*
X135515Y53081D01*
X135793Y52410D01*
X136234Y51834D01*
X136810Y51393D01*
X137481Y51115D01*
X138200Y51020D01*
X138514Y51062D01*
X167588Y21988D01*
X168144Y21616D01*
X168800Y21486D01*
X173828D01*
X174210Y21193D01*
X174881Y20915D01*
X175600Y20820D01*
X175914Y20862D01*
X193727Y3049D01*
X193815Y2381D01*
X194093Y1710D01*
X194535Y1135D01*
X195110Y693D01*
X195781Y415D01*
X196500Y320D01*
X197219Y415D01*
X197890Y693D01*
X198466Y1135D01*
X198907Y1710D01*
X199185Y2381D01*
X199280Y3100D01*
X199185Y3819D01*
X198907Y4490D01*
X198466Y5065D01*
X197890Y5507D01*
X197219Y5785D01*
X196500Y5880D01*
X195832Y5792D01*
X178338Y23286D01*
X178380Y23600D01*
X178285Y24319D01*
X178007Y24990D01*
X177566Y25565D01*
X176990Y26007D01*
X176319Y26285D01*
X175600Y26380D01*
X174881Y26285D01*
X174210Y26007D01*
X173635Y25565D01*
X173193Y24990D01*
X173161Y24914D01*
X169510D01*
X140938Y53486D01*
X140980Y53800D01*
X140885Y54519D01*
X140607Y55190D01*
X140165Y55765D01*
X139590Y56207D01*
X138919Y56485D01*
X138200Y56580D01*
D02*
G37*
G36*
X20400Y46680D02*
X19681Y46585D01*
X19010Y46307D01*
X18435Y45865D01*
X17993Y45290D01*
X17715Y44619D01*
X17620Y43900D01*
X17715Y43181D01*
X17993Y42510D01*
X18192Y42250D01*
Y42100D01*
X18360Y41255D01*
X18839Y40539D01*
X18839Y40539D01*
X18839Y40539D01*
X26439Y32939D01*
X26439Y32939D01*
X26439D01*
X26439Y32939D01*
X26439D01*
X26439Y32939D01*
Y32939D01*
Y32939D01*
D01*
D01*
X26439D01*
Y32939D01*
X27155Y32460D01*
X28000Y32292D01*
X129786D01*
X183472Y-21395D01*
X183515Y-21719D01*
X183793Y-22390D01*
X184234Y-22965D01*
X184810Y-23407D01*
X185481Y-23685D01*
X186200Y-23780D01*
X186919Y-23685D01*
X187590Y-23407D01*
X188165Y-22965D01*
X188607Y-22390D01*
X188885Y-21719D01*
X188980Y-21000D01*
X188885Y-20281D01*
X188607Y-19610D01*
X188165Y-19035D01*
X187590Y-18593D01*
X186919Y-18315D01*
X186594Y-18272D01*
X132261Y36061D01*
X131545Y36540D01*
X130700Y36708D01*
X28914D01*
X22896Y42726D01*
X23085Y43181D01*
X23180Y43900D01*
X23085Y44619D01*
X22807Y45290D01*
X22366Y45865D01*
X21790Y46307D01*
X21119Y46585D01*
X20400Y46680D01*
D02*
G37*
G36*
X47100Y45980D02*
X46381Y45885D01*
X45710Y45607D01*
X45134Y45166D01*
X44693Y44590D01*
X44415Y43919D01*
X44320Y43200D01*
X44415Y42481D01*
X44693Y41810D01*
X45134Y41234D01*
X45710Y40793D01*
X46381Y40515D01*
X47100Y40420D01*
X47414Y40462D01*
X48688Y39188D01*
X49244Y38816D01*
X49900Y38686D01*
X134746D01*
X184644Y-11212D01*
X185200Y-11584D01*
X185309Y-11605D01*
X185856Y-11714D01*
X226090D01*
X237288Y-22912D01*
X237288D01*
X237288Y-22912D01*
X237288Y-22912D01*
Y-22912D01*
X237844Y-23284D01*
X238500Y-23414D01*
X257342D01*
X257535Y-23665D01*
X258110Y-24107D01*
X258781Y-24385D01*
X259500Y-24480D01*
X260219Y-24385D01*
X260890Y-24107D01*
X261466Y-23665D01*
X261907Y-23090D01*
X262185Y-22419D01*
X262280Y-21700D01*
X262185Y-20981D01*
X261907Y-20310D01*
X261466Y-19735D01*
X260890Y-19293D01*
X260219Y-19015D01*
X259500Y-18920D01*
X258781Y-19015D01*
X258110Y-19293D01*
X257535Y-19735D01*
X257342Y-19986D01*
X239210D01*
X228012Y-8788D01*
X227456Y-8416D01*
X226800Y-8286D01*
X186566D01*
X136668Y41612D01*
X136112Y41984D01*
X135456Y42114D01*
X50610D01*
X49838Y42886D01*
X49880Y43200D01*
X49785Y43919D01*
X49507Y44590D01*
X49066Y45166D01*
X48490Y45607D01*
X47819Y45885D01*
X47100Y45980D01*
D02*
G37*
G36*
X162300Y56680D02*
X161581Y56585D01*
X160910Y56307D01*
X160335Y55866D01*
X159893Y55290D01*
X159615Y54619D01*
X159520Y53900D01*
X159615Y53181D01*
X159893Y52510D01*
X160335Y51934D01*
X160910Y51493D01*
X161581Y51215D01*
X162300Y51120D01*
X162614Y51162D01*
X172488Y41288D01*
X173044Y40916D01*
X173153Y40895D01*
X173700Y40786D01*
X204490D01*
X246388Y-1112D01*
X246944Y-1484D01*
X247600Y-1614D01*
X267790D01*
X293286Y-27110D01*
Y-65518D01*
X292644Y-65785D01*
X291875Y-66375D01*
X291285Y-67144D01*
X290914Y-68039D01*
X290787Y-69000D01*
X290914Y-69961D01*
X291285Y-70856D01*
X291875Y-71625D01*
X292644Y-72215D01*
X293539Y-72586D01*
X294500Y-72713D01*
X295500D01*
X296461Y-72586D01*
X297356Y-72215D01*
X298125Y-71625D01*
X298715Y-70856D01*
X299086Y-69961D01*
X299213Y-69000D01*
X299086Y-68039D01*
X298715Y-67144D01*
X298125Y-66375D01*
X297356Y-65785D01*
X296714Y-65518D01*
Y-26400D01*
X296584Y-25744D01*
X296212Y-25188D01*
X269712Y1312D01*
X269156Y1684D01*
X268500Y1814D01*
X248310D01*
X206412Y43712D01*
X205856Y44084D01*
X205200Y44214D01*
X174410D01*
X165038Y53586D01*
X165080Y53900D01*
X164985Y54619D01*
X164707Y55290D01*
X164266Y55866D01*
X163690Y56307D01*
X163019Y56585D01*
X162300Y56680D01*
D02*
G37*
G36*
X334000Y-83787D02*
X333000D01*
X332039Y-83914D01*
X331144Y-84285D01*
X330375Y-84875D01*
X329785Y-85644D01*
X329414Y-86539D01*
X329287Y-87500D01*
X329414Y-88461D01*
X329785Y-89356D01*
X330375Y-90125D01*
X331144Y-90715D01*
X332039Y-91086D01*
X333000Y-91213D01*
X334000D01*
X334961Y-91086D01*
X335856Y-90715D01*
X336625Y-90125D01*
X337215Y-89356D01*
X337586Y-88461D01*
X337713Y-87500D01*
X337586Y-86539D01*
X337215Y-85644D01*
X336625Y-84875D01*
X335856Y-84285D01*
X334961Y-83914D01*
X334000Y-83787D01*
D02*
G37*
G36*
X295500D02*
X294500D01*
X293539Y-83914D01*
X292644Y-84285D01*
X291875Y-84875D01*
X291285Y-85644D01*
X290914Y-86539D01*
X290787Y-87500D01*
X290914Y-88461D01*
X291285Y-89356D01*
X291875Y-90125D01*
X292644Y-90715D01*
X293539Y-91086D01*
X294500Y-91213D01*
X295500D01*
X296461Y-91086D01*
X297356Y-90715D01*
X298125Y-90125D01*
X298715Y-89356D01*
X299086Y-88461D01*
X299213Y-87500D01*
X299086Y-86539D01*
X298715Y-85644D01*
X298125Y-84875D01*
X297356Y-84285D01*
X296461Y-83914D01*
X295500Y-83787D01*
D02*
G37*
%LPD*%
D10*
X75400Y105300D02*
Y158200D01*
Y105300D02*
X78600Y102100D01*
X327156Y54044D02*
X334000Y47200D01*
X162300Y53900D02*
X173700Y42500D01*
X205200D01*
X195400Y52700D02*
X205100D01*
X295000Y-69000D02*
Y-26400D01*
X268500Y100D02*
X295000Y-26400D01*
X291900Y65900D02*
Y66800D01*
Y65900D02*
X292500Y65300D01*
X299400D01*
X310656Y54044D02*
X327156D01*
X299400Y65300D02*
X310656Y54044D01*
X247600Y100D02*
X268500D01*
X205200Y42500D02*
X247600Y100D01*
X333500Y-69000D02*
Y-54600D01*
X138200Y53800D02*
X168800Y23200D01*
X175200D01*
X47100Y43200D02*
X49900Y40400D01*
X135456D01*
X185856Y-10000D01*
X226800D01*
X238500Y-21700D01*
X259500D01*
X175600Y23600D02*
X196200Y3000D01*
X283700Y34800D02*
Y34900D01*
X270300Y48200D02*
X283700Y34800D01*
X251629Y47929D02*
X251900Y48200D01*
X270300D01*
X178400Y201900D02*
X229500D01*
X250900Y223300D01*
X205100Y52700D02*
X250200Y7600D01*
X271300D01*
X333500Y-54600D01*
D47*
X96600Y-9595D02*
X124594D01*
X186000Y-71000D02*
X222900D01*
X124594Y-9595D02*
X186000Y-71000D01*
D48*
X245000Y79700D02*
X263100Y61600D01*
X271300D01*
X273900Y59000D01*
Y53300D02*
Y59000D01*
X290900Y17200D02*
Y36300D01*
X273900Y53300D02*
X290900Y36300D01*
X292400Y51700D02*
Y60800D01*
X292200Y51500D02*
X292400Y51700D01*
X56700Y100000D02*
X60200Y96500D01*
X103300D01*
X108100Y101300D01*
D49*
X28000Y34500D02*
X130700D01*
X20400Y42100D02*
X28000Y34500D01*
X20400Y42100D02*
Y43900D01*
X130700Y34500D02*
X186200Y-21000D01*
D50*
X107600Y101300D02*
X108100D01*
X262652Y54648D02*
X268006D01*
X242400Y74900D02*
X262652Y54648D01*
X240000Y74800D02*
X240100Y74900D01*
X242400D01*
X320000Y30000D02*
X330500D01*
X339800Y39300D01*
Y56300D01*
X335100Y61000D02*
X339800Y56300D01*
X335100Y61000D02*
X335300D01*
X99200Y68600D02*
X206000D01*
X89800Y59200D02*
X99200Y68600D01*
X89800Y46900D02*
Y59200D01*
X279000Y6000D02*
X296000D01*
X320000Y30000D01*
D51*
X147311Y-85969D02*
D03*
X127626D02*
D03*
D52*
X95500Y-86500D02*
D03*
X75815D02*
D03*
X56130Y-86500D02*
D03*
D53*
X68100Y-47700D02*
D03*
X99100Y-47794D02*
D03*
X66500Y-10905D02*
D03*
X97500Y-11000D02*
D03*
D54*
X77504Y12563D02*
D03*
Y24374D02*
D03*
X271000Y123300D02*
D03*
X101000D02*
D03*
X111000D02*
D03*
X121000D02*
D03*
X131000D02*
D03*
X141000D02*
D03*
X151000D02*
D03*
X161000D02*
D03*
X171000D02*
D03*
X201000D02*
D03*
X211000D02*
D03*
X221000D02*
D03*
X231000D02*
D03*
X241000D02*
D03*
X251000D02*
D03*
X261000D02*
D03*
X281000D02*
D03*
X291000D02*
D03*
X301000D02*
D03*
X101000Y133300D02*
D03*
X111000D02*
D03*
X121000D02*
D03*
X131000D02*
D03*
X141000D02*
D03*
X151000D02*
D03*
X161000D02*
D03*
X171000D02*
D03*
X181000D02*
D03*
X191000D02*
D03*
X201000D02*
D03*
X211000D02*
D03*
X221000D02*
D03*
X231000D02*
D03*
X241000D02*
D03*
X251000D02*
D03*
X261000D02*
D03*
X271000D02*
D03*
X281000D02*
D03*
X291000D02*
D03*
X81000Y223300D02*
D03*
X100900D02*
D03*
X110900D02*
D03*
X120900D02*
D03*
X130900D02*
D03*
X140900D02*
D03*
X150900D02*
D03*
X160900D02*
D03*
X170900D02*
D03*
X200900D02*
D03*
X210900D02*
D03*
X220900D02*
D03*
X230900D02*
D03*
X240900D02*
D03*
X250900D02*
D03*
X260900D02*
D03*
X270900D02*
D03*
X280900D02*
D03*
X290900D02*
D03*
X300900D02*
D03*
X91000D02*
D03*
D55*
X37500Y-36500D02*
D03*
Y4000D02*
D03*
D56*
X333500Y-78000D02*
D03*
Y-87500D02*
D03*
Y-69000D02*
D03*
X295000Y-78000D02*
D03*
Y-87500D02*
D03*
Y-69000D02*
D03*
D57*
X181000Y123300D02*
D03*
X191000D02*
D03*
X190900Y223300D02*
D03*
X180900D02*
D03*
X281000Y183300D02*
D03*
X291000D02*
D03*
X301000D02*
D03*
X281000Y173300D02*
D03*
X291000D02*
D03*
X301000D02*
D03*
D58*
X56400Y216200D02*
D03*
X11300Y233500D02*
D03*
X348100Y230000D02*
D03*
X3900Y-95100D02*
D03*
X352000D02*
D03*
D59*
X34400Y25100D02*
D03*
X75400Y158200D02*
D03*
X78600Y102100D02*
D03*
X108100Y101300D02*
D03*
X186200Y-21000D02*
D03*
X20400Y43900D02*
D03*
X8700Y45600D02*
D03*
X72913Y46187D02*
D03*
X291900Y66800D02*
D03*
X334000Y47200D02*
D03*
X10300Y97500D02*
D03*
X35700Y46400D02*
D03*
X36200Y97900D02*
D03*
X100100Y46100D02*
D03*
X47100Y43200D02*
D03*
X162300Y53900D02*
D03*
X126600Y46700D02*
D03*
X195400Y52700D02*
D03*
X323300Y68500D02*
D03*
X138200Y53800D02*
D03*
X175600Y23600D02*
D03*
X196500Y3100D02*
D03*
X283700Y34800D02*
D03*
X281800Y25400D02*
D03*
X268006Y54648D02*
D03*
X230300Y51400D02*
D03*
X245000Y79700D02*
D03*
X290900Y17200D02*
D03*
X240000Y74800D02*
D03*
X93100Y108900D02*
D03*
X200964Y101236D02*
D03*
X292400Y60800D02*
D03*
X292200Y51500D02*
D03*
X308600Y29600D02*
D03*
X335300Y61000D02*
D03*
X206000Y68600D02*
D03*
X89800Y46900D02*
D03*
X251629Y47929D02*
D03*
X257200Y42500D02*
D03*
X170400Y101400D02*
D03*
X178400Y201900D02*
D03*
X56700Y100000D02*
D03*
X56253Y130400D02*
D03*
X279000Y6000D02*
D03*
X259500Y-21700D02*
D03*
X312300Y-50700D02*
D03*
X274600Y-50000D02*
D03*
X223400Y-70500D02*
D03*
D60*
X201978Y-70022D02*
D03*
X223878Y-70800D02*
D03*
M02*
