M48
;Layer_Color=9474304
;FILE_FORMAT=2:5
INCH,LZ
;TYPE=PLATED
T1F00S00C0.01575
T2F00S00C0.02559
T3F00S00C0.02800
T4F00S00C0.03000
T5F00S00C0.03200
T6F00S00C0.04200
T7F00S00C0.04724
T8F00S00C0.06496
T9F00S00C0.07874
T10F00S00C0.12008
%
T01
X02234Y-00705
X01862Y-0021
X02595Y-00217
X02746Y-005
X03123Y-00507
X03086Y00296
X02837Y00348
X02818Y00254
X02909Y00172
X0279Y0006
X02572Y00425
X0268006Y0054648
X02922Y00515
X02924Y00608
X02919Y00668
X03233Y00685
X03353Y0061
X0334Y00472
X0251629Y0047929
X02303Y00514
X024Y00748
X0245Y00797
X0206Y00686
X01954Y00527
X01623Y00539
X01382Y00538
X01266Y00467
X01001Y00461
X01081Y01013
X01704Y01014
X0200964Y0101236
X01965Y00031
X01756Y00236
X00898Y00469
X0072913Y0046187
X00471Y00432
X00357Y00464
X00204Y00439
X00087Y00456
X00344Y00251
X00362Y00979
X00567Y01
X00786Y01021
X00931Y01089
X0056253Y01304
X00103Y00975
X00754Y01582
X01784Y02019
T02
X0295Y-00875
Y-0078
Y-0069
X03335
Y-0078
Y-00875
T03
X0201978Y-0070022
X0223878Y-00708
T04
X0281Y01233
X0291
X0301
X0077504Y0024374
Y0012563
X0081Y02233
X0091
X02709
X02809
X02909
X03009
T05
X0261Y01233
X0271
Y01333
X0261
X0281
X0291
X0251
Y01233
X0241
X0231
X0221
X0211
X0201
X0191
X0181
X0171
X0161
X0151
X0141
X0131
X0121
X0111
X0101
Y01333
X0111
X0121
X0131
X0141
X0151
X0161
X0171
X0181
X0191
X0201
X0211
X0221
X0231
X0241
X02409Y02233
X02309
X02209
X02109
X02009
X01909
X01809
X01709
X01609
X01509
X01409
X01309
X01209
X01109
X01009
X02509
X02609
X0281Y01833
X0291
X0301
Y01733
X0291
X0281
T06
X00375Y-00365
Y0004
T07
X0127626Y-0085969
X0147311
T08
X005613Y-00865
X0075815Y-00865
X00955
T09
X00681Y-00477
X00665Y-0010905
X00975Y-0011
X00991Y-0047794
T10
X00039Y-00951
X0352
X00564Y02162
X00113Y02335
X03481Y023
M30
