G04*
G04 #@! TF.GenerationSoftware,Altium Limited,Altium Designer,18.0.12 (696)*
G04*
G04 Layer_Physical_Order=1*
G04 Layer_Color=255*
%FSLAX25Y25*%
%MOIN*%
G70*
G01*
G75*
%ADD10C,0.01000*%
%ADD15R,0.03937X0.04331*%
%ADD16R,0.03740X0.03150*%
%ADD17R,0.03150X0.03740*%
%ADD18R,0.04331X0.03937*%
%ADD19R,0.25591X0.23622*%
%ADD20R,0.11811X0.05512*%
%ADD21R,0.06299X0.07087*%
%ADD22R,0.06102X0.02165*%
%ADD23R,0.07087X0.06299*%
%ADD24R,0.05906X0.08000*%
%ADD25O,0.08661X0.02756*%
%ADD47C,0.03937*%
%ADD48C,0.01181*%
%ADD49C,0.01968*%
%ADD50C,0.00600*%
%ADD51C,0.09843*%
%ADD52O,0.11811X0.15748*%
%ADD53R,0.11811X0.11811*%
%ADD54C,0.06000*%
%ADD55C,0.08000*%
%ADD56O,0.06000X0.05000*%
%ADD57R,0.06000X0.06000*%
%ADD58C,0.15748*%
%ADD59C,0.03150*%
%ADD60C,0.05000*%
D10*
X223878Y-28978D02*
Y-18402D01*
X80543Y121736D02*
X99436D01*
X101000Y123300D01*
X160900Y207700D02*
Y223300D01*
X74457Y107100D02*
Y110736D01*
X180900Y220600D02*
Y223300D01*
X75457Y158257D02*
Y165236D01*
X75400Y158200D02*
X75457Y158257D01*
X89808Y83792D02*
X91800Y81800D01*
X89808Y83792D02*
Y90495D01*
X150900Y205800D02*
Y223300D01*
X82043Y188236D02*
X133336D01*
X82043Y178236D02*
X131436D01*
X82543Y165236D02*
X125536D01*
X283953Y66800D02*
X291900D01*
X271043Y82536D02*
X271779Y81800D01*
X301000Y169600D02*
Y173300D01*
X291000D02*
X301000D01*
X46957Y43736D02*
Y53240D01*
X46192Y54005D02*
X46957Y53240D01*
X74457Y107100D02*
X79028Y102528D01*
X189900Y212300D02*
X200900Y223300D01*
X113516Y81800D02*
X116308Y84592D01*
Y90495D01*
X91800Y81800D02*
X113516D01*
X261736Y-27457D02*
Y-23536D01*
X64800Y81800D02*
X91800D01*
X62808Y83792D02*
X64800Y81800D01*
X62808Y83792D02*
Y90495D01*
X133336Y188236D02*
X150900Y205800D01*
X131436Y178236D02*
X160900Y207700D01*
X125536Y165236D02*
X180900Y220600D01*
X312236Y-87236D02*
Y-79043D01*
Y-71957D02*
X315193Y-69000D01*
X333500D01*
X275236Y-86964D02*
Y-79543D01*
Y-72457D02*
X280093Y-67600D01*
X155887Y53893D02*
X162293D01*
X162300Y53900D01*
X145887Y53893D02*
Y60587D01*
X148800Y63500D01*
X172500D01*
X177887Y52893D02*
Y58113D01*
X172500Y63500D02*
X177887Y58113D01*
X187887Y52893D02*
X195207D01*
X195400Y52700D01*
X138293Y53893D02*
X145887D01*
X281000Y173300D02*
X291000D01*
X245736Y42984D02*
Y51457D01*
X275000Y-63346D02*
X279254Y-67600D01*
X280093D01*
X293600D02*
X295000Y-69000D01*
X280093Y-67600D02*
X281800D01*
X293600D01*
X282636Y33736D02*
X283700Y34800D01*
X276043Y33736D02*
X282636D01*
X271779Y81800D02*
X283953D01*
X245736Y51457D02*
X251357D01*
X263537Y82956D02*
X263957Y82536D01*
X309264Y43043D02*
Y45584D01*
X303047Y51800D02*
X309264Y45584D01*
X301000Y169600D02*
X312300Y158300D01*
X81543Y110736D02*
X85107Y114300D01*
X107600D01*
X111000Y117700D01*
Y123300D01*
X97407Y108900D02*
X99764Y106543D01*
X93100Y108900D02*
X97407D01*
X78600Y102100D02*
X96100D01*
X99847Y98353D01*
Y90495D02*
Y98353D01*
X187847Y88995D02*
Y100627D01*
X188457Y101236D01*
X195543D02*
X200964D01*
X113516Y81800D02*
X143000D01*
X145808Y84608D01*
X312300Y111000D02*
Y158300D01*
X309264Y43043D02*
X310657D01*
X314300Y39400D01*
Y36800D02*
Y39400D01*
Y36800D02*
X315143Y35957D01*
X319264D01*
Y28043D02*
Y35957D01*
X116387Y43713D02*
Y54393D01*
Y43713D02*
X116656Y43444D01*
X251629Y47929D02*
X253000Y49300D01*
Y53100D01*
X251357Y51457D02*
X253000Y53100D01*
Y56400D01*
X255946Y59346D02*
X257500D01*
X259300Y61146D01*
Y64400D01*
X253000Y56400D02*
X255946Y59346D01*
X259300Y64400D02*
X261700Y66800D01*
X283953D01*
X186236Y-5957D02*
X192443D01*
X195100Y-3300D01*
X259700Y-21500D02*
X261736Y-23536D01*
X259500Y-21700D02*
X259700Y-21500D01*
X260736Y-4957D02*
X263557D01*
X271100Y-12500D01*
Y-38600D02*
Y-12500D01*
X263300Y-46400D02*
X271100Y-38600D01*
X155847Y89995D02*
Y100627D01*
X156957Y101736D01*
X164043D02*
X169364D01*
X169500Y101600D01*
X170200D01*
X170400Y101400D01*
X156957Y101736D02*
Y111236D01*
X210900Y218500D02*
Y223300D01*
X188457Y101236D02*
Y110236D01*
X188957Y110736D01*
X196043D02*
X205681Y120374D01*
Y186181D02*
X240900Y221400D01*
Y223300D01*
X205681Y120374D02*
Y186181D01*
X143000Y81800D02*
X176000D01*
X116656Y43444D02*
X196844D01*
X236356Y82956D01*
X263537D01*
X217100Y81800D02*
X235500Y100200D01*
X301500D01*
X176000Y81800D02*
X177308Y83108D01*
X145808Y84608D02*
Y89995D01*
Y90495D01*
X176000Y81800D02*
X217100D01*
X73457Y121736D02*
Y136736D01*
X74957Y138236D01*
X82043D02*
X89500Y145693D01*
X121093D01*
X164043Y111236D02*
X173336D01*
X175681Y113581D01*
Y183281D01*
X210900Y218500D01*
X82543Y151736D02*
X117436D01*
X178000Y212300D02*
X189900D01*
X117436Y151736D02*
X178000Y212300D01*
X121093Y145693D02*
X177300Y201900D01*
X178400D01*
X67500Y115779D02*
X73457Y121736D01*
X19613Y89607D02*
Y98113D01*
X33100Y111600D01*
Y146379D01*
X74957Y188236D01*
X63043Y121764D02*
X67500Y117307D01*
Y115779D02*
Y117307D01*
X72847Y90495D02*
Y94853D01*
X67500Y100200D02*
X72847Y94853D01*
X67500Y100200D02*
Y115779D01*
X54957Y120764D02*
X55957Y121764D01*
Y117143D02*
Y121764D01*
Y117143D02*
X56600Y116500D01*
X61200D01*
X62043Y115657D01*
Y110236D02*
Y115657D01*
X55957Y121764D02*
X56500Y122307D01*
Y130210D01*
X56310Y130400D02*
X56500Y130210D01*
X56253Y130400D02*
X56310D01*
X283700Y34800D02*
X286100Y32400D01*
X271900Y-12500D02*
X286100Y1700D01*
X259700Y-21500D02*
X260736Y-20464D01*
Y-12043D01*
X312500Y-66307D02*
Y-63346D01*
Y-66307D02*
X315193Y-69000D01*
X263300Y-85900D02*
Y-46400D01*
Y-85900D02*
X264000Y-86600D01*
X195100Y-3300D02*
Y1700D01*
X196500Y3100D01*
X204600Y11200D01*
X286100D01*
Y1700D02*
Y11200D01*
Y32400D01*
X301500Y100200D02*
X312300Y111000D01*
X177308Y83108D02*
Y88995D01*
D15*
X312500Y-63346D02*
D03*
Y-56653D02*
D03*
X275000Y-63346D02*
D03*
Y-56653D02*
D03*
X317500Y61453D02*
D03*
Y68147D02*
D03*
X257500Y52653D02*
D03*
Y59346D02*
D03*
X229000Y35654D02*
D03*
Y42347D02*
D03*
D16*
X275236Y-79543D02*
D03*
Y-72457D02*
D03*
X319264Y28043D02*
D03*
Y20957D02*
D03*
Y43043D02*
D03*
Y35957D02*
D03*
X312236Y-79043D02*
D03*
Y-71957D02*
D03*
X309264Y43043D02*
D03*
Y35957D02*
D03*
X328736Y61257D02*
D03*
Y68343D02*
D03*
X237264Y58543D02*
D03*
Y51457D02*
D03*
X223736Y-18543D02*
D03*
Y-11457D02*
D03*
Y-2543D02*
D03*
Y4543D02*
D03*
X328736Y47257D02*
D03*
Y54343D02*
D03*
X245736Y51457D02*
D03*
Y58543D02*
D03*
X99764Y106543D02*
D03*
Y99457D02*
D03*
X186236Y-34543D02*
D03*
Y-27457D02*
D03*
Y-13043D02*
D03*
Y-5957D02*
D03*
X6736Y-6543D02*
D03*
Y543D02*
D03*
X6236Y10957D02*
D03*
Y18043D02*
D03*
X261736Y-34543D02*
D03*
Y-27457D02*
D03*
X260736Y-12043D02*
D03*
Y-4957D02*
D03*
X237236Y35457D02*
D03*
Y42543D02*
D03*
X147736Y-15043D02*
D03*
Y-7957D02*
D03*
Y457D02*
D03*
Y7543D02*
D03*
X245764Y42543D02*
D03*
Y35457D02*
D03*
X18028Y47D02*
D03*
Y-7040D02*
D03*
X18264Y18043D02*
D03*
Y10957D02*
D03*
D17*
X55957Y121764D02*
D03*
X63043D02*
D03*
X62043Y110236D02*
D03*
X54957D02*
D03*
X195543Y101236D02*
D03*
X188457D02*
D03*
X82043Y138236D02*
D03*
X74957D02*
D03*
X196043Y110736D02*
D03*
X188957D02*
D03*
X164043Y111236D02*
D03*
X156957D02*
D03*
X299043Y23236D02*
D03*
X291957D02*
D03*
X298543Y42736D02*
D03*
X291457D02*
D03*
X291457Y33764D02*
D03*
X298543D02*
D03*
X271043Y82536D02*
D03*
X263957D02*
D03*
X164043Y101736D02*
D03*
X156957D02*
D03*
X268957Y25264D02*
D03*
X276043D02*
D03*
X276043Y33736D02*
D03*
X268957D02*
D03*
X80543Y121736D02*
D03*
X73457D02*
D03*
X81543Y110736D02*
D03*
X74457D02*
D03*
X82043Y178236D02*
D03*
X74957D02*
D03*
X82043Y188236D02*
D03*
X74957D02*
D03*
X82543Y165236D02*
D03*
X75457D02*
D03*
X82543Y151736D02*
D03*
X75457D02*
D03*
D18*
X269153Y15500D02*
D03*
X275847D02*
D03*
D19*
X146878Y-43000D02*
D03*
X223878D02*
D03*
D20*
X172114Y-33945D02*
D03*
Y-52055D02*
D03*
X249114Y-33945D02*
D03*
Y-52055D02*
D03*
D21*
X22488Y-86000D02*
D03*
X33512D02*
D03*
D22*
X41642Y18000D02*
D03*
X34358Y14260D02*
D03*
Y21740D02*
D03*
X61642Y18000D02*
D03*
X54358Y14260D02*
D03*
Y21740D02*
D03*
D23*
X22500Y-53988D02*
D03*
Y-65012D02*
D03*
D24*
X126347Y90495D02*
D03*
X116308D02*
D03*
X126387Y54393D02*
D03*
X116387D02*
D03*
X187847Y88995D02*
D03*
X177808D02*
D03*
X187887Y52893D02*
D03*
X177887D02*
D03*
X99847Y90495D02*
D03*
X89808D02*
D03*
X99887Y54393D02*
D03*
X89887D02*
D03*
X9653Y53505D02*
D03*
X19692D02*
D03*
X9613Y89607D02*
D03*
X19613D02*
D03*
X72847Y90495D02*
D03*
X62808D02*
D03*
X72887Y54393D02*
D03*
X62887D02*
D03*
X36153Y54005D02*
D03*
X46192D02*
D03*
X36113Y90107D02*
D03*
X46113D02*
D03*
X155847Y89995D02*
D03*
X145808D02*
D03*
X155887Y53893D02*
D03*
X145887D02*
D03*
D25*
X303047Y51800D02*
D03*
Y56800D02*
D03*
Y61800D02*
D03*
Y66800D02*
D03*
Y71800D02*
D03*
Y76800D02*
D03*
Y81800D02*
D03*
X283953Y51800D02*
D03*
Y56800D02*
D03*
Y61800D02*
D03*
Y66800D02*
D03*
Y71800D02*
D03*
Y76800D02*
D03*
Y81800D02*
D03*
D47*
X64900Y-10500D02*
X67000Y-12600D01*
Y-48000D02*
Y-12600D01*
X56130Y-58870D02*
X67000Y-48000D01*
X56130Y-86500D02*
Y-58870D01*
X139667Y-47400D02*
X147736Y-39331D01*
X100750Y-44750D02*
X103400Y-47400D01*
X139667D01*
X223878Y-70800D02*
Y-43000D01*
X202756Y-70800D02*
X223878D01*
X95500Y-86500D02*
X126900D01*
X147200Y-86968D02*
X169091D01*
X170945Y-85114D02*
X173131Y-87300D01*
X169091Y-86968D02*
X170945Y-85114D01*
X172114Y-83945D01*
X250100Y-87300D02*
Y-54055D01*
X172114Y-83945D02*
Y-52055D01*
X33512Y-86000D02*
X55630D01*
X173131Y-87300D02*
X196400D01*
X250100D01*
X186236Y-27457D02*
Y-21036D01*
X223878Y-43000D02*
Y-28978D01*
X75815Y-86500D02*
X95500D01*
X147736Y-39331D02*
Y-15043D01*
X186200Y-21000D02*
X186236Y-21036D01*
X250100Y-87300D02*
X333500D01*
X201978Y-70022D02*
X202756Y-70800D01*
D48*
X304436Y33764D02*
X308600Y29600D01*
X298543Y33764D02*
X304436D01*
X303047Y66800D02*
X316154D01*
X34358Y25058D02*
X34400Y25100D01*
X34358Y21740D02*
Y25058D01*
Y7142D02*
X37500Y4000D01*
X37902Y14260D02*
X41642Y18000D01*
X34358Y14260D02*
X37902D01*
X50740Y21740D02*
X54358D01*
X35800Y53652D02*
X36153Y54005D01*
X172114Y-33945D02*
X185638D01*
X186236Y-34543D01*
X34358Y7142D02*
Y14260D01*
X72887Y46187D02*
X72913D01*
X72887D02*
Y54393D01*
X322947Y68147D02*
X323300Y68500D01*
X237264Y58543D02*
X245736D01*
X245736Y58543D01*
X230300Y51400D02*
X237207D01*
X8756Y90464D02*
X9613Y89607D01*
X8756Y95956D02*
X10300Y97500D01*
X35800Y46000D02*
Y53652D01*
X41642Y18000D02*
X47000D01*
X50740Y21740D01*
X35900Y97900D02*
X36200D01*
X35800Y90421D02*
X36113Y90107D01*
X35800Y90421D02*
Y97800D01*
X35900Y97900D01*
X8756Y90464D02*
Y95956D01*
X8700Y45600D02*
Y52552D01*
X9653Y53505D01*
X99887Y46313D02*
Y54393D01*
Y46313D02*
X100100Y46100D01*
X274600Y-50000D02*
X275000Y-50400D01*
X126387Y46807D02*
Y54393D01*
Y46807D02*
X126494Y46700D01*
X126600D01*
X317500Y68147D02*
X322947D01*
X323300Y68500D02*
X328579D01*
X223736Y-11457D02*
Y-2543D01*
X237236Y51429D02*
X237264Y51457D01*
X237207Y51400D02*
X237236Y51429D01*
X229000Y42347D02*
X237039D01*
X237236Y42543D01*
X276043Y25264D02*
X281664D01*
X281800Y25400D01*
X275847Y15500D02*
Y25067D01*
X276043Y25264D01*
X283953Y42768D02*
Y51800D01*
Y42768D02*
X292457Y34264D01*
X291457Y33764D02*
Y42736D01*
Y33764D02*
X291457Y33764D01*
X62887Y45013D02*
Y54393D01*
X245736Y58543D02*
Y63536D01*
X254000Y71800D01*
X283953D01*
X237236Y42543D02*
Y51429D01*
X291957Y18657D02*
Y23236D01*
X290900Y17600D02*
X291957Y18657D01*
X290900Y17200D02*
Y17600D01*
X18264Y18043D02*
Y21664D01*
X29700Y33100D01*
X200900D01*
X235125Y67325D01*
X240525D01*
X283953Y61800D02*
X291400D01*
X292400Y60800D01*
X298543Y42736D02*
Y45157D01*
X292200Y51500D02*
X298543Y45157D01*
X291457Y30343D02*
Y33764D01*
X308600Y29600D02*
X309264Y30264D01*
Y35957D01*
X299043Y23236D02*
Y26857D01*
X297300Y28600D02*
X299043Y26857D01*
X293200Y28600D02*
X297300D01*
X291457Y30343D02*
X293200Y28600D01*
X244800Y79700D02*
X245000D01*
X244454Y80046D02*
X244800Y79700D01*
X62887Y45013D02*
X67500Y40400D01*
X237747Y80046D02*
X244454D01*
X67500Y40400D02*
X198100D01*
X237747Y80046D01*
X216300Y34400D02*
X259000D01*
X263800Y39200D01*
X257500Y42800D02*
Y52653D01*
X257200Y42500D02*
X257500Y42800D01*
X263800Y39200D02*
Y61800D01*
X283953D01*
X147736Y7543D02*
Y11036D01*
X153900Y17200D01*
X199100D02*
X216300Y34400D01*
X153900Y17200D02*
X199100D01*
X240525Y67325D02*
X250000Y76800D01*
X283953D01*
X54957Y101743D02*
Y110236D01*
Y101743D02*
X56700Y100000D01*
X46113Y149393D02*
X74957Y178236D01*
X46113Y90107D02*
Y149393D01*
X50700Y114493D02*
X54957Y110236D01*
X50700Y114493D02*
Y142500D01*
X59936Y151736D01*
X75457D01*
X261138Y-33945D02*
X261736Y-34543D01*
X249114Y-33945D02*
X261138D01*
X312300Y-50700D02*
X312500Y-50900D01*
Y-56653D02*
Y-50900D01*
X275000Y-56653D02*
Y-50400D01*
D49*
X22500Y-53988D02*
Y-42400D01*
X28400Y-36500D01*
X29500D01*
X37500D01*
X22500Y-85988D02*
Y-65012D01*
X18500Y-25500D02*
X29500Y-36500D01*
X19692Y44608D02*
X20400Y43900D01*
X71130Y18000D02*
X77504Y24374D01*
X61642Y18000D02*
X71130D01*
X18264Y-6700D02*
X18500Y-6936D01*
X6736Y-6543D02*
X10393Y-10200D01*
X18500D01*
Y-25500D02*
Y-10200D01*
Y-6936D01*
X6736Y543D02*
Y10457D01*
X6236Y10957D02*
X6736Y10457D01*
X18028Y47D02*
Y10721D01*
X18264Y10957D01*
X328736Y47257D02*
X333943D01*
X334000Y47200D01*
X19692Y44608D02*
Y53505D01*
X77504Y24374D02*
X81926D01*
X82700Y23600D01*
X175600D01*
X186236Y-20964D02*
Y-13043D01*
D50*
X108100Y101300D02*
X121600D01*
X302547Y57300D02*
X303047Y56800D01*
X121600Y101300D02*
X126347Y96553D01*
Y90495D02*
Y96553D01*
X328736Y54343D02*
Y61257D01*
X317500Y61453D02*
X328539D01*
X317154Y61800D02*
X317500Y61453D01*
X147736Y-7957D02*
Y457D01*
X268957Y25264D02*
X268957Y25264D01*
X268957Y25264D02*
Y33736D01*
X268957Y15697D02*
Y25264D01*
Y15697D02*
X269153Y15500D01*
X223736Y4543D02*
X226193Y7000D01*
X268006Y54648D02*
X270158Y56800D01*
X283953D01*
X268006Y54648D02*
Y55212D01*
Y34274D02*
X268750Y33529D01*
X268006Y34274D02*
Y54648D01*
X6236Y18043D02*
X25493Y37300D01*
X199800D01*
X238400Y75900D01*
X239700D01*
X240000Y75600D01*
Y74800D02*
Y75600D01*
X303047Y61800D02*
X317154D01*
X319264Y43043D02*
Y59690D01*
X317500Y61453D02*
X319264Y59690D01*
X283953Y56800D02*
X303047D01*
X328993Y61000D02*
X335300D01*
X328736Y61257D02*
X328993Y61000D01*
X319264Y20957D02*
X327557D01*
X344600Y38000D01*
Y77000D01*
X332000Y89600D02*
X344600Y77000D01*
X89800Y46900D02*
Y54306D01*
X89887Y54393D01*
X206000Y68600D02*
X218100D01*
X239100Y89600D01*
X332000D01*
X226193Y7000D02*
X278000D01*
X279000Y6000D01*
D51*
X147311Y-85969D02*
D03*
X127626D02*
D03*
D52*
X95500Y-86500D02*
D03*
X75815D02*
D03*
X56130Y-86500D02*
D03*
D53*
X68100Y-47700D02*
D03*
X99100Y-47794D02*
D03*
X66500Y-10905D02*
D03*
X97500Y-11000D02*
D03*
D54*
X77504Y12563D02*
D03*
Y24374D02*
D03*
X271000Y123300D02*
D03*
X101000D02*
D03*
X111000D02*
D03*
X121000D02*
D03*
X131000D02*
D03*
X141000D02*
D03*
X151000D02*
D03*
X161000D02*
D03*
X171000D02*
D03*
X201000D02*
D03*
X211000D02*
D03*
X221000D02*
D03*
X231000D02*
D03*
X241000D02*
D03*
X251000D02*
D03*
X261000D02*
D03*
X281000D02*
D03*
X291000D02*
D03*
X301000D02*
D03*
X101000Y133300D02*
D03*
X111000D02*
D03*
X121000D02*
D03*
X131000D02*
D03*
X141000D02*
D03*
X151000D02*
D03*
X161000D02*
D03*
X171000D02*
D03*
X181000D02*
D03*
X191000D02*
D03*
X201000D02*
D03*
X211000D02*
D03*
X221000D02*
D03*
X231000D02*
D03*
X241000D02*
D03*
X251000D02*
D03*
X261000D02*
D03*
X271000D02*
D03*
X281000D02*
D03*
X291000D02*
D03*
X81000Y223300D02*
D03*
X100900D02*
D03*
X110900D02*
D03*
X120900D02*
D03*
X130900D02*
D03*
X140900D02*
D03*
X150900D02*
D03*
X160900D02*
D03*
X170900D02*
D03*
X200900D02*
D03*
X210900D02*
D03*
X220900D02*
D03*
X230900D02*
D03*
X240900D02*
D03*
X250900D02*
D03*
X260900D02*
D03*
X270900D02*
D03*
X280900D02*
D03*
X290900D02*
D03*
X300900D02*
D03*
X91000D02*
D03*
D55*
X37500Y-36500D02*
D03*
Y4000D02*
D03*
D56*
X333500Y-78000D02*
D03*
Y-87500D02*
D03*
Y-69000D02*
D03*
X295000Y-78000D02*
D03*
Y-87500D02*
D03*
Y-69000D02*
D03*
D57*
X181000Y123300D02*
D03*
X191000D02*
D03*
X190900Y223300D02*
D03*
X180900D02*
D03*
X281000Y183300D02*
D03*
X291000D02*
D03*
X301000D02*
D03*
X281000Y173300D02*
D03*
X291000D02*
D03*
X301000D02*
D03*
D58*
X56400Y216200D02*
D03*
X11300Y233500D02*
D03*
X348100Y230000D02*
D03*
X3900Y-95100D02*
D03*
X352000D02*
D03*
D59*
X34400Y25100D02*
D03*
X75400Y158200D02*
D03*
X78600Y102100D02*
D03*
X108100Y101300D02*
D03*
X186200Y-21000D02*
D03*
X20400Y43900D02*
D03*
X8700Y45600D02*
D03*
X72913Y46187D02*
D03*
X291900Y66800D02*
D03*
X334000Y47200D02*
D03*
X10300Y97500D02*
D03*
X35700Y46400D02*
D03*
X36200Y97900D02*
D03*
X100100Y46100D02*
D03*
X47100Y43200D02*
D03*
X162300Y53900D02*
D03*
X126600Y46700D02*
D03*
X195400Y52700D02*
D03*
X323300Y68500D02*
D03*
X138200Y53800D02*
D03*
X175600Y23600D02*
D03*
X196500Y3100D02*
D03*
X283700Y34800D02*
D03*
X281800Y25400D02*
D03*
X268006Y54648D02*
D03*
X230300Y51400D02*
D03*
X245000Y79700D02*
D03*
X290900Y17200D02*
D03*
X240000Y74800D02*
D03*
X93100Y108900D02*
D03*
X200964Y101236D02*
D03*
X292400Y60800D02*
D03*
X292200Y51500D02*
D03*
X308600Y29600D02*
D03*
X335300Y61000D02*
D03*
X206000Y68600D02*
D03*
X89800Y46900D02*
D03*
X251629Y47929D02*
D03*
X257200Y42500D02*
D03*
X170400Y101400D02*
D03*
X178400Y201900D02*
D03*
X56700Y100000D02*
D03*
X56253Y130400D02*
D03*
X279000Y6000D02*
D03*
X259500Y-21700D02*
D03*
X312300Y-50700D02*
D03*
X274600Y-50000D02*
D03*
X223400Y-70500D02*
D03*
D60*
X201978Y-70022D02*
D03*
X223878Y-70800D02*
D03*
M02*
