G04*
G04 #@! TF.GenerationSoftware,Altium Limited,Altium Designer,18.0.12 (696)*
G04*
G04 Layer_Color=8388736*
%FSLAX25Y25*%
%MOIN*%
G70*
G01*
G75*
%ADD26R,0.04737X0.05131*%
%ADD27R,0.04540X0.03950*%
%ADD28R,0.03950X0.04540*%
%ADD29R,0.05131X0.04737*%
%ADD30R,0.26391X0.24422*%
%ADD31R,0.12611X0.06312*%
%ADD32R,0.07099X0.07887*%
%ADD33R,0.06902X0.02965*%
%ADD34R,0.07887X0.07099*%
%ADD35R,0.06706X0.08800*%
%ADD36O,0.09461X0.03556*%
%ADD37C,0.10642*%
%ADD38O,0.12611X0.16548*%
%ADD39R,0.12611X0.12611*%
%ADD40C,0.06800*%
%ADD41C,0.08800*%
%ADD42O,0.06800X0.05800*%
%ADD43R,0.06800X0.06800*%
%ADD44C,0.16548*%
%ADD45C,0.03950*%
%ADD46C,0.05800*%
D26*
X312500Y-63346D02*
D03*
Y-56653D02*
D03*
X275000Y-63346D02*
D03*
Y-56653D02*
D03*
X317500Y61453D02*
D03*
Y68147D02*
D03*
X257500Y52653D02*
D03*
Y59346D02*
D03*
X229000Y35654D02*
D03*
Y42347D02*
D03*
D27*
X275236Y-79543D02*
D03*
Y-72457D02*
D03*
X319264Y28043D02*
D03*
Y20957D02*
D03*
Y43043D02*
D03*
Y35957D02*
D03*
X312236Y-79043D02*
D03*
Y-71957D02*
D03*
X309264Y43043D02*
D03*
Y35957D02*
D03*
X328736Y61257D02*
D03*
Y68343D02*
D03*
X237264Y58543D02*
D03*
Y51457D02*
D03*
X223736Y-18543D02*
D03*
Y-11457D02*
D03*
Y-2543D02*
D03*
Y4543D02*
D03*
X328736Y47257D02*
D03*
Y54343D02*
D03*
X245736Y51457D02*
D03*
Y58543D02*
D03*
X99764Y106543D02*
D03*
Y99457D02*
D03*
X186236Y-34543D02*
D03*
Y-27457D02*
D03*
Y-13043D02*
D03*
Y-5957D02*
D03*
X6736Y-6543D02*
D03*
Y543D02*
D03*
X6236Y10957D02*
D03*
Y18043D02*
D03*
X261736Y-34543D02*
D03*
Y-27457D02*
D03*
X260736Y-12043D02*
D03*
Y-4957D02*
D03*
X237236Y35457D02*
D03*
Y42543D02*
D03*
X147736Y-15043D02*
D03*
Y-7957D02*
D03*
Y457D02*
D03*
Y7543D02*
D03*
X245764Y42543D02*
D03*
Y35457D02*
D03*
X18028Y47D02*
D03*
Y-7040D02*
D03*
X18264Y18043D02*
D03*
Y10957D02*
D03*
D28*
X55957Y121764D02*
D03*
X63043D02*
D03*
X62043Y110236D02*
D03*
X54957D02*
D03*
X195543Y101236D02*
D03*
X188457D02*
D03*
X82043Y138236D02*
D03*
X74957D02*
D03*
X196043Y110736D02*
D03*
X188957D02*
D03*
X164043Y111236D02*
D03*
X156957D02*
D03*
X299043Y23236D02*
D03*
X291957D02*
D03*
X298543Y42736D02*
D03*
X291457D02*
D03*
X291457Y33764D02*
D03*
X298543D02*
D03*
X271043Y82536D02*
D03*
X263957D02*
D03*
X164043Y101736D02*
D03*
X156957D02*
D03*
X268957Y25264D02*
D03*
X276043D02*
D03*
X276043Y33736D02*
D03*
X268957D02*
D03*
X80543Y121736D02*
D03*
X73457D02*
D03*
X81543Y110736D02*
D03*
X74457D02*
D03*
X82043Y178236D02*
D03*
X74957D02*
D03*
X82043Y188236D02*
D03*
X74957D02*
D03*
X82543Y165236D02*
D03*
X75457D02*
D03*
X82543Y151736D02*
D03*
X75457D02*
D03*
D29*
X269153Y15500D02*
D03*
X275847D02*
D03*
D30*
X146878Y-43000D02*
D03*
X223878D02*
D03*
D31*
X172114Y-33945D02*
D03*
Y-52055D02*
D03*
X249114Y-33945D02*
D03*
Y-52055D02*
D03*
D32*
X22488Y-86000D02*
D03*
X33512D02*
D03*
D33*
X41642Y18000D02*
D03*
X34358Y14260D02*
D03*
Y21740D02*
D03*
X61642Y18000D02*
D03*
X54358Y14260D02*
D03*
Y21740D02*
D03*
D34*
X22500Y-53988D02*
D03*
Y-65012D02*
D03*
D35*
X126347Y90495D02*
D03*
X116308D02*
D03*
X126387Y54393D02*
D03*
X116387D02*
D03*
X187847Y88995D02*
D03*
X177808D02*
D03*
X187887Y52893D02*
D03*
X177887D02*
D03*
X99847Y90495D02*
D03*
X89808D02*
D03*
X99887Y54393D02*
D03*
X89887D02*
D03*
X9653Y53505D02*
D03*
X19692D02*
D03*
X9613Y89607D02*
D03*
X19613D02*
D03*
X72847Y90495D02*
D03*
X62808D02*
D03*
X72887Y54393D02*
D03*
X62887D02*
D03*
X36153Y54005D02*
D03*
X46192D02*
D03*
X36113Y90107D02*
D03*
X46113D02*
D03*
X155847Y89995D02*
D03*
X145808D02*
D03*
X155887Y53893D02*
D03*
X145887D02*
D03*
D36*
X303047Y51800D02*
D03*
Y56800D02*
D03*
Y61800D02*
D03*
Y66800D02*
D03*
Y71800D02*
D03*
Y76800D02*
D03*
Y81800D02*
D03*
X283953Y51800D02*
D03*
Y56800D02*
D03*
Y61800D02*
D03*
Y66800D02*
D03*
Y71800D02*
D03*
Y76800D02*
D03*
Y81800D02*
D03*
D37*
X147311Y-85969D02*
D03*
X127626D02*
D03*
D38*
X95500Y-86500D02*
D03*
X75815D02*
D03*
X56130Y-86500D02*
D03*
D39*
X68100Y-47700D02*
D03*
X99100Y-47794D02*
D03*
X66500Y-10905D02*
D03*
X97500Y-11000D02*
D03*
D40*
X77504Y12563D02*
D03*
Y24374D02*
D03*
X271000Y123300D02*
D03*
X101000D02*
D03*
X111000D02*
D03*
X121000D02*
D03*
X131000D02*
D03*
X141000D02*
D03*
X151000D02*
D03*
X161000D02*
D03*
X171000D02*
D03*
X201000D02*
D03*
X211000D02*
D03*
X221000D02*
D03*
X231000D02*
D03*
X241000D02*
D03*
X251000D02*
D03*
X261000D02*
D03*
X281000D02*
D03*
X291000D02*
D03*
X301000D02*
D03*
X101000Y133300D02*
D03*
X111000D02*
D03*
X121000D02*
D03*
X131000D02*
D03*
X141000D02*
D03*
X151000D02*
D03*
X161000D02*
D03*
X171000D02*
D03*
X181000D02*
D03*
X191000D02*
D03*
X201000D02*
D03*
X211000D02*
D03*
X221000D02*
D03*
X231000D02*
D03*
X241000D02*
D03*
X251000D02*
D03*
X261000D02*
D03*
X271000D02*
D03*
X281000D02*
D03*
X291000D02*
D03*
X81000Y223300D02*
D03*
X100900D02*
D03*
X110900D02*
D03*
X120900D02*
D03*
X130900D02*
D03*
X140900D02*
D03*
X150900D02*
D03*
X160900D02*
D03*
X170900D02*
D03*
X200900D02*
D03*
X210900D02*
D03*
X220900D02*
D03*
X230900D02*
D03*
X240900D02*
D03*
X250900D02*
D03*
X260900D02*
D03*
X270900D02*
D03*
X280900D02*
D03*
X290900D02*
D03*
X300900D02*
D03*
X91000D02*
D03*
D41*
X37500Y-36500D02*
D03*
Y4000D02*
D03*
D42*
X333500Y-78000D02*
D03*
Y-87500D02*
D03*
Y-69000D02*
D03*
X295000Y-78000D02*
D03*
Y-87500D02*
D03*
Y-69000D02*
D03*
D43*
X181000Y123300D02*
D03*
X191000D02*
D03*
X190900Y223300D02*
D03*
X180900D02*
D03*
X281000Y183300D02*
D03*
X291000D02*
D03*
X301000D02*
D03*
X281000Y173300D02*
D03*
X291000D02*
D03*
X301000D02*
D03*
D44*
X56400Y216200D02*
D03*
X11300Y233500D02*
D03*
X348100Y230000D02*
D03*
X3900Y-95100D02*
D03*
X352000D02*
D03*
D45*
X34400Y25100D02*
D03*
X75400Y158200D02*
D03*
X78600Y102100D02*
D03*
X108100Y101300D02*
D03*
X186200Y-21000D02*
D03*
X20400Y43900D02*
D03*
X8700Y45600D02*
D03*
X72913Y46187D02*
D03*
X291900Y66800D02*
D03*
X334000Y47200D02*
D03*
X10300Y97500D02*
D03*
X35700Y46400D02*
D03*
X36200Y97900D02*
D03*
X100100Y46100D02*
D03*
X47100Y43200D02*
D03*
X162300Y53900D02*
D03*
X126600Y46700D02*
D03*
X195400Y52700D02*
D03*
X323300Y68500D02*
D03*
X138200Y53800D02*
D03*
X175600Y23600D02*
D03*
X196500Y3100D02*
D03*
X283700Y34800D02*
D03*
X281800Y25400D02*
D03*
X268006Y54648D02*
D03*
X230300Y51400D02*
D03*
X245000Y79700D02*
D03*
X290900Y17200D02*
D03*
X240000Y74800D02*
D03*
X93100Y108900D02*
D03*
X200964Y101236D02*
D03*
X292400Y60800D02*
D03*
X292200Y51500D02*
D03*
X308600Y29600D02*
D03*
X335300Y61000D02*
D03*
X206000Y68600D02*
D03*
X89800Y46900D02*
D03*
X251629Y47929D02*
D03*
X257200Y42500D02*
D03*
X170400Y101400D02*
D03*
X178400Y201900D02*
D03*
X56700Y100000D02*
D03*
X56253Y130400D02*
D03*
X279000Y6000D02*
D03*
X259500Y-21700D02*
D03*
X312300Y-50700D02*
D03*
X274600Y-50000D02*
D03*
X223400Y-70500D02*
D03*
D46*
X201978Y-70022D02*
D03*
X223878Y-70800D02*
D03*
M02*
