G04*
G04 #@! TF.GenerationSoftware,Altium Limited,Altium Designer,18.0.12 (696)*
G04*
G04 Layer_Color=65535*
%FSLAX25Y25*%
%MOIN*%
G70*
G01*
G75*
%ADD10C,0.01000*%
%ADD11C,0.00984*%
%ADD12C,0.00787*%
%ADD13C,0.02362*%
%ADD14R,0.59055X0.06500*%
D10*
X130726Y-86000D02*
G03*
X138600Y-86000I3937J0D01*
G01*
X146474Y-86000D02*
G03*
X138600Y-86000I-3937J0D01*
G01*
X154201Y-93874D02*
Y-78126D01*
X120736D02*
X154201D01*
X120736Y-93874D02*
Y-78126D01*
Y-93874D02*
X154201D01*
X46287Y-66815D02*
X46287Y-100279D01*
X105000D01*
X105000Y-66815D02*
X105000Y-100279D01*
X46287Y-66815D02*
X105000D01*
X74551Y33232D02*
X80457Y33232D01*
X77504Y30279D02*
Y36185D01*
X79473Y12563D02*
X83410D01*
X79472Y25358D02*
X83410Y25358D01*
X83409Y6657D02*
X83410Y11579D01*
X83409Y6657D02*
X104079Y6657D01*
X83409Y31264D02*
X128685D01*
X83409D02*
X83410Y11579D01*
X104079Y6657D02*
X128685D01*
Y31264D01*
X30700Y-30800D02*
X38500Y-30800D01*
X-9500Y-39000D02*
X27500D01*
X27500Y6000D01*
X-9500Y-39000D02*
X-9500Y6000D01*
X31000Y-1000D02*
X39000Y-1000D01*
X-9500Y6000D02*
X14075Y6000D01*
X27500Y6000D01*
X329969Y-87369D02*
X337969D01*
Y-69369D01*
X329969D02*
X337969D01*
X327469Y-71869D02*
X329969Y-69369D01*
X327469Y-84869D02*
Y-71869D01*
Y-84869D02*
X329969Y-87369D01*
X291469D02*
X299469D01*
Y-69369D01*
X291469D02*
X299469D01*
X288969Y-71869D02*
X291469Y-69369D01*
X288969Y-84869D02*
Y-71869D01*
Y-84869D02*
X291469Y-87369D01*
X296000Y131300D02*
Y138300D01*
X306000Y118300D02*
Y128300D01*
X96000Y118300D02*
Y128200D01*
Y118300D02*
X306000D01*
X96000Y138300D02*
X295400D01*
X296000Y128500D02*
Y138300D01*
X295700Y128200D02*
X296000Y128500D01*
X96200Y128200D02*
X295700D01*
X96000Y128400D02*
X96200Y128200D01*
X96000Y128400D02*
Y138300D01*
X296000Y131300D02*
Y138300D01*
X95900Y228300D02*
X305900D01*
X95900Y218300D02*
Y228300D01*
X305900Y218300D02*
Y228300D01*
X277000Y179300D02*
Y183300D01*
Y179300D02*
X305000D01*
Y187300D01*
X277000D02*
X305000D01*
X277000Y183300D02*
Y187300D01*
Y169300D02*
Y173300D01*
Y169300D02*
X305000D01*
Y177300D01*
X277000D02*
X305000D01*
X277000Y173300D02*
Y177300D01*
X79099Y44698D02*
X78099Y45698D01*
X76100D01*
X75100Y44698D01*
Y40700D01*
X76100Y39700D01*
X78099D01*
X79099Y40700D01*
X85097Y45698D02*
X83097Y44698D01*
X81098Y42699D01*
Y40700D01*
X82098Y39700D01*
X84097D01*
X85097Y40700D01*
Y41699D01*
X84097Y42699D01*
X81098D01*
X31200Y34998D02*
Y29000D01*
X34199D01*
X35199Y30000D01*
Y33998D01*
X34199Y34998D01*
X31200D01*
X41197Y29000D02*
X37198D01*
X41197Y32999D01*
Y33998D01*
X40197Y34998D01*
X38198D01*
X37198Y33998D01*
X51200Y34998D02*
Y29000D01*
X54199D01*
X55199Y30000D01*
Y33998D01*
X54199Y34998D01*
X51200D01*
X57198Y29000D02*
X59197D01*
X58198D01*
Y34998D01*
X57198Y33998D01*
X62196D02*
X63196Y34998D01*
X65196D01*
X66195Y33998D01*
Y30000D01*
X65196Y29000D01*
X63196D01*
X62196Y30000D01*
Y33998D01*
X125199Y-68602D02*
X121200D01*
Y-71601D01*
X123199D01*
X121200D01*
Y-74600D01*
X127198D02*
X129197D01*
X128198D01*
Y-68602D01*
X127198Y-69602D01*
X46800Y-57302D02*
Y-63300D01*
Y-60301D01*
X50799D01*
Y-57302D01*
Y-63300D01*
X52798D02*
X54797D01*
X53798D01*
Y-57302D01*
X52798Y-58302D01*
X62800Y-32402D02*
Y-38400D01*
Y-35401D01*
X66799D01*
Y-32402D01*
Y-38400D01*
X72797D02*
X68798D01*
X72797Y-34401D01*
Y-33402D01*
X71797Y-32402D01*
X69798D01*
X68798Y-33402D01*
X61200Y4392D02*
Y-1605D01*
Y1393D01*
X65199D01*
Y4392D01*
Y-1605D01*
X67198Y3393D02*
X68198Y4392D01*
X70197D01*
X71197Y3393D01*
Y2393D01*
X70197Y1393D01*
X69197D01*
X70197D01*
X71197Y394D01*
Y-606D01*
X70197Y-1605D01*
X68198D01*
X67198Y-606D01*
X136799Y-23600D02*
Y-19602D01*
X135799Y-18602D01*
X133800D01*
X132800Y-19602D01*
Y-23600D01*
X133800Y-24600D01*
X135799D01*
X134799Y-22601D02*
X136799Y-24600D01*
X135799D02*
X136799Y-23600D01*
X138798Y-24600D02*
X140797D01*
X139798D01*
Y-18602D01*
X138798Y-19602D01*
X213799Y-23600D02*
Y-19602D01*
X212799Y-18602D01*
X210800D01*
X209800Y-19602D01*
Y-23600D01*
X210800Y-24600D01*
X212799D01*
X211799Y-22601D02*
X213799Y-24600D01*
X212799D02*
X213799Y-23600D01*
X219797Y-24600D02*
X215798D01*
X219797Y-20601D01*
Y-19602D01*
X218797Y-18602D01*
X216798D01*
X215798Y-19602D01*
X19900Y-79100D02*
Y-73102D01*
X22899D01*
X23899Y-74102D01*
Y-76101D01*
X22899Y-77101D01*
X19900D01*
X21899D02*
X23899Y-79100D01*
X25898Y-74102D02*
X26898Y-73102D01*
X28897D01*
X29897Y-74102D01*
Y-75101D01*
X28897Y-76101D01*
X27897D01*
X28897D01*
X29897Y-77101D01*
Y-78100D01*
X28897Y-79100D01*
X26898D01*
X25898Y-78100D01*
X35895Y-73102D02*
X33895Y-74102D01*
X31896Y-76101D01*
Y-78100D01*
X32896Y-79100D01*
X34895D01*
X35895Y-78100D01*
Y-77101D01*
X34895Y-76101D01*
X31896D01*
X19600Y-47400D02*
Y-41402D01*
X22599D01*
X23599Y-42402D01*
Y-44401D01*
X22599Y-45401D01*
X19600D01*
X21599D02*
X23599Y-47400D01*
X28597D02*
Y-41402D01*
X25598Y-44401D01*
X29597D01*
X35595Y-41402D02*
X33595Y-42402D01*
X31596Y-44401D01*
Y-46400D01*
X32596Y-47400D01*
X34595D01*
X35595Y-46400D01*
Y-45401D01*
X34595Y-44401D01*
X31596D01*
X289450Y-57052D02*
Y-62050D01*
X290450Y-63050D01*
X292449D01*
X293449Y-62050D01*
Y-57052D01*
X299447D02*
X295448D01*
Y-60051D01*
X297447Y-59051D01*
X298447D01*
X299447Y-60051D01*
Y-62050D01*
X298447Y-63050D01*
X296448D01*
X295448Y-62050D01*
X327950Y-57052D02*
Y-62050D01*
X328950Y-63050D01*
X330949D01*
X331949Y-62050D01*
Y-57052D01*
X333948Y-58052D02*
X334948Y-57052D01*
X336947D01*
X337947Y-58052D01*
Y-59051D01*
X336947Y-60051D01*
X337947Y-61051D01*
Y-62050D01*
X336947Y-63050D01*
X334948D01*
X333948Y-62050D01*
Y-61051D01*
X334948Y-60051D01*
X333948Y-59051D01*
Y-58052D01*
X334948Y-60051D02*
X336947D01*
X100999Y151698D02*
X98999D01*
X99999D01*
Y146700D01*
X98999Y145700D01*
X98000D01*
X97000Y146700D01*
X106997Y145700D02*
X102998D01*
X106997Y149699D01*
Y150698D01*
X105997Y151698D01*
X103998D01*
X102998Y150698D01*
X101099Y162398D02*
X99099D01*
X100099D01*
Y157400D01*
X99099Y156400D01*
X98100D01*
X97100Y157400D01*
X103098Y156400D02*
X105097D01*
X104098D01*
Y162398D01*
X103098D01*
X112095Y160399D02*
X109096D01*
X108096Y159399D01*
Y157400D01*
X109096Y156400D01*
X112095D01*
X118093Y162398D02*
Y156400D01*
X115094D01*
X114094Y157400D01*
Y159399D01*
X115094Y160399D01*
X118093D01*
X88199Y217098D02*
X86199D01*
X87199D01*
Y212100D01*
X86199Y211100D01*
X85200D01*
X84200Y212100D01*
X90198Y211100D02*
X92197D01*
X91198D01*
Y217098D01*
X90198Y216098D01*
X277500Y190800D02*
Y196798D01*
X280499D01*
X281499Y195798D01*
Y193799D01*
X280499Y192799D01*
X277500D01*
X283498Y190800D02*
X285497D01*
X284498D01*
Y196798D01*
X283498Y195798D01*
X277500Y180800D02*
Y186798D01*
X280499D01*
X281499Y185798D01*
Y183799D01*
X280499Y182799D01*
X277500D01*
X287497Y180800D02*
X283498D01*
X287497Y184799D01*
Y185798D01*
X286497Y186798D01*
X284498D01*
X283498Y185798D01*
X279500Y95498D02*
Y90500D01*
X280500Y89500D01*
X282499D01*
X283499Y90500D01*
Y95498D01*
X285498Y90500D02*
X286498Y89500D01*
X288497D01*
X289497Y90500D01*
Y94498D01*
X288497Y95498D01*
X286498D01*
X285498Y94498D01*
Y93499D01*
X286498Y92499D01*
X289497D01*
D11*
X172606Y-56189D02*
G03*
X172606Y-56189I-492J0D01*
G01*
X249606D02*
G03*
X249606Y-56189I-492J0D01*
G01*
X34850Y24988D02*
G03*
X34850Y24988I-492J0D01*
G01*
X54850D02*
G03*
X54850Y24988I-492J0D01*
G01*
X284445Y85540D02*
G03*
X284445Y85540I-492J0D01*
G01*
D12*
X111623Y69846D02*
G03*
X111623Y74846I0J2500D01*
G01*
X173123Y68346D02*
G03*
X173123Y73346I0J2500D01*
G01*
X85123Y69846D02*
G03*
X85123Y74846I0J2500D01*
G01*
X24377Y74154D02*
G03*
X24377Y69154I0J-2500D01*
G01*
X58123Y69846D02*
G03*
X58123Y74846I0J2500D01*
G01*
X50877Y74654D02*
G03*
X50877Y69654I0J-2500D01*
G01*
X141123Y69346D02*
G03*
X141123Y74346I0J2500D01*
G01*
X273760Y-76394D02*
Y-75606D01*
X276713Y-76394D02*
Y-75606D01*
X59106Y123240D02*
X59894D01*
X59106Y120287D02*
X59894D01*
X58106Y108760D02*
X58894D01*
X58106Y111713D02*
X58894D01*
X191606Y99760D02*
X192394D01*
X191606Y102713D02*
X192394D01*
X78106Y136760D02*
X78894D01*
X78106Y139713D02*
X78894D01*
X192106Y109260D02*
X192894D01*
X192106Y112213D02*
X192894D01*
X160106Y109760D02*
X160894D01*
X160106Y112713D02*
X160894D01*
X320740Y24106D02*
Y24894D01*
X317787Y24106D02*
Y24894D01*
X295106Y21760D02*
X295894D01*
X295106Y24713D02*
X295894D01*
X320740Y39106D02*
Y39894D01*
X317787Y39106D02*
Y39894D01*
X294606Y41260D02*
X295394D01*
X294606Y44213D02*
X295394D01*
X310760Y-75894D02*
Y-75106D01*
X313713Y-75894D02*
Y-75106D01*
X294606Y35240D02*
X295394D01*
X294606Y32287D02*
X295394D01*
X310740Y39106D02*
Y39894D01*
X307787Y39106D02*
Y39894D01*
X267106Y81060D02*
X267894D01*
X267106Y84013D02*
X267894D01*
X160106Y100260D02*
X160894D01*
X160106Y103213D02*
X160894D01*
X327260Y64406D02*
Y65194D01*
X330213Y64406D02*
Y65194D01*
X238740Y54606D02*
Y55394D01*
X235787Y54606D02*
Y55394D01*
X222260Y-15394D02*
Y-14606D01*
X225213Y-15394D02*
Y-14606D01*
X222260Y606D02*
Y1394D01*
X225213Y606D02*
Y1394D01*
X327260Y50406D02*
Y51194D01*
X330213Y50406D02*
Y51194D01*
X244260Y54606D02*
Y55394D01*
X247213Y54606D02*
Y55394D01*
X101240Y102606D02*
Y103394D01*
X98287Y102606D02*
Y103394D01*
X184760Y-31394D02*
Y-30606D01*
X187713Y-31394D02*
Y-30606D01*
X184760Y-9894D02*
Y-9106D01*
X187713Y-9894D02*
Y-9106D01*
X133000Y-29811D02*
X165618D01*
X133000Y-56189D02*
X165618D01*
X133000D02*
Y-29811D01*
X165618Y-56189D02*
Y-29811D01*
X272106Y26740D02*
X272894D01*
X272106Y23787D02*
X272894D01*
X5260Y-3394D02*
Y-2606D01*
X8213Y-3394D02*
Y-2606D01*
X4760Y14106D02*
Y14894D01*
X7713Y14106D02*
Y14894D01*
X272106Y32260D02*
X272894D01*
X272106Y35213D02*
X272894D01*
X260260Y-31394D02*
Y-30606D01*
X263213Y-31394D02*
Y-30606D01*
X259260Y-8894D02*
Y-8106D01*
X262213Y-8894D02*
Y-8106D01*
X210000Y-29811D02*
X242618D01*
X210000Y-56189D02*
X242618D01*
X210000D02*
Y-29811D01*
X242618Y-56189D02*
Y-29811D01*
X235760Y38606D02*
Y39394D01*
X238713Y38606D02*
Y39394D01*
X26819Y-82850D02*
X29181D01*
X26819Y-89150D02*
X29181D01*
X40756Y12094D02*
Y15342D01*
X39181Y12094D02*
X40756D01*
Y20658D02*
Y23905D01*
X39181D02*
X40756D01*
X146260Y-11894D02*
Y-11106D01*
X149213Y-11894D02*
Y-11106D01*
X146260Y3606D02*
Y4394D01*
X149213Y3606D02*
Y4394D01*
X247240Y38606D02*
Y39394D01*
X244287Y38606D02*
Y39394D01*
X25650Y-60681D02*
Y-58319D01*
X19350Y-60681D02*
Y-58319D01*
X60756Y12094D02*
Y15342D01*
X59181Y12094D02*
X60756D01*
Y20658D02*
Y23905D01*
X59181D02*
X60756D01*
X111623Y59787D02*
Y69846D01*
Y74846D02*
Y85574D01*
X130678Y59787D02*
Y85377D01*
X111623Y85574D02*
X130481D01*
X111623Y59787D02*
X130678D01*
X173123Y58287D02*
Y68346D01*
Y73346D02*
Y84074D01*
X192178Y58287D02*
Y83877D01*
X173123Y84074D02*
X191981D01*
X173123Y58287D02*
X192178D01*
X85123Y59787D02*
Y69846D01*
Y74846D02*
Y85574D01*
X104178Y59787D02*
Y85377D01*
X85123Y85574D02*
X103981D01*
X85123Y59787D02*
X104178D01*
X24377Y74154D02*
Y84213D01*
Y58426D02*
Y69154D01*
X5322Y58623D02*
Y84213D01*
X5519Y58426D02*
X24377D01*
X5322Y84213D02*
X24377D01*
X58123Y59787D02*
Y69846D01*
Y74846D02*
Y85574D01*
X77178Y59787D02*
Y85377D01*
X58123Y85574D02*
X76981D01*
X58123Y59787D02*
X77178D01*
X76606Y120260D02*
X77394D01*
X76606Y123213D02*
X77394D01*
X77606Y109260D02*
X78394D01*
X77606Y112213D02*
X78394D01*
X78106Y176760D02*
X78894D01*
X78106Y179713D02*
X78894D01*
X78106Y186760D02*
X78894D01*
X78106Y189713D02*
X78894D01*
X78606Y163760D02*
X79394D01*
X78606Y166713D02*
X79394D01*
X78606Y150260D02*
X79394D01*
X78606Y153213D02*
X79394D01*
X19504Y-3890D02*
Y-3102D01*
X16551Y-3890D02*
Y-3102D01*
X19740Y14106D02*
Y14894D01*
X16787Y14106D02*
Y14894D01*
X289858Y49871D02*
X297142D01*
X289858Y83729D02*
X297142D01*
Y49871D02*
Y83729D01*
X289858Y49871D02*
Y83729D01*
X50877Y74654D02*
Y84713D01*
Y58926D02*
Y69654D01*
X31822Y59123D02*
Y84713D01*
X32019Y58926D02*
X50877D01*
X31822Y84713D02*
X50877D01*
X141123Y59287D02*
Y69346D01*
Y74346D02*
Y85074D01*
X160178Y59287D02*
Y84877D01*
X141123Y85074D02*
X159981D01*
X141123Y59287D02*
X160178D01*
X303000Y132100D02*
X299851D01*
Y133674D01*
X300376Y134199D01*
X301426D01*
X301951Y133674D01*
Y132100D01*
X299851Y137348D02*
Y135249D01*
X301426D01*
X300901Y136298D01*
Y136823D01*
X301426Y137348D01*
X302475D01*
X303000Y136823D01*
Y135773D01*
X302475Y135249D01*
X257400Y221200D02*
X254645D01*
Y222578D01*
X255104Y223037D01*
X256023D01*
X256482Y222578D01*
Y221200D01*
X257400Y225332D02*
X254645D01*
X256023Y223955D01*
Y225792D01*
X177500Y221000D02*
X174745D01*
Y222377D01*
X175204Y222837D01*
X176122D01*
X176582Y222377D01*
Y221000D01*
X175204Y223755D02*
X174745Y224214D01*
Y225132D01*
X175204Y225592D01*
X175663D01*
X176122Y225132D01*
Y224673D01*
Y225132D01*
X176582Y225592D01*
X177041D01*
X177500Y225132D01*
Y224214D01*
X177041Y223755D01*
X236800Y127100D02*
Y129461D01*
X237981D01*
X238374Y129068D01*
Y128281D01*
X237981Y127887D01*
X236800D01*
X239161Y127100D02*
X239949D01*
X239555D01*
Y129461D01*
X239161Y129068D01*
X241129Y127100D02*
Y127494D01*
X241523D01*
Y127100D01*
X241129D01*
X244672Y129461D02*
X243884Y129068D01*
X243097Y128281D01*
Y127494D01*
X243491Y127100D01*
X244278D01*
X244672Y127494D01*
Y127887D01*
X244278Y128281D01*
X243097D01*
X97400Y127300D02*
Y129661D01*
X98581D01*
X98974Y129268D01*
Y128481D01*
X98581Y128087D01*
X97400D01*
X99761Y129268D02*
X100155Y129661D01*
X100942D01*
X101336Y129268D01*
Y127694D01*
X100942Y127300D01*
X100155D01*
X99761Y127694D01*
Y129268D01*
X102123Y127300D02*
Y127694D01*
X102516D01*
Y127300D01*
X102123D01*
X104091Y129268D02*
X104484Y129661D01*
X105271D01*
X105665Y129268D01*
Y127694D01*
X105271Y127300D01*
X104484D01*
X104091Y127694D01*
Y129268D01*
X107600Y127200D02*
Y129561D01*
X108781D01*
X109174Y129168D01*
Y128381D01*
X108781Y127987D01*
X107600D01*
X109961Y129168D02*
X110355Y129561D01*
X111142D01*
X111536Y129168D01*
Y127594D01*
X111142Y127200D01*
X110355D01*
X109961Y127594D01*
Y129168D01*
X112323Y127200D02*
Y127594D01*
X112716D01*
Y127200D01*
X112323D01*
X114291D02*
X115078D01*
X114684D01*
Y129561D01*
X114291Y129168D01*
X117000Y127300D02*
Y129661D01*
X118181D01*
X118574Y129268D01*
Y128481D01*
X118181Y128087D01*
X117000D01*
X119361Y129268D02*
X119755Y129661D01*
X120542D01*
X120936Y129268D01*
Y127694D01*
X120542Y127300D01*
X119755D01*
X119361Y127694D01*
Y129268D01*
X121723Y127300D02*
Y127694D01*
X122116D01*
Y127300D01*
X121723D01*
X125265D02*
X123691D01*
X125265Y128874D01*
Y129268D01*
X124872Y129661D01*
X124084D01*
X123691Y129268D01*
X127400Y127200D02*
Y129561D01*
X128581D01*
X128974Y129168D01*
Y128381D01*
X128581Y127987D01*
X127400D01*
X129761Y129168D02*
X130155Y129561D01*
X130942D01*
X131336Y129168D01*
Y127594D01*
X130942Y127200D01*
X130155D01*
X129761Y127594D01*
Y129168D01*
X132123Y127200D02*
Y127594D01*
X132517D01*
Y127200D01*
X132123D01*
X134091Y129168D02*
X134484Y129561D01*
X135272D01*
X135665Y129168D01*
Y128774D01*
X135272Y128381D01*
X134878D01*
X135272D01*
X135665Y127987D01*
Y127594D01*
X135272Y127200D01*
X134484D01*
X134091Y127594D01*
X137400Y127200D02*
Y129561D01*
X138581D01*
X138974Y129168D01*
Y128381D01*
X138581Y127987D01*
X137400D01*
X139761Y129168D02*
X140155Y129561D01*
X140942D01*
X141336Y129168D01*
Y127594D01*
X140942Y127200D01*
X140155D01*
X139761Y127594D01*
Y129168D01*
X142123Y127200D02*
Y127594D01*
X142517D01*
Y127200D01*
X142123D01*
X145272D02*
Y129561D01*
X144091Y128381D01*
X145665D01*
X147300Y127100D02*
Y129461D01*
X148481D01*
X148874Y129068D01*
Y128281D01*
X148481Y127887D01*
X147300D01*
X149661Y129068D02*
X150055Y129461D01*
X150842D01*
X151236Y129068D01*
Y127494D01*
X150842Y127100D01*
X150055D01*
X149661Y127494D01*
Y129068D01*
X152023Y127100D02*
Y127494D01*
X152417D01*
Y127100D01*
X152023D01*
X155565Y129461D02*
X153991D01*
Y128281D01*
X154778Y128674D01*
X155172D01*
X155565Y128281D01*
Y127494D01*
X155172Y127100D01*
X154384D01*
X153991Y127494D01*
X157400Y127000D02*
Y129361D01*
X158581D01*
X158974Y128968D01*
Y128181D01*
X158581Y127787D01*
X157400D01*
X159761Y128968D02*
X160155Y129361D01*
X160942D01*
X161336Y128968D01*
Y127394D01*
X160942Y127000D01*
X160155D01*
X159761Y127394D01*
Y128968D01*
X162123Y127000D02*
Y127394D01*
X162516D01*
Y127000D01*
X162123D01*
X165665Y129361D02*
X164878Y128968D01*
X164091Y128181D01*
Y127394D01*
X164484Y127000D01*
X165271D01*
X165665Y127394D01*
Y127787D01*
X165271Y128181D01*
X164091D01*
X167700Y127000D02*
Y129361D01*
X168881D01*
X169274Y128968D01*
Y128181D01*
X168881Y127787D01*
X167700D01*
X170061Y128968D02*
X170455Y129361D01*
X171242D01*
X171636Y128968D01*
Y127394D01*
X171242Y127000D01*
X170455D01*
X170061Y127394D01*
Y128968D01*
X172423Y127000D02*
Y127394D01*
X172817D01*
Y127000D01*
X172423D01*
X174391Y129361D02*
X175965D01*
Y128968D01*
X174391Y127394D01*
Y127000D01*
X187000Y127200D02*
Y129561D01*
X188181D01*
X188574Y129168D01*
Y128381D01*
X188181Y127987D01*
X187000D01*
X189361Y127200D02*
X190149D01*
X189755D01*
Y129561D01*
X189361Y129168D01*
X191329Y127200D02*
Y127594D01*
X191723D01*
Y127200D01*
X191329D01*
X193297D02*
X194084D01*
X193691D01*
Y129561D01*
X193297Y129168D01*
X197700Y127200D02*
Y129561D01*
X198881D01*
X199274Y129168D01*
Y128381D01*
X198881Y127987D01*
X197700D01*
X200061Y127200D02*
X200849D01*
X200455D01*
Y129561D01*
X200061Y129168D01*
X202029Y127200D02*
Y127594D01*
X202423D01*
Y127200D01*
X202029D01*
X205572D02*
X203997D01*
X205572Y128774D01*
Y129168D01*
X205178Y129561D01*
X204391D01*
X203997Y129168D01*
X207100Y127200D02*
Y129561D01*
X208281D01*
X208674Y129168D01*
Y128381D01*
X208281Y127987D01*
X207100D01*
X209461Y127200D02*
X210249D01*
X209855D01*
Y129561D01*
X209461Y129168D01*
X211429Y127200D02*
Y127594D01*
X211823D01*
Y127200D01*
X211429D01*
X213397Y129168D02*
X213791Y129561D01*
X214578D01*
X214971Y129168D01*
Y128774D01*
X214578Y128381D01*
X214184D01*
X214578D01*
X214971Y127987D01*
Y127594D01*
X214578Y127200D01*
X213791D01*
X213397Y127594D01*
X217100Y127100D02*
Y129461D01*
X218281D01*
X218674Y129068D01*
Y128281D01*
X218281Y127887D01*
X217100D01*
X219461Y127100D02*
X220249D01*
X219855D01*
Y129461D01*
X219461Y129068D01*
X221429Y127100D02*
Y127494D01*
X221823D01*
Y127100D01*
X221429D01*
X224578D02*
Y129461D01*
X223397Y128281D01*
X224972D01*
X226900Y127100D02*
Y129461D01*
X228081D01*
X228474Y129068D01*
Y128281D01*
X228081Y127887D01*
X226900D01*
X229261Y127100D02*
X230049D01*
X229655D01*
Y129461D01*
X229261Y129068D01*
X231229Y127100D02*
Y127494D01*
X231623D01*
Y127100D01*
X231229D01*
X234771Y129461D02*
X233197D01*
Y128281D01*
X233984Y128674D01*
X234378D01*
X234771Y128281D01*
Y127494D01*
X234378Y127100D01*
X233591D01*
X233197Y127494D01*
X247100Y127100D02*
Y129461D01*
X248281D01*
X248674Y129068D01*
Y128281D01*
X248281Y127887D01*
X247100D01*
X249461Y127100D02*
X250249D01*
X249855D01*
Y129461D01*
X249461Y129068D01*
X251429Y127100D02*
Y127494D01*
X251823D01*
Y127100D01*
X251429D01*
X253397Y129461D02*
X254972D01*
Y129068D01*
X253397Y127494D01*
Y127100D01*
X286700D02*
Y129461D01*
X287881D01*
X288274Y129068D01*
Y128281D01*
X287881Y127887D01*
X286700D01*
X290242Y127100D02*
Y129461D01*
X289061Y128281D01*
X290636D01*
X291423Y127100D02*
Y127494D01*
X291816D01*
Y127100D01*
X291423D01*
X293391Y129461D02*
X294965D01*
Y129068D01*
X293391Y127494D01*
Y127100D01*
X296900Y127200D02*
Y129561D01*
X298081D01*
X298474Y129168D01*
Y128381D01*
X298081Y127987D01*
X296900D01*
X300836Y129561D02*
X299261D01*
Y128381D01*
X300049Y128774D01*
X300442D01*
X300836Y128381D01*
Y127594D01*
X300442Y127200D01*
X299655D01*
X299261Y127594D01*
X301623Y127200D02*
Y127594D01*
X302016D01*
Y127200D01*
X301623D01*
X305165Y129561D02*
X303591D01*
Y128381D01*
X304378Y128774D01*
X304771D01*
X305165Y128381D01*
Y127594D01*
X304771Y127200D01*
X303984D01*
X303591Y127594D01*
X257300Y121000D02*
X254545D01*
Y122378D01*
X255004Y122837D01*
X255923D01*
X256382Y122378D01*
Y121000D01*
X257300Y125133D02*
X254545D01*
X255923Y123755D01*
Y125592D01*
X177400Y122000D02*
X174645D01*
Y123378D01*
X175104Y123837D01*
X176023D01*
X176482Y123378D01*
Y122000D01*
X177400Y124755D02*
Y125673D01*
Y125214D01*
X174645D01*
X175104Y124755D01*
X94500Y121400D02*
X91745D01*
Y122777D01*
X92204Y123237D01*
X93123D01*
X93582Y122777D01*
Y121400D01*
X92204Y124155D02*
X91745Y124614D01*
Y125532D01*
X92204Y125992D01*
X94041D01*
X94500Y125532D01*
Y124614D01*
X94041Y124155D01*
X92204D01*
X276700Y127200D02*
Y129561D01*
X277881D01*
X278274Y129168D01*
Y128381D01*
X277881Y127987D01*
X276700D01*
X280242Y127200D02*
Y129561D01*
X279061Y128381D01*
X280636D01*
X281423Y127200D02*
Y127594D01*
X281816D01*
Y127200D01*
X281423D01*
X284965Y129561D02*
X284178Y129168D01*
X283391Y128381D01*
Y127594D01*
X283784Y127200D01*
X284572D01*
X284965Y127594D01*
Y127987D01*
X284572Y128381D01*
X283391D01*
X266800Y127100D02*
Y129461D01*
X267981D01*
X268374Y129068D01*
Y128281D01*
X267981Y127887D01*
X266800D01*
X270342Y127100D02*
Y129461D01*
X269161Y128281D01*
X270736D01*
X271523Y127100D02*
Y127494D01*
X271916D01*
Y127100D01*
X271523D01*
X275065Y129461D02*
X273491D01*
Y128281D01*
X274278Y128674D01*
X274672D01*
X275065Y128281D01*
Y127494D01*
X274672Y127100D01*
X273884D01*
X273491Y127494D01*
X177100Y127100D02*
Y129461D01*
X178281D01*
X178674Y129068D01*
Y128281D01*
X178281Y127887D01*
X177100D01*
X179461Y127100D02*
X180249D01*
X179855D01*
Y129461D01*
X179461Y129068D01*
X181429Y127100D02*
Y127494D01*
X181823D01*
Y127100D01*
X181429D01*
X183397Y129068D02*
X183791Y129461D01*
X184578D01*
X184971Y129068D01*
Y127494D01*
X184578Y127100D01*
X183791D01*
X183397Y127494D01*
Y129068D01*
X257300Y127200D02*
Y129561D01*
X258481D01*
X258874Y129168D01*
Y128381D01*
X258481Y127987D01*
X257300D01*
X260842Y127200D02*
Y129561D01*
X259661Y128381D01*
X261236D01*
X262023Y127200D02*
Y127594D01*
X262416D01*
Y127200D01*
X262023D01*
X265172D02*
Y129561D01*
X263991Y128381D01*
X265565D01*
X303000Y132100D02*
X299851D01*
Y133674D01*
X300376Y134199D01*
X301426D01*
X301951Y133674D01*
Y132100D01*
X299851Y137348D02*
Y135249D01*
X301426D01*
X300901Y136298D01*
Y136823D01*
X301426Y137348D01*
X302475D01*
X303000Y136823D01*
Y135773D01*
X302475Y135249D01*
X137000Y139600D02*
Y141961D01*
X138181D01*
X138574Y141568D01*
Y140781D01*
X138181Y140387D01*
X137000D01*
X139361Y141568D02*
X139755Y141961D01*
X140542D01*
X140936Y141568D01*
Y141174D01*
X140542Y140781D01*
X140149D01*
X140542D01*
X140936Y140387D01*
Y139994D01*
X140542Y139600D01*
X139755D01*
X139361Y139994D01*
X141723Y139600D02*
Y139994D01*
X142116D01*
Y139600D01*
X141723D01*
X145265Y141961D02*
X144478Y141568D01*
X143691Y140781D01*
Y139994D01*
X144084Y139600D01*
X144871D01*
X145265Y139994D01*
Y140387D01*
X144871Y140781D01*
X143691D01*
X289674Y141568D02*
X289281Y141961D01*
X288494D01*
X288100Y141568D01*
Y139994D01*
X288494Y139600D01*
X289281D01*
X289674Y139994D01*
Y140781D01*
X288887D01*
X290461Y139600D02*
Y141961D01*
X292036Y139600D01*
Y141961D01*
X292823D02*
Y139600D01*
X294004D01*
X294397Y139994D01*
Y141568D01*
X294004Y141961D01*
X292823D01*
X278400D02*
Y140387D01*
X279187Y139600D01*
X279974Y140387D01*
Y141961D01*
X282336Y141568D02*
X281942Y141961D01*
X281155D01*
X280761Y141568D01*
Y139994D01*
X281155Y139600D01*
X281942D01*
X282336Y139994D01*
X284697Y141568D02*
X284304Y141961D01*
X283516D01*
X283123Y141568D01*
Y139994D01*
X283516Y139600D01*
X284304D01*
X284697Y139994D01*
X267400Y139600D02*
Y141961D01*
X268581D01*
X268974Y141568D01*
Y140781D01*
X268581Y140387D01*
X267400D01*
X270942Y139600D02*
Y141961D01*
X269761Y140781D01*
X271336D01*
X272123Y139600D02*
Y139994D01*
X272516D01*
Y139600D01*
X272123D01*
X274091Y141961D02*
X275665D01*
Y141568D01*
X274091Y139994D01*
Y139600D01*
X126900D02*
Y141961D01*
X128081D01*
X128474Y141568D01*
Y140781D01*
X128081Y140387D01*
X126900D01*
X129261Y141568D02*
X129655Y141961D01*
X130442D01*
X130836Y141568D01*
Y141174D01*
X130442Y140781D01*
X130049D01*
X130442D01*
X130836Y140387D01*
Y139994D01*
X130442Y139600D01*
X129655D01*
X129261Y139994D01*
X131623Y139600D02*
Y139994D01*
X132017D01*
Y139600D01*
X131623D01*
X135165Y141961D02*
X133591D01*
Y140781D01*
X134378Y141174D01*
X134772D01*
X135165Y140781D01*
Y139994D01*
X134772Y139600D01*
X133984D01*
X133591Y139994D01*
X147800Y139600D02*
Y141961D01*
X148981D01*
X149374Y141568D01*
Y140781D01*
X148981Y140387D01*
X147800D01*
X150161Y141568D02*
X150555Y141961D01*
X151342D01*
X151736Y141568D01*
Y141174D01*
X151342Y140781D01*
X150949D01*
X151342D01*
X151736Y140387D01*
Y139994D01*
X151342Y139600D01*
X150555D01*
X150161Y139994D01*
X152523Y139600D02*
Y139994D01*
X152917D01*
Y139600D01*
X152523D01*
X154491Y141961D02*
X156065D01*
Y141568D01*
X154491Y139994D01*
Y139600D01*
X257200D02*
Y141961D01*
X258381D01*
X258774Y141568D01*
Y140781D01*
X258381Y140387D01*
X257200D01*
X260742Y139600D02*
Y141961D01*
X259561Y140781D01*
X261136D01*
X261923Y139600D02*
Y139994D01*
X262316D01*
Y139600D01*
X261923D01*
X265465Y141961D02*
X264678Y141568D01*
X263891Y140781D01*
Y139994D01*
X264284Y139600D01*
X265072D01*
X265465Y139994D01*
Y140387D01*
X265072Y140781D01*
X263891D01*
X249774Y141568D02*
X249381Y141961D01*
X248594D01*
X248200Y141568D01*
Y139994D01*
X248594Y139600D01*
X249381D01*
X249774Y139994D01*
Y140781D01*
X248987D01*
X250561Y139600D02*
Y141961D01*
X252136Y139600D01*
Y141961D01*
X252923D02*
Y139600D01*
X254104D01*
X254497Y139994D01*
Y141568D01*
X254104Y141961D01*
X252923D01*
X99974Y141568D02*
X99581Y141961D01*
X98794D01*
X98400Y141568D01*
Y139994D01*
X98794Y139600D01*
X99581D01*
X99974Y139994D01*
Y140781D01*
X99187D01*
X100761Y139600D02*
Y141961D01*
X102336Y139600D01*
Y141961D01*
X103123D02*
Y139600D01*
X104304D01*
X104697Y139994D01*
Y141568D01*
X104304Y141961D01*
X103123D01*
X108300D02*
Y140387D01*
X109087Y139600D01*
X109874Y140387D01*
Y141961D01*
X112236Y141568D02*
X111842Y141961D01*
X111055D01*
X110661Y141568D01*
Y139994D01*
X111055Y139600D01*
X111842D01*
X112236Y139994D01*
X114597Y141568D02*
X114204Y141961D01*
X113417D01*
X113023Y141568D01*
Y139994D01*
X113417Y139600D01*
X114204D01*
X114597Y139994D01*
X238200Y141961D02*
Y140387D01*
X238987Y139600D01*
X239774Y140387D01*
Y141961D01*
X242136Y141568D02*
X241742Y141961D01*
X240955D01*
X240561Y141568D01*
Y139994D01*
X240955Y139600D01*
X241742D01*
X242136Y139994D01*
X244497Y141568D02*
X244104Y141961D01*
X243316D01*
X242923Y141568D01*
Y139994D01*
X243316Y139600D01*
X244104D01*
X244497Y139994D01*
X157700Y139600D02*
Y141961D01*
X158881D01*
X159274Y141568D01*
Y140781D01*
X158881Y140387D01*
X157700D01*
X160061Y141568D02*
X160455Y141961D01*
X161242D01*
X161636Y141568D01*
Y139994D01*
X161242Y139600D01*
X160455D01*
X160061Y139994D01*
Y141568D01*
X162423Y139600D02*
Y139994D01*
X162817D01*
Y139600D01*
X162423D01*
X164391Y141568D02*
X164784Y141961D01*
X165571D01*
X165965Y141568D01*
Y139994D01*
X165571Y139600D01*
X164784D01*
X164391Y139994D01*
Y141568D01*
X177300Y139600D02*
Y141961D01*
X178481D01*
X178874Y141568D01*
Y140781D01*
X178481Y140387D01*
X177300D01*
X179661Y141568D02*
X180055Y141961D01*
X180842D01*
X181236Y141568D01*
Y139994D01*
X180842Y139600D01*
X180055D01*
X179661Y139994D01*
Y141568D01*
X182023Y139600D02*
Y139994D01*
X182416D01*
Y139600D01*
X182023D01*
X185565D02*
X183991D01*
X185565Y141174D01*
Y141568D01*
X185171Y141961D01*
X184384D01*
X183991Y141568D01*
X187700Y139600D02*
Y141961D01*
X188881D01*
X189274Y141568D01*
Y140781D01*
X188881Y140387D01*
X187700D01*
X190061Y141568D02*
X190455Y141961D01*
X191242D01*
X191636Y141568D01*
Y139994D01*
X191242Y139600D01*
X190455D01*
X190061Y139994D01*
Y141568D01*
X192423Y139600D02*
Y139994D01*
X192816D01*
Y139600D01*
X192423D01*
X194391Y141568D02*
X194784Y141961D01*
X195571D01*
X195965Y141568D01*
Y141174D01*
X195571Y140781D01*
X195178D01*
X195571D01*
X195965Y140387D01*
Y139994D01*
X195571Y139600D01*
X194784D01*
X194391Y139994D01*
X197400Y139600D02*
Y141961D01*
X198581D01*
X198974Y141568D01*
Y140781D01*
X198581Y140387D01*
X197400D01*
X199761Y141568D02*
X200155Y141961D01*
X200942D01*
X201336Y141568D01*
Y139994D01*
X200942Y139600D01*
X200155D01*
X199761Y139994D01*
Y141568D01*
X202123Y139600D02*
Y139994D01*
X202517D01*
Y139600D01*
X202123D01*
X205272D02*
Y141961D01*
X204091Y140781D01*
X205665D01*
X207500Y139600D02*
Y141961D01*
X208681D01*
X209074Y141568D01*
Y140781D01*
X208681Y140387D01*
X207500D01*
X209861Y141568D02*
X210255Y141961D01*
X211042D01*
X211436Y141568D01*
Y139994D01*
X211042Y139600D01*
X210255D01*
X209861Y139994D01*
Y141568D01*
X212223Y139600D02*
Y139994D01*
X212616D01*
Y139600D01*
X212223D01*
X215765Y141961D02*
X214191D01*
Y140781D01*
X214978Y141174D01*
X215371D01*
X215765Y140781D01*
Y139994D01*
X215371Y139600D01*
X214584D01*
X214191Y139994D01*
X217500Y139600D02*
Y141961D01*
X218681D01*
X219074Y141568D01*
Y140781D01*
X218681Y140387D01*
X217500D01*
X219861Y141568D02*
X220255Y141961D01*
X221042D01*
X221436Y141568D01*
Y139994D01*
X221042Y139600D01*
X220255D01*
X219861Y139994D01*
Y141568D01*
X222223Y139600D02*
Y139994D01*
X222616D01*
Y139600D01*
X222223D01*
X225765Y141961D02*
X224978Y141568D01*
X224191Y140781D01*
Y139994D01*
X224584Y139600D01*
X225372D01*
X225765Y139994D01*
Y140387D01*
X225372Y140781D01*
X224191D01*
X227700Y139600D02*
Y141961D01*
X228881D01*
X229274Y141568D01*
Y140781D01*
X228881Y140387D01*
X227700D01*
X230061Y141568D02*
X230455Y141961D01*
X231242D01*
X231636Y141568D01*
Y139994D01*
X231242Y139600D01*
X230455D01*
X230061Y139994D01*
Y141568D01*
X232423Y139600D02*
Y139994D01*
X232816D01*
Y139600D01*
X232423D01*
X234391Y141961D02*
X235965D01*
Y141568D01*
X234391Y139994D01*
Y139600D01*
X167800D02*
Y141961D01*
X168981D01*
X169374Y141568D01*
Y140781D01*
X168981Y140387D01*
X167800D01*
X170161Y141568D02*
X170555Y141961D01*
X171342D01*
X171736Y141568D01*
Y139994D01*
X171342Y139600D01*
X170555D01*
X170161Y139994D01*
Y141568D01*
X172523Y139600D02*
Y139994D01*
X172916D01*
Y139600D01*
X172523D01*
X174491D02*
X175278D01*
X174884D01*
Y141961D01*
X174491Y141568D01*
X257400Y221200D02*
X254645D01*
Y222578D01*
X255104Y223037D01*
X256023D01*
X256482Y222578D01*
Y221200D01*
X257400Y225332D02*
X254645D01*
X256023Y223955D01*
Y225792D01*
X177500Y221000D02*
X174745D01*
Y222377D01*
X175204Y222837D01*
X176122D01*
X176582Y222377D01*
Y221000D01*
X175204Y223755D02*
X174745Y224214D01*
Y225132D01*
X175204Y225592D01*
X175663D01*
X176122Y225132D01*
Y224673D01*
Y225132D01*
X176582Y225592D01*
X177041D01*
X177500Y225132D01*
Y224214D01*
X177041Y223755D01*
X285000Y218400D02*
Y216039D01*
X283819D01*
X283426Y216432D01*
Y217219D01*
X283819Y217613D01*
X285000D01*
X281458Y218400D02*
Y216039D01*
X282639Y217219D01*
X281064D01*
X280277Y218400D02*
Y218006D01*
X279884D01*
Y218400D01*
X280277D01*
X276735D02*
X278309D01*
X276735Y216826D01*
Y216432D01*
X277129Y216039D01*
X277916D01*
X278309Y216432D01*
X185000Y218100D02*
Y215739D01*
X183819D01*
X183426Y216132D01*
Y216919D01*
X183819Y217313D01*
X185000D01*
X182639Y216132D02*
X182245Y215739D01*
X181458D01*
X181064Y216132D01*
Y216526D01*
X181458Y216919D01*
X181851D01*
X181458D01*
X181064Y217313D01*
Y217706D01*
X181458Y218100D01*
X182245D01*
X182639Y217706D01*
X180277Y218100D02*
Y217706D01*
X179884D01*
Y218100D01*
X180277D01*
X178309Y216132D02*
X177916Y215739D01*
X177129D01*
X176735Y216132D01*
Y217706D01*
X177129Y218100D01*
X177916D01*
X178309Y217706D01*
Y216132D01*
X134900Y218400D02*
Y216039D01*
X133719D01*
X133326Y216432D01*
Y217219D01*
X133719Y217613D01*
X134900D01*
X130964Y218400D02*
X132539D01*
X130964Y216826D01*
Y216432D01*
X131358Y216039D01*
X132145D01*
X132539Y216432D01*
X130177Y218400D02*
Y218006D01*
X129783D01*
Y218400D01*
X130177D01*
X127029D02*
Y216039D01*
X128209Y217219D01*
X126635D01*
X155000Y218400D02*
Y216039D01*
X153819D01*
X153426Y216432D01*
Y217219D01*
X153819Y217613D01*
X155000D01*
X151064Y218400D02*
X152639D01*
X151064Y216826D01*
Y216432D01*
X151458Y216039D01*
X152245D01*
X152639Y216432D01*
X150277Y218400D02*
Y218006D01*
X149883D01*
Y218400D01*
X150277D01*
X146735D02*
X148309D01*
X146735Y216826D01*
Y216432D01*
X147128Y216039D01*
X147916D01*
X148309Y216432D01*
X144800Y218300D02*
Y215939D01*
X143619D01*
X143226Y216332D01*
Y217119D01*
X143619Y217513D01*
X144800D01*
X140864Y218300D02*
X142439D01*
X140864Y216726D01*
Y216332D01*
X141258Y215939D01*
X142045D01*
X142439Y216332D01*
X140077Y218300D02*
Y217906D01*
X139683D01*
Y218300D01*
X140077D01*
X138109Y216332D02*
X137716Y215939D01*
X136928D01*
X136535Y216332D01*
Y216726D01*
X136928Y217119D01*
X137322D01*
X136928D01*
X136535Y217513D01*
Y217906D01*
X136928Y218300D01*
X137716D01*
X138109Y217906D01*
X205000Y218400D02*
Y216039D01*
X203819D01*
X203426Y216432D01*
Y217219D01*
X203819Y217613D01*
X205000D01*
X202639Y216432D02*
X202245Y216039D01*
X201458D01*
X201064Y216432D01*
Y216826D01*
X201458Y217219D01*
X201851D01*
X201458D01*
X201064Y217613D01*
Y218006D01*
X201458Y218400D01*
X202245D01*
X202639Y218006D01*
X200277Y218400D02*
Y218006D01*
X199883D01*
Y218400D01*
X200277D01*
X196735D02*
X198309D01*
X196735Y216826D01*
Y216432D01*
X197128Y216039D01*
X197916D01*
X198309Y216432D01*
X257300Y221200D02*
X254545D01*
Y222578D01*
X255004Y223037D01*
X255923D01*
X256382Y222578D01*
Y221200D01*
X257300Y225332D02*
X254545D01*
X255923Y223955D01*
Y225792D01*
X177400Y221000D02*
X174645D01*
Y222377D01*
X175104Y222837D01*
X176023D01*
X176482Y222377D01*
Y221000D01*
X175104Y223755D02*
X174645Y224214D01*
Y225132D01*
X175104Y225592D01*
X175563D01*
X176023Y225132D01*
Y224673D01*
Y225132D01*
X176482Y225592D01*
X176941D01*
X177400Y225132D01*
Y224214D01*
X176941Y223755D01*
X174700Y218200D02*
Y215839D01*
X173519D01*
X173126Y216232D01*
Y217019D01*
X173519Y217413D01*
X174700D01*
X170764Y218200D02*
X172339D01*
X170764Y216626D01*
Y216232D01*
X171158Y215839D01*
X171945D01*
X172339Y216232D01*
X169977Y218200D02*
Y217806D01*
X169583D01*
Y218200D01*
X169977D01*
X168009Y216232D02*
X167616Y215839D01*
X166829D01*
X166435Y216232D01*
Y217806D01*
X166829Y218200D01*
X167616D01*
X168009Y217806D01*
Y216232D01*
X164700Y218200D02*
Y215839D01*
X163519D01*
X163126Y216232D01*
Y217019D01*
X163519Y217413D01*
X164700D01*
X160764Y218200D02*
X162339D01*
X160764Y216626D01*
Y216232D01*
X161158Y215839D01*
X161945D01*
X162339Y216232D01*
X159977Y218200D02*
Y217806D01*
X159583D01*
Y218200D01*
X159977D01*
X158009D02*
X157222D01*
X157616D01*
Y215839D01*
X158009Y216232D01*
X124600Y218400D02*
Y216039D01*
X123419D01*
X123026Y216432D01*
Y217219D01*
X123419Y217613D01*
X124600D01*
X120664Y218400D02*
X122239D01*
X120664Y216826D01*
Y216432D01*
X121058Y216039D01*
X121845D01*
X122239Y216432D01*
X119877Y218400D02*
Y218006D01*
X119483D01*
Y218400D01*
X119877D01*
X116335Y216039D02*
X117909D01*
Y217219D01*
X117122Y216826D01*
X116728D01*
X116335Y217219D01*
Y218006D01*
X116728Y218400D01*
X117516D01*
X117909Y218006D01*
X114400Y218400D02*
Y216039D01*
X113219D01*
X112826Y216432D01*
Y217219D01*
X113219Y217613D01*
X114400D01*
X110464Y218400D02*
X112039D01*
X110464Y216826D01*
Y216432D01*
X110858Y216039D01*
X111645D01*
X112039Y216432D01*
X109677Y218400D02*
Y218006D01*
X109283D01*
Y218400D01*
X109677D01*
X106135Y216039D02*
X106922Y216432D01*
X107709Y217219D01*
Y218006D01*
X107316Y218400D01*
X106528D01*
X106135Y218006D01*
Y217613D01*
X106528Y217219D01*
X107709D01*
X104700Y218400D02*
Y216039D01*
X103519D01*
X103126Y216432D01*
Y217219D01*
X103519Y217613D01*
X104700D01*
X100764Y218400D02*
X102339D01*
X100764Y216826D01*
Y216432D01*
X101158Y216039D01*
X101945D01*
X102339Y216432D01*
X99977Y218400D02*
Y218006D01*
X99584D01*
Y218400D01*
X99977D01*
X98009Y216039D02*
X96435D01*
Y216432D01*
X98009Y218006D01*
Y218400D01*
X194400Y218300D02*
Y215939D01*
X193219D01*
X192826Y216332D01*
Y217119D01*
X193219Y217513D01*
X194400D01*
X192039Y216332D02*
X191645Y215939D01*
X190858D01*
X190464Y216332D01*
Y216726D01*
X190858Y217119D01*
X191251D01*
X190858D01*
X190464Y217513D01*
Y217906D01*
X190858Y218300D01*
X191645D01*
X192039Y217906D01*
X189677Y218300D02*
Y217906D01*
X189284D01*
Y218300D01*
X189677D01*
X187709D02*
X186922D01*
X187316D01*
Y215939D01*
X187709Y216332D01*
X214900Y218400D02*
Y216039D01*
X213719D01*
X213326Y216432D01*
Y217219D01*
X213719Y217613D01*
X214900D01*
X212539Y216432D02*
X212145Y216039D01*
X211358D01*
X210964Y216432D01*
Y216826D01*
X211358Y217219D01*
X211751D01*
X211358D01*
X210964Y217613D01*
Y218006D01*
X211358Y218400D01*
X212145D01*
X212539Y218006D01*
X210177Y218400D02*
Y218006D01*
X209784D01*
Y218400D01*
X210177D01*
X208209Y216432D02*
X207816Y216039D01*
X207029D01*
X206635Y216432D01*
Y216826D01*
X207029Y217219D01*
X207422D01*
X207029D01*
X206635Y217613D01*
Y218006D01*
X207029Y218400D01*
X207816D01*
X208209Y218006D01*
X224900Y218400D02*
Y216039D01*
X223719D01*
X223326Y216432D01*
Y217219D01*
X223719Y217613D01*
X224900D01*
X222539Y216432D02*
X222145Y216039D01*
X221358D01*
X220964Y216432D01*
Y216826D01*
X221358Y217219D01*
X221751D01*
X221358D01*
X220964Y217613D01*
Y218006D01*
X221358Y218400D01*
X222145D01*
X222539Y218006D01*
X220177Y218400D02*
Y218006D01*
X219784D01*
Y218400D01*
X220177D01*
X217028D02*
Y216039D01*
X218209Y217219D01*
X216635D01*
X234900Y218400D02*
Y216039D01*
X233719D01*
X233326Y216432D01*
Y217219D01*
X233719Y217613D01*
X234900D01*
X232539Y216432D02*
X232145Y216039D01*
X231358D01*
X230964Y216432D01*
Y216826D01*
X231358Y217219D01*
X231751D01*
X231358D01*
X230964Y217613D01*
Y218006D01*
X231358Y218400D01*
X232145D01*
X232539Y218006D01*
X230177Y218400D02*
Y218006D01*
X229784D01*
Y218400D01*
X230177D01*
X226635Y216039D02*
X228209D01*
Y217219D01*
X227422Y216826D01*
X227028D01*
X226635Y217219D01*
Y218006D01*
X227028Y218400D01*
X227816D01*
X228209Y218006D01*
X245000Y218400D02*
Y216039D01*
X243819D01*
X243426Y216432D01*
Y217219D01*
X243819Y217613D01*
X245000D01*
X242639Y216432D02*
X242245Y216039D01*
X241458D01*
X241064Y216432D01*
Y216826D01*
X241458Y217219D01*
X241851D01*
X241458D01*
X241064Y217613D01*
Y218006D01*
X241458Y218400D01*
X242245D01*
X242639Y218006D01*
X240277Y218400D02*
Y218006D01*
X239884D01*
Y218400D01*
X240277D01*
X236735Y216039D02*
X237522Y216432D01*
X238309Y217219D01*
Y218006D01*
X237916Y218400D01*
X237128D01*
X236735Y218006D01*
Y217613D01*
X237128Y217219D01*
X238309D01*
X254700Y218400D02*
Y216039D01*
X253519D01*
X253126Y216432D01*
Y217219D01*
X253519Y217613D01*
X254700D01*
X252339Y216432D02*
X251945Y216039D01*
X251158D01*
X250764Y216432D01*
Y216826D01*
X251158Y217219D01*
X251551D01*
X251158D01*
X250764Y217613D01*
Y218006D01*
X251158Y218400D01*
X251945D01*
X252339Y218006D01*
X249977Y218400D02*
Y218006D01*
X249584D01*
Y218400D01*
X249977D01*
X248009Y216039D02*
X246435D01*
Y216432D01*
X248009Y218006D01*
Y218400D01*
X265100D02*
Y216039D01*
X263919D01*
X263526Y216432D01*
Y217219D01*
X263919Y217613D01*
X265100D01*
X261558Y218400D02*
Y216039D01*
X262739Y217219D01*
X261164D01*
X260377Y218400D02*
Y218006D01*
X259984D01*
Y218400D01*
X260377D01*
X258409Y216432D02*
X258016Y216039D01*
X257228D01*
X256835Y216432D01*
Y218006D01*
X257228Y218400D01*
X258016D01*
X258409Y218006D01*
Y216432D01*
X274900Y218500D02*
Y216139D01*
X273719D01*
X273326Y216532D01*
Y217319D01*
X273719Y217713D01*
X274900D01*
X271358Y218500D02*
Y216139D01*
X272539Y217319D01*
X270964D01*
X270177Y218500D02*
Y218106D01*
X269784D01*
Y218500D01*
X270177D01*
X268209D02*
X267422D01*
X267816D01*
Y216139D01*
X268209Y216532D01*
X295100Y218400D02*
Y216039D01*
X293919D01*
X293526Y216432D01*
Y217219D01*
X293919Y217613D01*
X295100D01*
X291558Y218400D02*
Y216039D01*
X292739Y217219D01*
X291164D01*
X290377Y218400D02*
Y218006D01*
X289984D01*
Y218400D01*
X290377D01*
X288409Y216432D02*
X288016Y216039D01*
X287228D01*
X286835Y216432D01*
Y216826D01*
X287228Y217219D01*
X287622D01*
X287228D01*
X286835Y217613D01*
Y218006D01*
X287228Y218400D01*
X288016D01*
X288409Y218006D01*
X305200Y218400D02*
Y216039D01*
X304019D01*
X303626Y216432D01*
Y217219D01*
X304019Y217613D01*
X305200D01*
X301264Y216039D02*
X302839D01*
Y217219D01*
X302051Y216826D01*
X301658D01*
X301264Y217219D01*
Y218006D01*
X301658Y218400D01*
X302445D01*
X302839Y218006D01*
X300477Y218400D02*
Y218006D01*
X300084D01*
Y218400D01*
X300477D01*
X297328D02*
Y216039D01*
X298509Y217219D01*
X296935D01*
D13*
X294976Y79792D02*
G03*
X294976Y79792I-1181J0D01*
G01*
D14*
X76028Y-98750D02*
D03*
M02*
