G04*
G04 #@! TF.GenerationSoftware,Altium Limited,Altium Designer,18.0.12 (696)*
G04*
G04 Layer_Physical_Order=2*
G04 Layer_Color=16711680*
%FSLAX25Y25*%
%MOIN*%
G70*
G01*
G75*
%ADD20C,0.01968*%
%ADD21C,0.11811*%
G04:AMPARAMS|DCode=22|XSize=55.12mil|YSize=47.24mil|CornerRadius=11.81mil|HoleSize=0mil|Usage=FLASHONLY|Rotation=45.000|XOffset=0mil|YOffset=0mil|HoleType=Round|Shape=RoundedRectangle|*
%AMROUNDEDRECTD22*
21,1,0.05512,0.02362,0,0,45.0*
21,1,0.03150,0.04724,0,0,45.0*
1,1,0.02362,0.01949,0.00278*
1,1,0.02362,-0.00278,-0.01949*
1,1,0.02362,-0.01949,-0.00278*
1,1,0.02362,0.00278,0.01949*
%
%ADD22ROUNDEDRECTD22*%
G04:AMPARAMS|DCode=23|XSize=59.06mil|YSize=31.5mil|CornerRadius=0mil|HoleSize=0mil|Usage=FLASHONLY|Rotation=45.000|XOffset=0mil|YOffset=0mil|HoleType=Round|Shape=Round|*
%AMOVALD23*
21,1,0.02756,0.03150,0.00000,0.00000,45.0*
1,1,0.03150,-0.00974,-0.00974*
1,1,0.03150,0.00974,0.00974*
%
%ADD23OVALD23*%

G04:AMPARAMS|DCode=24|XSize=55.12mil|YSize=47.24mil|CornerRadius=11.81mil|HoleSize=0mil|Usage=FLASHONLY|Rotation=135.000|XOffset=0mil|YOffset=0mil|HoleType=Round|Shape=RoundedRectangle|*
%AMROUNDEDRECTD24*
21,1,0.05512,0.02362,0,0,135.0*
21,1,0.03150,0.04724,0,0,135.0*
1,1,0.02362,-0.00278,0.01949*
1,1,0.02362,0.01949,-0.00278*
1,1,0.02362,0.00278,-0.01949*
1,1,0.02362,-0.01949,0.00278*
%
%ADD24ROUNDEDRECTD24*%
G04:AMPARAMS|DCode=25|XSize=59.06mil|YSize=31.5mil|CornerRadius=0mil|HoleSize=0mil|Usage=FLASHONLY|Rotation=135.000|XOffset=0mil|YOffset=0mil|HoleType=Round|Shape=Round|*
%AMOVALD25*
21,1,0.02756,0.03150,0.00000,0.00000,135.0*
1,1,0.03150,0.00974,-0.00974*
1,1,0.03150,-0.00974,0.00974*
%
%ADD25OVALD25*%

G04:AMPARAMS|DCode=26|XSize=55.12mil|YSize=47.24mil|CornerRadius=11.81mil|HoleSize=0mil|Usage=FLASHONLY|Rotation=90.000|XOffset=0mil|YOffset=0mil|HoleType=Round|Shape=RoundedRectangle|*
%AMROUNDEDRECTD26*
21,1,0.05512,0.02362,0,0,90.0*
21,1,0.03150,0.04724,0,0,90.0*
1,1,0.02362,0.01181,0.01575*
1,1,0.02362,0.01181,-0.01575*
1,1,0.02362,-0.01181,-0.01575*
1,1,0.02362,-0.01181,0.01575*
%
%ADD26ROUNDEDRECTD26*%
%ADD27O,0.03150X0.05906*%
G04:AMPARAMS|DCode=28|XSize=55.12mil|YSize=47.24mil|CornerRadius=11.81mil|HoleSize=0mil|Usage=FLASHONLY|Rotation=180.000|XOffset=0mil|YOffset=0mil|HoleType=Round|Shape=RoundedRectangle|*
%AMROUNDEDRECTD28*
21,1,0.05512,0.02362,0,0,180.0*
21,1,0.03150,0.04724,0,0,180.0*
1,1,0.02362,-0.01575,0.01181*
1,1,0.02362,0.01575,0.01181*
1,1,0.02362,0.01575,-0.01181*
1,1,0.02362,-0.01575,-0.01181*
%
%ADD28ROUNDEDRECTD28*%
%ADD29O,0.05906X0.03150*%
%ADD30C,0.05000*%
%ADD31C,0.01000*%
G36*
X116833Y261905D02*
X117078Y261470D01*
X115849Y259465D01*
X114876Y257114D01*
X114281Y254639D01*
X114082Y252102D01*
X114281Y249565D01*
X114876Y247091D01*
X115849Y244740D01*
X117179Y242570D01*
X118832Y240635D01*
X120767Y238982D01*
X122937Y237653D01*
X125288Y236679D01*
X127762Y236085D01*
X130299Y235885D01*
X132836Y236085D01*
X135311Y236679D01*
X137662Y237653D01*
X139831Y238982D01*
X141767Y240635D01*
X143419Y242570D01*
X144749Y244740D01*
X145723Y247091D01*
X146317Y249565D01*
X146517Y252102D01*
X146317Y254639D01*
X145723Y257114D01*
X144749Y259465D01*
X143580Y261373D01*
X143873Y261852D01*
X144798Y261779D01*
X151650Y260877D01*
X158445Y259617D01*
X165165Y258004D01*
X171791Y256041D01*
X178305Y253734D01*
X184690Y251090D01*
X190928Y248114D01*
X197001Y244817D01*
X202893Y241206D01*
X208589Y237292D01*
X214071Y233085D01*
X219326Y228596D01*
X224339Y223839D01*
X229096Y218826D01*
X233585Y213571D01*
X237792Y208089D01*
X241706Y202393D01*
X245317Y196501D01*
X248614Y190427D01*
X251590Y184190D01*
X254234Y177805D01*
X256541Y171291D01*
X258504Y164665D01*
X260117Y157945D01*
X261377Y151150D01*
X262252Y144502D01*
X261809Y144187D01*
X260307Y145107D01*
X257956Y146081D01*
X255482Y146675D01*
X252945Y146875D01*
X250408Y146675D01*
X247933Y146081D01*
X245582Y145107D01*
X243413Y143778D01*
X241477Y142125D01*
X239825Y140190D01*
X238495Y138020D01*
X237521Y135669D01*
X236927Y133194D01*
X236727Y130657D01*
X236927Y128121D01*
X237521Y125646D01*
X238495Y123295D01*
X239825Y121125D01*
X241477Y119190D01*
X243413Y117537D01*
X245582Y116208D01*
X247933Y115234D01*
X250408Y114640D01*
X252945Y114440D01*
X255482Y114640D01*
X257956Y115234D01*
X260307Y116208D01*
X262254Y117401D01*
X262733Y117107D01*
X262697Y116658D01*
X261792Y109784D01*
X260529Y102968D01*
X258910Y96227D01*
X256941Y89579D01*
X254627Y83044D01*
X254524Y82795D01*
X7765D01*
X7622Y83140D01*
X5313Y89662D01*
X3348Y96296D01*
X1733Y103023D01*
X472Y109826D01*
X-284Y115566D01*
X135Y115838D01*
X1492Y115007D01*
X3843Y114033D01*
X6317Y113439D01*
X8854Y113239D01*
X11391Y113439D01*
X13866Y114033D01*
X16217Y115007D01*
X18387Y116337D01*
X20322Y117989D01*
X21974Y119924D01*
X23304Y122094D01*
X24278Y124445D01*
X24872Y126920D01*
X25072Y129457D01*
X24872Y131994D01*
X24278Y134468D01*
X23304Y136819D01*
X21974Y138989D01*
X20322Y140924D01*
X18387Y142577D01*
X16217Y143906D01*
X13866Y144880D01*
X11391Y145474D01*
X8854Y145674D01*
X6317Y145474D01*
X3843Y144880D01*
X1492Y143906D01*
X-153Y142898D01*
X-579Y143160D01*
X-488Y144320D01*
X415Y151183D01*
X1677Y157989D01*
X3293Y164719D01*
X5259Y171356D01*
X7569Y177881D01*
X10218Y184276D01*
X13198Y190523D01*
X16501Y196606D01*
X20117Y202508D01*
X24038Y208212D01*
X28252Y213704D01*
X32747Y218967D01*
X37512Y223988D01*
X42533Y228753D01*
X47796Y233248D01*
X53288Y237462D01*
X58992Y241383D01*
X64894Y244999D01*
X70977Y248302D01*
X77224Y251282D01*
X83619Y253931D01*
X90144Y256241D01*
X96781Y258207D01*
X103512Y259823D01*
X110317Y261085D01*
X116792Y261937D01*
X116833Y261905D01*
D02*
G37*
%LPC*%
G36*
X102000Y236523D02*
X73500D01*
X72726Y236369D01*
X72069Y235931D01*
X70238Y234099D01*
X69655Y234411D01*
X68354Y234806D01*
X67000Y234939D01*
X65646Y234806D01*
X64345Y234411D01*
X63145Y233769D01*
X62093Y232907D01*
X61230Y231855D01*
X60589Y230655D01*
X60194Y229354D01*
X60061Y228000D01*
X60194Y226646D01*
X60589Y225345D01*
X61230Y224145D01*
X62093Y223093D01*
X63145Y222231D01*
X64345Y221589D01*
X65646Y221194D01*
X67000Y221061D01*
X68354Y221194D01*
X69655Y221589D01*
X70855Y222231D01*
X71907Y223093D01*
X72769Y224145D01*
X73411Y225345D01*
X73806Y226646D01*
X73939Y228000D01*
X73806Y229354D01*
X73411Y230655D01*
X73099Y231238D01*
X74338Y232477D01*
X101162D01*
X112477Y221162D01*
Y215859D01*
X112004Y215496D01*
X111443Y214765D01*
X111090Y213914D01*
X110970Y213000D01*
X111090Y212086D01*
X111443Y211235D01*
X112004Y210504D01*
X112735Y209943D01*
X113586Y209590D01*
X114500Y209470D01*
X115414Y209590D01*
X116265Y209943D01*
X116996Y210504D01*
X117557Y211235D01*
X117910Y212086D01*
X118030Y213000D01*
X117910Y213914D01*
X117557Y214765D01*
X116996Y215496D01*
X116523Y215859D01*
Y222000D01*
X116369Y222774D01*
X115931Y223431D01*
X103431Y235931D01*
X102774Y236369D01*
X102000Y236523D01*
D02*
G37*
G36*
X31500Y197390D02*
X30646Y197306D01*
X29345Y196911D01*
X28145Y196270D01*
X27093Y195407D01*
X26230Y194355D01*
X25589Y193155D01*
X25194Y191854D01*
X25110Y191000D01*
X31500D01*
Y197390D01*
D02*
G37*
G36*
Y190000D02*
X25110D01*
X25194Y189146D01*
X25589Y187845D01*
X26230Y186645D01*
X27093Y185593D01*
X28145Y184731D01*
X29345Y184089D01*
X30646Y183694D01*
X31500Y183610D01*
Y190000D01*
D02*
G37*
G36*
X88500Y225939D02*
X87146Y225806D01*
X85845Y225411D01*
X84645Y224769D01*
X83593Y223907D01*
X82731Y222855D01*
X82089Y221655D01*
X81694Y220354D01*
X81561Y219000D01*
X81694Y217646D01*
X82089Y216345D01*
X82731Y215145D01*
X83593Y214093D01*
X84645Y213230D01*
X85845Y212589D01*
X87146Y212194D01*
X88500Y212061D01*
X89854Y212194D01*
X91155Y212589D01*
X91738Y212901D01*
X106569Y198069D01*
X107226Y197631D01*
X108000Y197477D01*
X138662D01*
X147477Y188662D01*
Y173500D01*
X147631Y172726D01*
X148069Y172069D01*
X153716Y166422D01*
X153265Y165747D01*
X153185Y165346D01*
X152626Y165098D01*
X150253Y166520D01*
X146630Y168234D01*
X142856Y169584D01*
X139434Y170441D01*
X139214Y171012D01*
X139326Y171180D01*
X139496Y172031D01*
Y175181D01*
X139326Y176032D01*
X138844Y176754D01*
X138689Y176857D01*
X138673Y177357D01*
X138810Y177462D01*
X139308Y178111D01*
X139621Y178866D01*
X139728Y179677D01*
X139621Y180488D01*
X139308Y181244D01*
X138810Y181893D01*
X138161Y182390D01*
X137405Y182703D01*
X136594Y182810D01*
X135784Y182703D01*
X135028Y182390D01*
X134379Y181893D01*
X133881Y181244D01*
X133568Y180488D01*
X133461Y179677D01*
X133568Y178866D01*
X133881Y178111D01*
X134148Y177763D01*
X134098Y177472D01*
X133968Y177175D01*
X133337Y176754D01*
X133249Y176622D01*
X133167Y176630D01*
X132714Y176722D01*
X132336Y177214D01*
X131799Y177627D01*
X131172Y177886D01*
X131000Y177909D01*
Y174000D01*
X130000D01*
Y177909D01*
X129828Y177886D01*
X129201Y177627D01*
X128664Y177214D01*
X128286Y176722D01*
X127833Y176630D01*
X127751Y176622D01*
X127663Y176754D01*
X127254Y177027D01*
X127210Y177102D01*
X127154Y177664D01*
X127497Y178111D01*
X127810Y178866D01*
X127917Y179677D01*
X127810Y180488D01*
X127497Y181244D01*
X126999Y181893D01*
X126350Y182390D01*
X125594Y182703D01*
X124784Y182810D01*
X123973Y182703D01*
X123217Y182390D01*
X122568Y181893D01*
X122070Y181244D01*
X121757Y180488D01*
X121650Y179677D01*
X121757Y178866D01*
X122070Y178111D01*
X122483Y177573D01*
X122487Y176975D01*
X122156Y176754D01*
X121674Y176032D01*
X121672Y176023D01*
X119338D01*
X91931Y203431D01*
X91274Y203869D01*
X90500Y204023D01*
X80338D01*
X80306Y204354D01*
X79911Y205655D01*
X79269Y206855D01*
X78407Y207907D01*
X77355Y208769D01*
X76155Y209411D01*
X74854Y209806D01*
X73500Y209939D01*
X72146Y209806D01*
X70845Y209411D01*
X69645Y208769D01*
X68593Y207907D01*
X67730Y206855D01*
X67089Y205655D01*
X66694Y204354D01*
X66561Y203000D01*
X66694Y201646D01*
X67089Y200345D01*
X67730Y199145D01*
X68593Y198093D01*
X69645Y197231D01*
X70845Y196589D01*
X72146Y196194D01*
X73500Y196061D01*
X74854Y196194D01*
X76155Y196589D01*
X77355Y197231D01*
X78407Y198093D01*
X79269Y199145D01*
X79714Y199977D01*
X89662D01*
X117069Y172569D01*
X117726Y172131D01*
X118500Y171977D01*
X121515D01*
X121674Y171180D01*
X121930Y170798D01*
X121710Y170227D01*
X119144Y169584D01*
X115370Y168234D01*
X111747Y166520D01*
X108755Y164727D01*
X108298Y164930D01*
X108235Y165247D01*
X107753Y165969D01*
X105526Y168196D01*
X104804Y168678D01*
X103953Y168847D01*
X103771Y168811D01*
X103406Y169153D01*
X103428Y169324D01*
X103321Y170135D01*
X103008Y170890D01*
X102510Y171539D01*
X101862Y172037D01*
X101106Y172350D01*
X100295Y172457D01*
X99484Y172350D01*
X98729Y172037D01*
X98080Y171539D01*
X97582Y170890D01*
X97269Y170135D01*
X97162Y169324D01*
X97269Y168513D01*
X97582Y167757D01*
X98080Y167108D01*
X98729Y166611D01*
X99484Y166297D01*
X99918Y166240D01*
X100089Y166000D01*
X100207Y165698D01*
X100059Y164953D01*
X100090Y164798D01*
X100026Y164746D01*
X99641Y164490D01*
X99026Y164571D01*
X98642Y164521D01*
X68533Y194630D01*
X68037Y194961D01*
X67452Y195078D01*
X52422D01*
X51837Y194961D01*
X51340Y194630D01*
X48740Y192029D01*
X38752D01*
X38411Y193155D01*
X37769Y194355D01*
X36907Y195407D01*
X35855Y196270D01*
X34655Y196911D01*
X33354Y197306D01*
X32500Y197390D01*
Y190500D01*
Y183610D01*
X33354Y183694D01*
X34655Y184089D01*
X35855Y184731D01*
X36907Y185593D01*
X37769Y186645D01*
X38411Y187845D01*
X38752Y188971D01*
X49373D01*
X49959Y189087D01*
X50455Y189419D01*
X53055Y192019D01*
X54987D01*
X55166Y191519D01*
X54593Y191049D01*
X53730Y189998D01*
X53089Y188798D01*
X52694Y187497D01*
X52561Y186143D01*
X52694Y184789D01*
X53089Y183487D01*
X53730Y182288D01*
X54593Y181236D01*
X55645Y180373D01*
X56845Y179732D01*
X58146Y179337D01*
X59500Y179204D01*
X60854Y179337D01*
X62155Y179732D01*
X63355Y180373D01*
X64407Y181236D01*
X65270Y182288D01*
X65611Y182926D01*
X66175Y182964D01*
X74477Y174662D01*
Y165000D01*
X74631Y164226D01*
X75069Y163569D01*
X86569Y152069D01*
X87226Y151631D01*
X88000Y151477D01*
X92000D01*
X92774Y151631D01*
X93431Y152069D01*
X94820Y153459D01*
X95031Y153247D01*
X95753Y152765D01*
X96154Y152685D01*
X96402Y152126D01*
X94980Y149753D01*
X93266Y146130D01*
X91916Y142356D01*
X91142Y139268D01*
X90676Y139088D01*
X90320Y139326D01*
X89468Y139496D01*
X86319D01*
X85468Y139326D01*
X84746Y138844D01*
X84643Y138689D01*
X84143Y138673D01*
X84038Y138810D01*
X83389Y139308D01*
X82634Y139621D01*
X81823Y139728D01*
X81012Y139621D01*
X80256Y139308D01*
X79607Y138810D01*
X79110Y138161D01*
X78796Y137405D01*
X78690Y136594D01*
X78796Y135784D01*
X79110Y135028D01*
X79607Y134379D01*
X80256Y133881D01*
X81012Y133568D01*
X81823Y133461D01*
X82634Y133568D01*
X83389Y133881D01*
X83737Y134148D01*
X84028Y134098D01*
X84325Y133968D01*
X84746Y133337D01*
X84878Y133249D01*
X84870Y133167D01*
X84778Y132714D01*
X84286Y132336D01*
X83873Y131799D01*
X83614Y131172D01*
X83591Y131000D01*
X87500D01*
Y130000D01*
X83591D01*
X83614Y129828D01*
X83873Y129201D01*
X84286Y128664D01*
X84778Y128286D01*
X84870Y127833D01*
X84878Y127751D01*
X84746Y127663D01*
X84473Y127254D01*
X84398Y127210D01*
X83836Y127154D01*
X83389Y127497D01*
X82634Y127810D01*
X81823Y127917D01*
X81012Y127810D01*
X80256Y127497D01*
X79607Y126999D01*
X79110Y126350D01*
X78796Y125594D01*
X78690Y124784D01*
X78796Y123973D01*
X79110Y123217D01*
X79607Y122568D01*
X80256Y122070D01*
X81012Y121757D01*
X81823Y121650D01*
X82634Y121757D01*
X83389Y122070D01*
X83927Y122483D01*
X84525Y122487D01*
X84746Y122156D01*
X85468Y121674D01*
X85477Y121672D01*
Y116523D01*
X77838D01*
X64023Y130338D01*
Y155000D01*
X63869Y155774D01*
X63431Y156431D01*
X52887Y166974D01*
X52939Y167500D01*
X52806Y168854D01*
X52411Y170155D01*
X51770Y171355D01*
X50907Y172407D01*
X49855Y173269D01*
X48655Y173911D01*
X47354Y174306D01*
X46000Y174439D01*
X44646Y174306D01*
X43345Y173911D01*
X42145Y173269D01*
X41093Y172407D01*
X40231Y171355D01*
X39589Y170155D01*
X39194Y168854D01*
X39061Y167500D01*
X39194Y166146D01*
X39589Y164845D01*
X40231Y163645D01*
X41093Y162593D01*
X42145Y161731D01*
X43345Y161089D01*
X44646Y160694D01*
X46000Y160561D01*
X47354Y160694D01*
X48655Y161089D01*
X49855Y161731D01*
X50907Y162593D01*
X50958Y162657D01*
X51458Y162681D01*
X59977Y154162D01*
Y129500D01*
X60131Y128726D01*
X60569Y128069D01*
X75569Y113069D01*
X76226Y112631D01*
X77000Y112477D01*
X87500D01*
X88274Y112631D01*
X88931Y113069D01*
X89369Y113726D01*
X89523Y114500D01*
Y121515D01*
X90320Y121674D01*
X90676Y121912D01*
X91142Y121732D01*
X91916Y118644D01*
X93266Y114870D01*
X94980Y111247D01*
X97040Y107809D01*
X99428Y104589D01*
X102120Y101620D01*
X105089Y98928D01*
X108309Y96540D01*
X111747Y94480D01*
X115370Y92766D01*
X119144Y91416D01*
X123032Y90442D01*
X126997Y89854D01*
X131000Y89657D01*
X135003Y89854D01*
X138968Y90442D01*
X142856Y91416D01*
X146630Y92766D01*
X150253Y94480D01*
X153691Y96540D01*
X156911Y98928D01*
X159880Y101620D01*
X162572Y104589D01*
X164960Y107809D01*
X167020Y111247D01*
X168734Y114870D01*
X170084Y118644D01*
X171058Y122532D01*
X171646Y126497D01*
X171843Y130500D01*
X171646Y134503D01*
X171058Y138468D01*
X170084Y142356D01*
X168734Y146130D01*
X167020Y149753D01*
X165227Y152745D01*
X165430Y153202D01*
X165747Y153265D01*
X166469Y153747D01*
X168696Y155974D01*
X169178Y156696D01*
X169347Y157547D01*
X169311Y157729D01*
X169653Y158094D01*
X169824Y158072D01*
X170635Y158179D01*
X171390Y158492D01*
X172039Y158990D01*
X172537Y159638D01*
X172850Y160394D01*
X172957Y161205D01*
X172850Y162016D01*
X172537Y162771D01*
X172039Y163420D01*
X171390Y163918D01*
X170635Y164231D01*
X169824Y164338D01*
X169013Y164231D01*
X168257Y163918D01*
X167608Y163420D01*
X167111Y162771D01*
X166797Y162016D01*
X166740Y161582D01*
X166500Y161411D01*
X166198Y161293D01*
X165453Y161441D01*
X165298Y161410D01*
X165246Y161474D01*
X164990Y161859D01*
X165071Y162474D01*
X164983Y163146D01*
X164724Y163773D01*
X164618Y163911D01*
X161854Y161146D01*
X161146Y161854D01*
X163911Y164618D01*
X163773Y164724D01*
X163146Y164983D01*
X162474Y165071D01*
X161859Y164990D01*
X161474Y165246D01*
X161410Y165298D01*
X161441Y165453D01*
X161345Y165936D01*
X161367Y166019D01*
X161725Y166457D01*
X162283Y166530D01*
X163039Y166843D01*
X163688Y167341D01*
X164186Y167990D01*
X164498Y168746D01*
X164605Y169557D01*
X164498Y170368D01*
X164186Y171123D01*
X163688Y171772D01*
X163039Y172270D01*
X162283Y172583D01*
X161472Y172690D01*
X160661Y172583D01*
X159906Y172270D01*
X159257Y171772D01*
X158759Y171123D01*
X158446Y170368D01*
X158357Y169696D01*
X157938Y169270D01*
X157547Y169347D01*
X156696Y169178D01*
X156688Y169173D01*
X151523Y174338D01*
Y189500D01*
X151369Y190274D01*
X150931Y190931D01*
X140931Y200931D01*
X140274Y201369D01*
X139500Y201523D01*
X108838D01*
X94599Y215762D01*
X94911Y216345D01*
X95306Y217646D01*
X95439Y219000D01*
X95306Y220354D01*
X94911Y221655D01*
X94270Y222855D01*
X93407Y223907D01*
X92355Y224769D01*
X91155Y225411D01*
X89854Y225806D01*
X88500Y225939D01*
D02*
G37*
%LPD*%
D20*
X73500Y202000D02*
X90500D01*
X114500Y213000D02*
Y222000D01*
X102000Y234500D02*
X114500Y222000D01*
X73500Y234500D02*
X102000D01*
X67000Y228000D02*
X73500Y234500D01*
X62000Y129500D02*
Y155000D01*
X46000Y167500D02*
X49500D01*
X62000Y155000D01*
X108000Y199500D02*
X139500D01*
X88500Y219000D02*
X108000Y199500D01*
X73500Y202000D02*
Y203000D01*
X90500Y202000D02*
X118500Y174000D01*
X57500Y186500D02*
X59500Y186143D01*
X76500Y165000D02*
X88000Y153500D01*
X59500Y186143D02*
X67000Y185000D01*
X76500Y175500D01*
Y165000D02*
Y175500D01*
X88000Y153500D02*
X92000D01*
X118500Y174000D02*
X125500D01*
X139500Y199500D02*
X149500Y189500D01*
Y173500D02*
Y189500D01*
Y173500D02*
X157965Y165035D01*
X92000Y153500D02*
X95964Y157465D01*
X96465D01*
X87500Y114500D02*
Y125500D01*
X77000Y114500D02*
X87500D01*
X62000Y129500D02*
X77000Y114500D01*
D21*
X91315Y26752D02*
D03*
X69898Y35413D02*
D03*
X49937Y53445D02*
D03*
X35528Y68602D02*
D03*
X88583Y18386D02*
D03*
X65866Y28858D02*
D03*
X41575Y48543D02*
D03*
X27283Y66102D02*
D03*
X67000Y228000D02*
D03*
X32000Y190500D02*
D03*
X88500Y219000D02*
D03*
X73500Y203000D02*
D03*
X59500Y186143D02*
D03*
X46000Y167500D02*
D03*
D22*
X157269Y165175D02*
D03*
X165175Y157269D02*
D03*
D23*
X161500Y161500D02*
D03*
D24*
X96325Y156769D02*
D03*
X104232Y164675D02*
D03*
D25*
X100000Y161000D02*
D03*
D26*
X124909Y173606D02*
D03*
X136091D02*
D03*
D27*
X130500Y174000D02*
D03*
D28*
X87894Y124909D02*
D03*
Y136091D02*
D03*
D29*
X87500Y130500D02*
D03*
D30*
X114500Y213000D02*
D03*
D31*
X101101Y159899D02*
X101228Y160026D01*
X100974Y159772D02*
X101101Y159899D01*
X101101Y159899D02*
X101101Y159899D01*
X100000Y161000D02*
X101101Y159899D01*
X67452Y193548D02*
X100000Y161000D01*
X160918Y161500D02*
X161500D01*
X159444Y160026D02*
X160918Y161500D01*
X87500Y130500D02*
X88878D01*
X32000Y190500D02*
X49373D01*
X52422Y193548D02*
X67452D01*
X49373Y190500D02*
X52422Y193548D01*
M02*
