G04*
G04 #@! TF.GenerationSoftware,Altium Limited,Altium Designer,18.0.12 (696)*
G04*
G04 Layer_Color=16711935*
%FSLAX25Y25*%
%MOIN*%
G70*
G01*
G75*
%ADD11C,0.12611*%
G04:AMPARAMS|DCode=12|XSize=63.12mil|YSize=55.24mil|CornerRadius=15.81mil|HoleSize=0mil|Usage=FLASHONLY|Rotation=45.000|XOffset=0mil|YOffset=0mil|HoleType=Round|Shape=RoundedRectangle|*
%AMROUNDEDRECTD12*
21,1,0.06312,0.02362,0,0,45.0*
21,1,0.03150,0.05524,0,0,45.0*
1,1,0.03162,0.01949,0.00278*
1,1,0.03162,-0.00278,-0.01949*
1,1,0.03162,-0.01949,-0.00278*
1,1,0.03162,0.00278,0.01949*
%
%ADD12ROUNDEDRECTD12*%
G04:AMPARAMS|DCode=13|XSize=67.06mil|YSize=39.5mil|CornerRadius=0mil|HoleSize=0mil|Usage=FLASHONLY|Rotation=45.000|XOffset=0mil|YOffset=0mil|HoleType=Round|Shape=Round|*
%AMOVALD13*
21,1,0.02756,0.03950,0.00000,0.00000,45.0*
1,1,0.03950,-0.00974,-0.00974*
1,1,0.03950,0.00974,0.00974*
%
%ADD13OVALD13*%

G04:AMPARAMS|DCode=14|XSize=63.12mil|YSize=55.24mil|CornerRadius=15.81mil|HoleSize=0mil|Usage=FLASHONLY|Rotation=135.000|XOffset=0mil|YOffset=0mil|HoleType=Round|Shape=RoundedRectangle|*
%AMROUNDEDRECTD14*
21,1,0.06312,0.02362,0,0,135.0*
21,1,0.03150,0.05524,0,0,135.0*
1,1,0.03162,-0.00278,0.01949*
1,1,0.03162,0.01949,-0.00278*
1,1,0.03162,0.00278,-0.01949*
1,1,0.03162,-0.01949,0.00278*
%
%ADD14ROUNDEDRECTD14*%
G04:AMPARAMS|DCode=15|XSize=67.06mil|YSize=39.5mil|CornerRadius=0mil|HoleSize=0mil|Usage=FLASHONLY|Rotation=135.000|XOffset=0mil|YOffset=0mil|HoleType=Round|Shape=Round|*
%AMOVALD15*
21,1,0.02756,0.03950,0.00000,0.00000,135.0*
1,1,0.03950,0.00974,-0.00974*
1,1,0.03950,-0.00974,0.00974*
%
%ADD15OVALD15*%

G04:AMPARAMS|DCode=16|XSize=63.12mil|YSize=55.24mil|CornerRadius=15.81mil|HoleSize=0mil|Usage=FLASHONLY|Rotation=90.000|XOffset=0mil|YOffset=0mil|HoleType=Round|Shape=RoundedRectangle|*
%AMROUNDEDRECTD16*
21,1,0.06312,0.02362,0,0,90.0*
21,1,0.03150,0.05524,0,0,90.0*
1,1,0.03162,0.01181,0.01575*
1,1,0.03162,0.01181,-0.01575*
1,1,0.03162,-0.01181,-0.01575*
1,1,0.03162,-0.01181,0.01575*
%
%ADD16ROUNDEDRECTD16*%
%ADD17O,0.03950X0.06706*%
G04:AMPARAMS|DCode=18|XSize=63.12mil|YSize=55.24mil|CornerRadius=15.81mil|HoleSize=0mil|Usage=FLASHONLY|Rotation=180.000|XOffset=0mil|YOffset=0mil|HoleType=Round|Shape=RoundedRectangle|*
%AMROUNDEDRECTD18*
21,1,0.06312,0.02362,0,0,180.0*
21,1,0.03150,0.05524,0,0,180.0*
1,1,0.03162,-0.01575,0.01181*
1,1,0.03162,0.01575,0.01181*
1,1,0.03162,0.01575,-0.01181*
1,1,0.03162,-0.01575,-0.01181*
%
%ADD18ROUNDEDRECTD18*%
%ADD19O,0.06706X0.03950*%
D11*
X91315Y26752D02*
D03*
X69898Y35413D02*
D03*
X49937Y53445D02*
D03*
X35528Y68602D02*
D03*
X88583Y18386D02*
D03*
X65866Y28858D02*
D03*
X41575Y48543D02*
D03*
X27283Y66102D02*
D03*
X67000Y228000D02*
D03*
X32000Y190500D02*
D03*
X88500Y219000D02*
D03*
X73500Y203000D02*
D03*
X59500Y186143D02*
D03*
X46000Y167500D02*
D03*
D12*
X157269Y165175D02*
D03*
X165175Y157269D02*
D03*
D13*
X161500Y161500D02*
D03*
D14*
X96325Y156769D02*
D03*
X104232Y164675D02*
D03*
D15*
X100000Y161000D02*
D03*
D16*
X124909Y173606D02*
D03*
X136091D02*
D03*
D17*
X130500Y174000D02*
D03*
D18*
X87894Y124909D02*
D03*
Y136091D02*
D03*
D19*
X87500Y130500D02*
D03*
M02*
