M48
;Layer_Color=9474304
;FILE_FORMAT=2:5
INCH,LZ
;TYPE=PLATED
T1F00S00C0.02559
T2F00S00C0.02800
T3F00S00C0.03937
%
T01
X00875Y01255
Y01305
Y01355
X0096465Y0157465
X01Y0161
X0103535Y0164535
X0157965Y0165035
X01615Y01615
X0165035Y0157965
X01355Y0174
X01305
X01255
T02
X01145Y0213
T03
X0065866Y0028858
X0069898Y0035413
X0091315Y0026752
X0088583Y0018386
X0049937Y0053445
X0041575Y0048543
X0035528Y0068602
X0027283Y0066102
X0046Y01675
X0032Y01905
X00595Y0186143
X00735Y0203
X00885Y0219
X0067Y0228
M30
