G04*
G04 #@! TF.GenerationSoftware,Altium Limited,Altium Designer,18.0.12 (696)*
G04*
G04 Layer_Color=16711935*
%FSLAX25Y25*%
%MOIN*%
G70*
G01*
G75*
%ADD31C,0.01000*%
%ADD34C,0.00197*%
D31*
X121353Y263725D02*
G03*
X139760Y263310I8946J-11623D01*
G01*
X263881Y140431D02*
G03*
X264245Y121307I-10937J-9774D01*
G01*
X141332Y-2872D02*
G03*
X121554Y-2768I-9832J10884D01*
G01*
X-2021Y119615D02*
G03*
X-2084Y139228I10875J9842D01*
G01*
X142007Y-2974D02*
G03*
X264562Y120619I-11007J133474D01*
G01*
X-2132Y118635D02*
G03*
X120405Y-2739I133132J11864D01*
G01*
X264040Y141656D02*
G03*
X141105Y263623I-133040J-11156D01*
G01*
X170294Y130500D02*
G03*
X170294Y130500I-39294J0D01*
G01*
X120402Y263796D02*
G03*
X-2406Y139623I10598J-133296D01*
G01*
X139760Y263310D02*
X140073Y263623D01*
X141105D01*
X121282Y263796D02*
X121353Y263725D01*
X120810Y263796D02*
X121282D01*
X120402D02*
X120810D01*
X264245Y121307D02*
X264562Y120989D01*
Y120619D02*
Y120989D01*
X263881Y140431D02*
X264040Y140589D01*
Y141656D01*
X141434Y-2974D02*
X142007D01*
X120405Y-2739D02*
X121525D01*
X-2132Y119504D02*
X-2021Y119615D01*
X-2132Y118635D02*
Y119504D01*
X-2406Y139550D02*
X-2084Y139228D01*
X-2406Y139550D02*
Y139623D01*
D34*
X171832Y161205D02*
G03*
X171832Y161205I-2008J0D01*
G01*
X163480Y169557D02*
G03*
X163480Y169557I-2008J0D01*
G01*
X102303Y169324D02*
G03*
X102303Y169324I-2008J0D01*
G01*
X93951Y160972D02*
G03*
X93951Y160972I-2008J0D01*
G01*
X138602Y179677D02*
G03*
X138602Y179677I-2008J0D01*
G01*
X126791D02*
G03*
X126791Y179677I-2008J0D01*
G01*
X83831Y136594D02*
G03*
X83831Y136594I-2008J0D01*
G01*
Y124784D02*
G03*
X83831Y124784I-2008J0D01*
G01*
M02*
